<svg width="23" height="23" viewBox="0 0 23 23" fill="none" xmlns="http://www.w3.org/2000/svg">
    <path d="M20.0555 4.16663H2.94439C2.62024 4.16663 2.30936 4.2954 2.08015 4.52461C1.85094 4.75382 1.72217 5.06469 1.72217 5.38885V17.6111C1.72217 17.9352 1.85094 18.2461 2.08015 18.4753C2.30936 18.7045 2.62024 18.8333 2.94439 18.8333H20.0555C20.3797 18.8333 20.6905 18.7045 20.9197 18.4753C21.149 18.2461 21.2777 17.9352 21.2777 17.6111V5.38885C21.2777 5.06469 21.149 4.75382 20.9197 4.52461C20.6905 4.2954 20.3797 4.16663 20.0555 4.16663ZM19.1144 17.6111H3.95883L8.23661 13.1866L7.35661 12.3372L2.94439 16.9022V6.31774L10.5405 13.8772C10.7695 14.1048 11.0793 14.2326 11.4022 14.2326C11.7251 14.2326 12.0348 14.1048 12.2638 13.8772L20.0555 6.12829V16.8227L15.5577 12.325L14.6961 13.1866L19.1144 17.6111ZM3.74495 5.38885H19.0655L11.4022 13.0094L3.74495 5.38885Z" fill="white" />
</svg>