<svg width="771" height="779" viewBox="0 0 771 779" fill="none" xmlns="http://www.w3.org/2000/svg">
<path d="M188.705 626.839C169.687 632.247 151.878 615.188 156.462 595.956L235.527 264.215C237.697 255.11 244.615 247.887 253.618 245.327L581.648 152.054C600.665 146.646 618.474 163.704 613.891 182.937L534.825 514.678C532.655 523.783 525.737 531.005 516.734 533.565L188.705 626.839Z" fill="url(#paint0_linear_272_10361)"/>
<path opacity="0.2" d="M269.521 264.188L269.164 264.097L155.714 504.646L555.647 535.913L556.098 535.948L570.752 340.677L570.781 340.293L269.521 264.188ZM384.41 418.883L157.288 503.427L269.5 265.504L384.41 418.883ZM385.076 419.608L554.015 534.867L158.502 503.948L385.076 419.608ZM385.285 418.541L270.545 265.386L568.874 340.75L385.285 418.541ZM555.292 534.639L386.082 419.193L569.797 341.349L555.292 534.639Z" fill="#367CFF"/>
<path d="M621.868 344.743C621.506 354.004 618.936 363.038 614.377 371.074C609.819 379.109 603.407 385.908 595.689 390.888C587.972 395.869 579.179 398.883 570.061 399.673C560.944 400.463 551.773 399.005 543.332 395.425C539.374 393.745 535.619 391.609 532.143 389.059C525.499 384.201 519.969 377.947 515.931 370.724V370.718C511.626 362.993 509.148 354.363 508.693 345.505C508.237 336.646 509.815 327.802 513.304 319.666C516.793 311.53 522.097 304.324 528.799 298.614C535.502 292.904 543.421 288.846 551.933 286.759C560.446 284.672 569.32 284.612 577.859 286.585C586.398 288.557 594.369 292.508 601.146 298.127C607.923 303.746 613.322 310.88 616.917 318.968C620.512 327.057 622.207 335.879 621.867 344.743L621.868 344.743Z" fill="white"/>
<path opacity="0.09" d="M621.868 344.743C621.506 354.004 618.936 363.038 614.377 371.074C609.819 379.109 603.407 385.908 595.689 390.888C587.972 395.869 579.179 398.883 570.061 399.673C560.944 400.463 551.773 399.005 543.332 395.425C539.374 393.745 535.619 391.609 532.143 389.059C525.499 384.201 519.969 377.947 515.931 370.724V370.718C511.626 362.993 509.148 354.363 508.693 345.505C508.237 336.646 509.815 327.802 513.304 319.666C516.793 311.53 522.097 304.324 528.799 298.614C535.502 292.904 543.421 288.846 551.933 286.759C560.446 284.672 569.32 284.612 577.859 286.585C586.398 288.557 594.369 292.508 601.146 298.127C607.923 303.746 613.322 310.88 616.917 318.968C620.512 327.057 622.207 335.879 621.867 344.743L621.868 344.743Z" fill="#005D83"/>
<path d="M578.656 298.828C578.656 298.828 592.199 298.996 587.53 317.897L586.258 317.96L583.676 318.088" fill="#0C0C0C"/>
<path d="M563.534 337.728C563.597 337.722 563.847 349.512 577.378 349.017C586.745 348.675 590.46 338.77 590.675 338.778C589.676 338.522 587.992 338.139 587.554 337.88C586.114 337.023 584.326 336.118 583.963 333.207C583.754 331.529 584.544 323.017 584.466 321.325L570.004 324.002C570.068 327.573 571.154 335.887 566.183 337.156C565.356 337.366 564.466 337.554 563.534 337.728Z" fill="#804F3D"/>
<path opacity="0.52" d="M569.422 333.902C569.675 333.178 569.849 332.428 569.94 331.666C570.165 329.926 570.201 328.167 570.047 326.42C572.977 326.136 575.769 325.026 578.106 323.215C578.334 324.219 579.632 328.63 579.188 329.561C578.354 331.32 574.642 334.108 569.422 333.902Z" fill="#0C0C0C"/>
<path d="M572.706 331.82C578.375 331.409 585.214 327.914 585.452 320.133L585.666 313.114C585.904 305.336 582.06 298.903 574.831 298.676C567.599 298.448 562 304.586 561.763 312.365L561.668 315.473C561.654 316.541 561.711 317.608 561.84 318.668C562.161 321.471 562.66 325.733 564.482 328.644C566.202 331.391 569.084 332.081 572.706 331.82Z" fill="#804F3D"/>
<path d="M584.93 322.491C587.128 322.56 588.983 320.234 589.051 318.009C589.119 315.783 587.374 314.499 585.177 314.431L583.999 315.886L583.041 322.432L584.93 322.491Z" fill="#804F3D"/>
<path d="M562.134 321.018C562.531 321.495 563.04 321.863 563.613 322.09C564.187 322.317 564.808 322.395 565.419 322.317C566.726 322.151 567.593 322.694 568.684 322.585C569.6 322.493 569.758 322.065 571.322 321.971C577.356 321.609 581.884 321.224 582.178 313.555L586.018 310.101C586.018 310.101 587.734 331.352 576.385 334.177C569.41 335.912 562.87 335.277 562.028 328.644C561.345 323.254 562.134 321.018 562.134 321.018Z" fill="#0C0C0C"/>
<path d="M564.993 316.58C565.485 316.58 565.884 316.176 565.884 315.677C565.884 315.179 565.485 314.775 564.993 314.775C564.501 314.775 564.102 315.179 564.102 315.677C564.102 316.176 564.501 316.58 564.993 316.58Z" fill="#0C0C0C"/>
<path d="M572.955 316.412C573.447 316.412 573.846 316.008 573.846 315.509C573.846 315.011 573.447 314.607 572.955 314.607C572.462 314.607 572.063 315.011 572.063 315.509C572.063 316.008 572.462 316.412 572.955 316.412Z" fill="#0C0C0C"/>
<path d="M582.808 318.873C582.808 318.873 582.264 307.85 578.979 307.109C576.792 306.616 571.412 309.671 566.497 308.628C564.348 308.171 562.29 308.674 562.063 309.702C561.973 310.11 560.271 306.498 563.731 302.104C566.484 298.605 575.439 297.621 579.422 298.858C590.453 302.285 585.622 314.924 585.622 314.924L585.059 318.71L582.808 318.873Z" fill="#0C0C0C"/>
<path d="M587.82 309.984C591.066 309.984 593.698 307.319 593.698 304.031C593.698 300.742 591.066 298.077 587.82 298.077C584.573 298.077 581.941 300.742 581.941 304.031C581.941 307.319 584.573 309.984 587.82 309.984Z" fill="#0C0C0C"/>
<g opacity="0.52">
<path d="M568.791 322.23H568.777C568.069 322.209 566.884 322.095 566.897 321.558C566.91 321.114 568.246 316.349 568.398 315.806C568.411 315.76 568.442 315.72 568.484 315.697C568.526 315.673 568.575 315.667 568.621 315.681C568.667 315.694 568.706 315.725 568.73 315.767C568.753 315.81 568.759 315.86 568.745 315.906C568.152 318.017 567.267 321.266 567.258 321.567C567.324 321.696 568.054 321.841 568.787 321.862C568.835 321.862 568.881 321.881 568.915 321.915C568.949 321.948 568.969 321.995 568.969 322.043C568.97 322.091 568.951 322.138 568.918 322.173C568.884 322.207 568.839 322.227 568.791 322.228V322.23Z" fill="#0C0C0C"/>
</g>
<path d="M566.636 312.611C565.904 312.391 565.128 312.375 564.388 312.565C564.024 312.656 563.676 312.801 563.354 312.997C563.036 313.189 562.743 313.42 562.482 313.687C562.437 313.728 562.409 313.785 562.406 313.847C562.403 313.908 562.424 313.968 562.464 314.014C562.505 314.06 562.562 314.088 562.622 314.091C562.683 314.094 562.742 314.073 562.788 314.032L562.802 314.02C563.045 313.798 563.315 313.608 563.605 313.454C563.89 313.301 564.197 313.192 564.515 313.132C565.142 313.007 565.79 313.053 566.394 313.264L566.417 313.273C566.46 313.29 566.505 313.298 566.551 313.296C566.597 313.295 566.642 313.285 566.683 313.266C566.725 313.247 566.762 313.219 566.794 313.185C566.825 313.151 566.849 313.112 566.865 313.068C566.88 313.025 566.887 312.978 566.885 312.932C566.883 312.886 566.872 312.841 566.853 312.799C566.833 312.757 566.806 312.719 566.772 312.688C566.738 312.657 566.698 312.634 566.655 312.618L566.636 312.611Z" fill="#0C0C0C"/>
<path d="M571.887 313.266C572.467 312.996 573.108 312.886 573.744 312.949C574.066 312.977 574.382 313.055 574.681 313.18C574.985 313.305 575.271 313.467 575.534 313.664L575.549 313.674C575.598 313.707 575.657 313.719 575.715 313.708C575.773 313.698 575.824 313.665 575.859 313.617C575.893 313.569 575.908 313.51 575.901 313.451C575.894 313.392 575.865 313.339 575.819 313.301C575.534 313.062 575.22 312.86 574.885 312.7C574.546 312.537 574.185 312.427 573.814 312.372C573.06 312.257 572.288 312.349 571.581 312.64C571.498 312.676 571.433 312.744 571.399 312.829C571.365 312.914 571.365 313.009 571.4 313.094C571.435 313.178 571.501 313.246 571.584 313.281C571.668 313.317 571.761 313.318 571.845 313.284L571.862 313.277L571.887 313.266Z" fill="#0C0C0C"/>
<path d="M607.988 367.167C607.484 371.022 606.992 376.316 606.553 381.79C604.836 383.64 603 385.373 601.058 386.978C599.823 387.994 598.549 388.96 597.235 389.875C590.129 394.788 582.014 398 573.503 399.269C564.992 400.538 556.307 399.83 548.105 397.201C547.993 392.116 547.841 385.257 547.689 378.974C547.516 371.726 547.34 365.236 547.246 363.104C546.858 354.641 544.643 348.995 546.317 344.377C546.818 343.011 547.623 341.779 548.67 340.779C552.571 336.912 562.262 337 566.149 337.153C566.216 337.155 565.015 346.24 577.804 346.131C587.203 346.053 587.908 338.008 587.908 338.008C587.908 338.008 592.54 338.496 595.616 339.037C600.647 339.929 603.918 341.798 606.464 344.589C608.839 347.192 610.24 349.955 607.988 367.167Z" fill="#005D83"/>
<path d="M532.806 338.049L533.193 328.355C533.201 328.142 533.166 327.929 533.089 327.731C533.013 327.532 532.896 327.352 532.746 327.201C532.597 327.051 532.418 326.934 532.221 326.857C532.024 326.781 531.814 326.747 531.604 326.757C531.216 326.789 530.854 326.965 530.587 327.252C530.321 327.539 530.169 327.916 530.161 328.31L530.078 330.389L527.375 323.731C527.088 322.986 526.264 322.257 525.459 322.639C525.14 322.766 524.873 322.998 524.701 323.298C524.529 323.598 524.462 323.949 524.512 324.292C524.505 324.293 524.497 324.294 524.49 324.297C524.485 324.3 524.48 324.303 524.475 324.307L524.032 323.157C523.95 322.944 523.822 322.753 523.657 322.596C523.492 322.44 523.295 322.323 523.08 322.253C522.865 322.184 522.637 322.164 522.414 322.195C522.19 322.226 521.976 322.307 521.787 322.432C521.494 322.635 521.278 322.935 521.176 323.28C521.075 323.625 521.093 323.995 521.229 324.328L521.418 324.817C521.406 324.829 521.397 324.843 521.39 324.858C521.187 324.558 520.885 324.341 520.538 324.245C520.191 324.15 519.822 324.182 519.497 324.337C519.146 324.517 518.874 324.824 518.737 325.198C518.6 325.572 518.607 325.984 518.757 326.353L519.226 327.568C519.207 327.556 519.186 327.548 519.164 327.545C519.142 327.543 519.119 327.546 519.098 327.554C519.074 327.565 519.054 327.582 519.039 327.605C518.785 327.388 518.467 327.262 518.135 327.246C517.803 327.23 517.475 327.325 517.201 327.516C516.917 327.723 516.711 328.02 516.616 328.36C516.52 328.701 516.541 329.064 516.674 329.391L520.631 339.643C521.184 341.078 522.148 342.312 523.398 343.188C524.649 344.064 526.129 344.542 527.65 344.56C528.961 344.576 530.226 344.073 531.177 343.159C532.128 342.245 532.69 340.991 532.743 339.664L532.806 338.049Z" fill="#804F3D"/>
<g opacity="0.2">
<path d="M527.155 330.895C527.12 330.909 527.082 330.908 527.049 330.893C527.015 330.879 526.988 330.851 526.974 330.817L524.413 324.482C524.405 324.464 524.4 324.445 524.399 324.426C524.399 324.407 524.402 324.388 524.409 324.37C524.416 324.352 524.426 324.336 524.44 324.322C524.453 324.308 524.469 324.297 524.487 324.29C524.504 324.283 524.523 324.279 524.542 324.279C524.561 324.28 524.58 324.284 524.597 324.292C524.615 324.3 524.63 324.311 524.643 324.325C524.656 324.34 524.666 324.356 524.672 324.375L527.234 330.71C527.241 330.727 527.244 330.745 527.244 330.764C527.244 330.782 527.24 330.801 527.233 330.818C527.226 330.835 527.216 330.851 527.203 330.864C527.189 330.877 527.174 330.887 527.157 330.894L527.155 330.895Z" fill="#0C0C0C"/>
</g>
<g opacity="0.2">
<path d="M524.427 332.117C524.393 332.13 524.355 332.13 524.321 332.115C524.287 332.1 524.261 332.072 524.247 332.038L521.388 324.968C521.375 324.933 521.375 324.895 521.39 324.861C521.404 324.827 521.431 324.8 521.465 324.785C521.499 324.773 521.536 324.774 521.57 324.788C521.603 324.803 521.63 324.829 521.645 324.863L524.504 331.932C524.518 331.967 524.518 332.006 524.503 332.041C524.489 332.076 524.461 332.103 524.427 332.117V332.117Z" fill="#0C0C0C"/>
</g>
<g opacity="0.2">
<path d="M521.481 333.457C521.446 333.47 521.408 333.469 521.374 333.455C521.341 333.44 521.314 333.412 521.3 333.378L519.02 327.738C519.006 327.704 519.006 327.665 519.02 327.63C519.035 327.595 519.062 327.568 519.096 327.554C519.131 327.54 519.169 327.54 519.203 327.554C519.238 327.569 519.265 327.596 519.279 327.631L521.56 333.269C521.574 333.304 521.574 333.343 521.56 333.378C521.545 333.412 521.518 333.44 521.484 333.454L521.481 333.457Z" fill="#0C0C0C"/>
</g>
<path d="M564.491 353.247L541.196 389.519C540.348 390.838 539.213 391.942 537.879 392.747C535.893 391.638 533.978 390.406 532.142 389.059C528.23 386.2 524.694 382.846 521.621 379.078L516.729 340.657L536.311 337.479L538.543 355.973L547.49 342.044L564.491 353.247Z" fill="#005D83"/>
<path d="M567.222 324.209C569.359 324.353 571.482 323.771 573.256 322.556C573.317 322.514 573.389 322.491 573.463 322.489C573.537 322.487 573.611 322.507 573.674 322.546C573.738 322.584 573.789 322.64 573.822 322.707C573.855 322.775 573.869 322.85 573.861 322.925C573.719 324.203 573.095 326.554 570.447 326.853C568.737 327.046 567.498 325.717 566.874 324.832C566.831 324.771 566.806 324.699 566.802 324.624C566.798 324.549 566.815 324.474 566.852 324.408C566.888 324.343 566.943 324.289 567.008 324.254C567.074 324.219 567.148 324.203 567.222 324.209Z" fill="white"/>
<path d="M614.305 371.244C610.863 377.255 606.375 382.585 601.058 386.978C599.824 387.994 598.549 388.96 597.235 389.875L588.137 354.82L608.627 349.361L614.305 371.244Z" fill="#005D83"/>
<path d="M597.435 389.738C597.37 389.781 597.299 389.83 597.235 389.875C597.171 389.921 597.105 389.967 597.041 390.009L590.106 363.303L590.544 363.188L597.435 389.738Z" fill="#0C0C0C"/>
<path d="M547.745 380.625C547.689 380.623 547.635 380.599 547.595 380.559C547.555 380.519 547.532 380.465 547.529 380.408L547.082 370.456C547.079 370.395 547.1 370.336 547.141 370.291C547.181 370.247 547.237 370.22 547.297 370.217C547.357 370.215 547.415 370.236 547.46 370.277C547.504 370.318 547.53 370.375 547.533 370.435L547.979 380.387C547.982 380.448 547.961 380.507 547.921 380.551C547.881 380.596 547.825 380.623 547.765 380.625H547.745Z" fill="#0C0C0C"/>
<path d="M379.222 472.716C411.115 472.716 436.97 446.531 436.97 414.231C436.97 381.93 411.115 355.745 379.222 355.745C347.328 355.745 321.473 381.93 321.473 414.231C321.473 446.531 347.328 472.716 379.222 472.716Z" fill="white"/>
<path opacity="0.09" d="M436.97 414.229C436.97 425.796 433.583 437.104 427.238 446.722C420.893 456.339 411.874 463.835 401.322 468.262C390.77 472.689 379.159 473.847 367.957 471.59C356.755 469.334 346.465 463.763 338.389 455.584C330.313 447.405 324.813 436.984 322.585 425.639C320.357 414.294 321.501 402.535 325.871 391.848C330.242 381.161 337.644 372.027 347.14 365.601C356.637 359.175 367.802 355.745 379.223 355.745C386.814 355.716 394.336 357.209 401.355 360.139C408.374 363.068 414.751 367.374 420.119 372.811C425.487 378.247 429.739 384.706 432.632 391.815C435.524 398.923 436.998 406.541 436.97 414.229Z" fill="#367CFF"/>
<path d="M353.659 379.735C353.659 379.735 353.079 388.564 351.117 391.767C345.471 400.989 343.835 411.363 349.489 416.784C355.144 422.205 391.209 422.279 393.941 409.813C396.24 399.318 391.305 398.189 390.104 389.532C389.56 385.614 388.065 377.4 388.065 377.4" fill="#0A0A0A"/>
<path d="M384.606 407.984C384.544 407.975 383.853 419.585 370.536 418.575C361.318 417.875 358.031 407.969 357.819 407.969C358.813 407.755 360.487 407.444 360.93 407.206C362.381 406.416 364.177 405.594 364.645 402.738C364.916 401.095 364.457 392.674 364.6 391.009L378.751 394.208C378.554 397.723 377.169 405.876 382.02 407.319C382.824 407.556 383.694 407.775 384.606 407.984Z" fill="#E98862"/>
<path opacity="0.5" d="M378.946 403.986C378.724 403.263 378.582 402.517 378.52 401.762C378.365 400.039 378.396 398.304 378.613 396.588C375.737 396.195 373.027 394.993 370.792 393.119C370.529 394.102 369.084 398.396 369.485 399.33C370.242 401.095 373.794 403.986 378.946 403.986Z" fill="#0C0C0C"/>
<path d="M377.116 400.369C371.537 400.917 364.318 398.655 362.823 391.131L361.473 384.341C359.978 376.816 362.668 369.921 369.664 368.495C376.659 367.069 383.101 372.102 384.596 379.628L385.193 382.634C385.767 385.521 387.071 399.393 377.116 400.369Z" fill="#E98862"/>
<path opacity="0.1" d="M373.57 390.51C374.488 390.399 375.167 389.756 375.086 389.074C375.006 388.392 374.197 387.929 373.279 388.04C372.36 388.151 371.681 388.794 371.762 389.476C371.842 390.158 372.651 390.621 373.57 390.51Z" fill="#0C0C0C"/>
<path opacity="0.1" d="M383.271 387.782C383.354 388.462 384.163 388.923 385.081 388.815C385.24 388.796 385.396 388.76 385.548 388.708C385.59 387.896 385.593 387.115 385.569 386.391C385.314 386.327 385.05 386.312 384.789 386.346C383.871 386.455 383.192 387.098 383.271 387.782Z" fill="#0C0C0C"/>
<path opacity="0.5" d="M379.214 389.887H379.228C379.511 389.826 379.791 389.75 380.066 389.658C380.477 389.521 381.013 389.291 380.94 388.915C380.854 388.486 378.776 384.096 378.539 383.597C378.516 383.556 378.479 383.525 378.436 383.511C378.392 383.497 378.344 383.5 378.302 383.52C378.261 383.54 378.228 383.576 378.212 383.62C378.196 383.663 378.196 383.712 378.214 383.755C379.101 385.627 380.529 388.698 380.586 388.986C380.541 389.121 379.86 389.384 379.157 389.528C379.112 389.538 379.073 389.565 379.047 389.604C379.022 389.642 379.012 389.689 379.019 389.735C379.026 389.781 379.051 389.822 379.087 389.85C379.123 389.879 379.169 389.892 379.214 389.888V389.887Z" fill="#0C0C0C"/>
<path d="M355.891 386.778L362.163 385.538C366.901 383.529 368.245 375.169 368.245 375.169C368.245 375.169 374.091 380.809 388.065 377.399C388.065 377.399 385.029 357.643 364.397 363.639C357.744 365.573 353.031 372.441 353.732 381.537C354.223 387.913 355.891 386.778 355.891 386.778Z" fill="#0A0A0A"/>
<path d="M363.713 393.335C361.587 393.768 359.406 391.816 358.98 389.663C358.554 387.509 360.039 385.971 362.165 385.538L363.547 386.757L365.542 392.962L363.713 393.335Z" fill="#E98862"/>
<path d="M380.047 380.096C380.578 379.715 381.2 379.483 381.85 379.425C382.175 379.394 382.504 379.412 382.825 379.479C383.148 379.546 383.462 379.653 383.758 379.799L383.768 379.803C383.801 379.816 383.837 379.817 383.87 379.804C383.903 379.791 383.929 379.765 383.944 379.733C383.959 379.701 383.962 379.664 383.951 379.63C383.94 379.596 383.916 379.568 383.885 379.551C383.571 379.383 383.236 379.255 382.89 379.172C382.542 379.086 382.183 379.054 381.825 379.076C381.101 379.117 380.4 379.353 379.797 379.761C379.773 379.776 379.753 379.795 379.737 379.818C379.722 379.842 379.711 379.868 379.705 379.895C379.7 379.923 379.7 379.951 379.705 379.979C379.71 380.006 379.721 380.032 379.737 380.055C379.753 380.079 379.773 380.098 379.796 380.114C379.819 380.129 379.845 380.139 379.873 380.144C379.9 380.149 379.928 380.148 379.955 380.141C379.982 380.135 380.007 380.123 380.03 380.107L380.034 380.103L380.047 380.096Z" fill="#0C0C0C"/>
<path d="M374.317 380.898C373.605 380.755 372.868 380.808 372.183 381.051C371.844 381.169 371.525 381.339 371.236 381.553C370.948 381.765 370.688 382.012 370.46 382.289C370.437 382.317 370.426 382.352 370.428 382.388C370.43 382.424 370.446 382.458 370.473 382.483C370.499 382.507 370.534 382.52 370.57 382.519C370.605 382.518 370.639 382.503 370.664 382.477L370.671 382.469C370.89 382.219 371.139 381.998 371.413 381.812C371.683 381.625 371.98 381.48 372.293 381.383C372.915 381.185 373.577 381.158 374.212 381.304L374.228 381.308C374.255 381.315 374.283 381.316 374.31 381.313C374.337 381.309 374.363 381.299 374.387 381.285C374.411 381.271 374.431 381.252 374.448 381.229C374.464 381.207 374.476 381.181 374.482 381.154C374.489 381.127 374.49 381.099 374.486 381.072C374.481 381.044 374.471 381.018 374.457 380.994C374.442 380.97 374.423 380.95 374.4 380.934C374.378 380.918 374.353 380.906 374.326 380.9L374.317 380.898Z" fill="#0C0C0C"/>
<path d="M362.168 385.434C366.384 383.845 367.783 380.896 368.214 378.702C368.493 377.238 368.467 375.732 368.137 374.28L368.007 374.316C368.331 375.75 368.356 377.236 368.08 378.68C367.655 380.838 366.277 383.74 362.121 385.306L362.168 385.434Z" fill="#0C0C0C"/>
<path d="M415.47 405.671L417.994 396.998C418.05 396.807 418.144 396.63 418.27 396.479C418.397 396.327 418.553 396.203 418.73 396.116C418.906 396.029 419.098 395.98 419.294 395.972C419.49 395.964 419.685 395.998 419.868 396.071C420.201 396.216 420.468 396.481 420.619 396.815C420.77 397.149 420.793 397.527 420.683 397.877L420.142 399.737L424.494 394.679C424.968 394.108 425.91 393.715 426.507 394.296C426.751 394.504 426.919 394.79 426.982 395.107C427.045 395.424 427 395.753 426.855 396.041C426.861 396.044 426.867 396.048 426.873 396.053C426.876 396.057 426.88 396.061 426.883 396.066L427.614 395.185C427.749 395.022 427.919 394.892 428.11 394.804C428.302 394.716 428.51 394.672 428.721 394.676C428.931 394.68 429.138 394.731 429.326 394.826C429.514 394.921 429.679 395.058 429.809 395.225C430.008 395.494 430.11 395.823 430.097 396.158C430.085 396.494 429.96 396.815 429.742 397.067L429.431 397.442C429.438 397.456 429.442 397.472 429.442 397.488C429.711 397.284 430.041 397.184 430.376 397.205C430.711 397.226 431.027 397.366 431.268 397.602C431.525 397.867 431.674 398.22 431.685 398.592C431.696 398.963 431.568 399.325 431.327 399.605L430.553 400.536C430.574 400.53 430.595 400.53 430.615 400.534C430.635 400.538 430.654 400.548 430.67 400.561C430.688 400.578 430.701 400.6 430.708 400.625C430.997 400.511 431.314 400.496 431.612 400.583C431.91 400.67 432.171 400.854 432.356 401.106C432.545 401.375 432.639 401.7 432.622 402.029C432.606 402.358 432.48 402.672 432.266 402.92L425.746 410.772C424.834 411.87 423.619 412.667 422.256 413.061C420.894 413.456 419.446 413.429 418.099 412.984C416.938 412.601 415.969 411.774 415.4 410.679C414.831 409.584 414.705 408.308 415.051 407.121L415.47 405.671Z" fill="#E98862"/>
<g opacity="0.2">
<path d="M422.57 401.071C422.596 401.092 422.63 401.102 422.663 401.1C422.697 401.097 422.728 401.081 422.75 401.056L426.882 396.241C426.905 396.214 426.916 396.18 426.914 396.145C426.911 396.11 426.895 396.077 426.869 396.055C426.843 396.032 426.809 396.02 426.774 396.023C426.74 396.025 426.708 396.041 426.685 396.068L422.553 400.882C422.542 400.895 422.534 400.91 422.528 400.927C422.523 400.943 422.521 400.961 422.522 400.978C422.523 400.995 422.528 401.012 422.535 401.028C422.543 401.043 422.554 401.057 422.566 401.068L422.57 401.071Z" fill="#0C0C0C"/>
</g>
<g opacity="0.2">
<path d="M424.616 402.974C424.643 402.996 424.676 403.006 424.71 403.004C424.743 403.001 424.775 402.985 424.797 402.959L429.408 397.586C429.419 397.573 429.427 397.558 429.433 397.541C429.438 397.525 429.44 397.507 429.439 397.49C429.438 397.473 429.433 397.456 429.426 397.44C429.418 397.425 429.407 397.411 429.394 397.4C429.368 397.378 429.334 397.367 429.3 397.37C429.266 397.372 429.234 397.388 429.211 397.413L424.603 402.786C424.592 402.799 424.583 402.814 424.578 402.831C424.572 402.847 424.57 402.865 424.571 402.882C424.573 402.899 424.577 402.916 424.585 402.932C424.592 402.947 424.603 402.961 424.616 402.972L424.616 402.974Z" fill="#0C0C0C"/>
</g>
<g opacity="0.2">
<path d="M426.821 405.05C426.847 405.071 426.881 405.082 426.914 405.079C426.948 405.076 426.979 405.06 427.001 405.035L430.68 400.749C430.7 400.722 430.71 400.689 430.706 400.655C430.703 400.621 430.687 400.59 430.662 400.568C430.637 400.546 430.604 400.534 430.571 400.536C430.537 400.537 430.506 400.551 430.483 400.576L426.804 404.862C426.793 404.875 426.785 404.89 426.779 404.906C426.774 404.923 426.772 404.94 426.773 404.958C426.774 404.975 426.779 404.992 426.786 405.007C426.794 405.023 426.805 405.037 426.817 405.048L426.821 405.05Z" fill="#0C0C0C"/>
</g>
<path d="M430.832 409.458L421.073 454.296C421.051 454.397 421.028 454.502 421.001 454.602C418.809 456.925 416.435 459.064 413.902 460.997C413.392 461.381 412.883 461.76 412.36 462.125C412.037 462.162 411.712 462.18 411.386 462.18C409.647 462.18 407.939 461.716 406.432 460.835C404.926 459.955 403.675 458.688 402.804 457.163L384.206 424.571L401.38 414.524L407.199 424.722L411.463 405.133L430.832 409.458Z" fill="#F78F20"/>
<path d="M400.798 429.9C400.74 430.612 400.623 431.881 400.46 433.552C399.649 442.093 397.751 461.13 396.872 469.927C385.768 473.522 373.852 473.644 362.678 470.278H362.674C354.422 467.777 346.828 463.434 340.452 457.569C340.488 449.703 340.375 440.856 339.852 435.168C338.288 418.172 339.766 415.511 342.196 413.05C342.394 412.849 342.602 412.653 342.809 412.461C345.32 410.152 348.47 408.645 353.064 408.015C356.102 407.6 360.672 407.298 360.672 407.298C360.672 407.298 361.06 415.232 370.287 415.67C382.849 416.269 382.011 407.298 382.074 407.298C385.234 407.298 392.266 407.499 396.701 409.786C396.706 409.786 396.706 409.786 396.71 409.791C397.603 410.231 398.416 410.822 399.113 411.539C404.193 416.99 401.686 419.321 400.798 429.9Z" fill="#F78F20"/>
<path d="M381.085 391.37C379.272 392.303 377.204 392.598 375.207 392.209C375.138 392.195 375.066 392.202 375.001 392.229C374.936 392.255 374.879 392.3 374.838 392.358C374.797 392.415 374.772 392.484 374.768 392.555C374.764 392.626 374.78 392.697 374.814 392.759C375.41 393.822 376.822 395.638 379.244 394.898C380.808 394.42 381.399 392.79 381.619 391.782C381.634 391.712 381.629 391.639 381.605 391.572C381.58 391.505 381.538 391.447 381.482 391.403C381.425 391.36 381.358 391.334 381.288 391.328C381.218 391.322 381.147 391.336 381.085 391.37Z" fill="white"/>
<path d="M381.198 383.205C381.682 383.205 382.074 382.808 382.074 382.318C382.074 381.828 381.682 381.431 381.198 381.431C380.714 381.431 380.322 381.828 380.322 382.318C380.322 382.808 380.714 383.205 381.198 383.205Z" fill="#0C0C0C"/>
<path d="M372.781 384.697C373.264 384.697 373.656 384.3 373.656 383.81C373.656 383.32 373.264 382.923 372.781 382.923C372.297 382.923 371.905 383.32 371.905 383.81C371.905 384.3 372.297 384.697 372.781 384.697Z" fill="#0C0C0C"/>
<path d="M398.861 449.048C398.856 449.048 398.85 449.048 398.844 449.048C398.809 449.043 398.777 449.024 398.755 448.995C398.733 448.966 398.724 448.93 398.729 448.894L400.277 433.094C400.279 433.076 400.285 433.059 400.294 433.043C400.303 433.027 400.315 433.014 400.329 433.003C400.343 432.992 400.359 432.984 400.377 432.98C400.394 432.975 400.412 432.975 400.43 432.977C400.465 432.982 400.498 433.001 400.519 433.03C400.541 433.059 400.55 433.096 400.545 433.132L398.997 448.931C398.992 448.964 398.976 448.994 398.951 449.015C398.926 449.037 398.894 449.048 398.861 449.048Z" fill="#0C0C0C"/>
<path d="M389.489 448.288L397.952 444.46C398.138 444.376 398.339 444.333 398.543 444.332C398.746 444.331 398.947 444.373 399.134 444.455C399.32 444.537 399.488 444.658 399.626 444.809C399.764 444.961 399.869 445.139 399.936 445.334C400.047 445.698 400.021 446.09 399.863 446.436C399.705 446.781 399.425 447.055 399.079 447.204L397.265 448.025L404.141 448.097C404.907 448.091 405.848 448.58 405.797 449.449C405.799 449.785 405.689 450.111 405.485 450.376C405.28 450.64 404.993 450.826 404.67 450.904C404.672 450.911 404.673 450.918 404.674 450.925C404.673 450.931 404.672 450.937 404.67 450.942L405.85 450.934C406.068 450.933 406.283 450.98 406.481 451.074C406.679 451.168 406.853 451.305 406.992 451.475C407.131 451.646 407.23 451.846 407.283 452.06C407.336 452.274 407.341 452.498 407.298 452.714C407.222 453.054 407.034 453.358 406.764 453.574C406.494 453.79 406.16 453.905 405.816 453.901L405.314 453.905C405.307 453.92 405.298 453.933 405.287 453.945C405.627 454.022 405.928 454.219 406.137 454.501C406.347 454.782 406.45 455.13 406.43 455.482C406.396 455.866 406.22 456.223 405.938 456.482C405.655 456.741 405.287 456.883 404.906 456.879L403.66 456.887C403.678 456.9 403.692 456.916 403.702 456.936C403.712 456.955 403.718 456.977 403.718 456.998C403.717 457.024 403.709 457.049 403.694 457.07C403.978 457.225 404.204 457.469 404.337 457.766C404.471 458.063 404.504 458.396 404.432 458.714C404.35 459.046 404.16 459.34 403.892 459.549C403.625 459.758 403.295 459.87 402.958 459.866L392.442 459.941C390.971 459.952 389.53 459.517 388.304 458.693C387.079 457.869 386.124 456.693 385.563 455.316C385.078 454.129 385.07 452.797 385.54 451.603C386.01 450.41 386.921 449.449 388.08 448.925L389.489 448.288Z" fill="#E98862"/>
<g opacity="0.2">
<path d="M397.864 450.866C397.864 450.902 397.878 450.937 397.903 450.962C397.929 450.988 397.963 451.003 397.999 451.003L404.539 451.062C404.574 451.063 404.609 451.048 404.634 451.023C404.66 450.998 404.675 450.963 404.675 450.927C404.675 450.89 404.661 450.855 404.636 450.83C404.611 450.804 404.577 450.789 404.541 450.789L398 450.729C397.964 450.729 397.93 450.743 397.905 450.769C397.879 450.795 397.865 450.829 397.865 450.866H397.864Z" fill="#0C0C0C"/>
</g>
<g opacity="0.2">
<path d="M397.758 453.787C397.758 453.824 397.772 453.858 397.797 453.884C397.823 453.91 397.857 453.924 397.893 453.924L405.191 453.991C405.227 453.991 405.261 453.976 405.286 453.95C405.312 453.925 405.326 453.89 405.326 453.854C405.325 453.818 405.31 453.784 405.285 453.758C405.26 453.733 405.226 453.718 405.191 453.717L397.893 453.651C397.857 453.651 397.822 453.665 397.797 453.691C397.772 453.716 397.758 453.751 397.758 453.787Z" fill="#0C0C0C"/>
</g>
<g opacity="0.2">
<path d="M397.625 456.948C397.625 456.984 397.639 457.019 397.665 457.044C397.69 457.07 397.724 457.084 397.76 457.084L403.582 457.138C403.618 457.138 403.652 457.123 403.677 457.098C403.703 457.072 403.717 457.037 403.717 457.001C403.717 456.965 403.703 456.93 403.677 456.904C403.652 456.879 403.618 456.864 403.582 456.864L397.76 456.811C397.724 456.811 397.69 456.826 397.665 456.851C397.639 456.877 397.625 456.912 397.625 456.948V456.948Z" fill="#0C0C0C"/>
</g>
<path d="M391.914 463.549L362.678 470.278H362.674C354.422 467.777 346.829 463.434 340.452 457.569C339.767 456.939 339.097 456.294 338.442 455.633C337.3 454.479 336.207 453.278 335.165 452.032L339.257 418.688C339.704 416.001 341.186 413.602 343.379 412.022C345.571 410.441 348.294 409.807 350.948 410.259C353.602 410.711 355.969 412.213 357.53 414.433C359.091 416.653 359.717 419.411 359.271 422.098L356.683 453.406L389.282 445.932L391.914 463.549Z" fill="#F78F20"/>
<path d="M350.089 454.636C350.071 454.637 350.053 454.635 350.037 454.629C350.02 454.624 350.004 454.615 349.991 454.603C349.977 454.591 349.966 454.577 349.958 454.561C349.95 454.545 349.945 454.527 349.944 454.509C349.942 454.491 349.945 454.473 349.95 454.456C349.956 454.439 349.965 454.423 349.976 454.409C349.988 454.396 350.002 454.384 350.018 454.376C350.034 454.368 350.051 454.363 350.069 454.362L356.605 452.947C356.622 452.944 356.64 452.945 356.658 452.949C356.675 452.953 356.691 452.961 356.705 452.972C356.72 452.983 356.732 452.996 356.741 453.011C356.75 453.027 356.756 453.044 356.759 453.062C356.762 453.08 356.761 453.098 356.756 453.115C356.752 453.133 356.744 453.149 356.734 453.164C356.723 453.178 356.71 453.19 356.695 453.2C356.679 453.209 356.662 453.215 356.645 453.217L350.107 454.633C350.101 454.634 350.095 454.635 350.089 454.636Z" fill="#0C0C0C"/>
<path d="M391.915 463.55C391.922 463.585 391.916 463.621 391.897 463.652C391.879 463.682 391.85 463.705 391.816 463.714L363.414 470.493C363.233 470.442 363.057 470.393 362.882 470.337L391.617 463.486L389.057 446.138L356.652 453.218C356.631 453.222 356.61 453.22 356.59 453.214C356.569 453.208 356.551 453.197 356.535 453.182C356.522 453.166 356.512 453.147 356.505 453.127C356.499 453.106 356.497 453.085 356.499 453.064L358.316 435.173C358.319 435.155 358.325 435.138 358.335 435.123C358.345 435.108 358.357 435.095 358.372 435.085C358.387 435.075 358.403 435.067 358.42 435.064C358.438 435.06 358.456 435.06 358.473 435.063C358.509 435.069 358.54 435.088 358.561 435.117C358.582 435.146 358.591 435.183 358.586 435.219L356.797 452.927L389.116 445.832C389.133 445.827 389.151 445.827 389.169 445.83C389.187 445.833 389.204 445.84 389.219 445.851C389.235 445.859 389.248 445.871 389.259 445.885C389.27 445.899 389.278 445.915 389.282 445.932L391.915 463.55Z" fill="#0C0C0C"/>
<path d="M172.126 540.102C201.37 540.102 225.077 516.092 225.077 486.474C225.077 456.856 201.37 432.846 172.126 432.846C142.881 432.846 119.174 456.856 119.174 486.474C119.174 516.092 142.881 540.102 172.126 540.102Z" fill="white"/>
<path opacity="0.09" d="M172.126 540.102C201.37 540.102 225.077 516.092 225.077 486.474C225.077 456.856 201.37 432.846 172.126 432.846C142.881 432.846 119.174 456.856 119.174 486.474C119.174 516.092 142.881 540.102 172.126 540.102Z" fill="#367CFF"/>
<path d="M157.544 456.058C157.544 456.058 158.118 472.209 168.762 472.952L170.565 451.653L157.544 456.058Z" fill="#0A0A0A"/>
<path d="M159.594 476.25C163.077 476.25 165.9 473.391 165.9 469.863C165.9 466.336 163.077 463.477 159.594 463.477C156.111 463.477 153.288 466.336 153.288 469.863C153.288 473.391 156.111 476.25 159.594 476.25Z" fill="#0A0A0A"/>
<path d="M184.267 480.448C184.211 480.44 183.588 490.913 171.575 490C163.258 489.371 160.293 480.434 160.103 480.434C161.053 480.274 161.99 480.044 162.908 479.745C164.217 479.033 165.837 478.291 166.259 475.716C166.503 474.231 166.09 466.636 166.217 465.134L178.983 468.02C178.803 471.192 177.556 478.546 181.932 479.848C182.66 480.063 183.444 480.261 184.267 480.448Z" fill="#F8B499"/>
<path opacity="0.5" d="M179.162 476.841C178.962 476.187 178.833 475.514 178.778 474.832C178.637 473.278 178.665 471.713 178.861 470.165C176.266 469.81 173.822 468.726 171.805 467.034C171.568 467.921 170.265 471.795 170.626 472.637C171.308 474.233 174.514 476.841 179.162 476.841Z" fill="#0C0C0C"/>
<path d="M177.162 474.019C172.106 474.085 165.785 471.501 165.001 464.622L164.295 458.414C163.511 451.535 166.443 445.54 172.838 444.794C179.233 444.048 184.648 449.065 185.432 455.944L185.745 458.692C186.045 461.333 186.183 473.903 177.162 474.019Z" fill="#F8B499"/>
<path d="M183.912 458.508C184.35 458.508 184.705 458.148 184.705 457.705C184.705 457.261 184.35 456.902 183.912 456.902C183.474 456.902 183.119 457.261 183.119 457.705C183.119 458.148 183.474 458.508 183.912 458.508Z" fill="#0C0C0C"/>
<path d="M175.807 459.446C176.245 459.446 176.6 459.087 176.6 458.643C176.6 458.2 176.245 457.84 175.807 457.84C175.369 457.84 175.014 458.2 175.014 458.643C175.014 459.087 175.369 459.446 175.807 459.446Z" fill="#0C0C0C"/>
<path opacity="0.5" d="M179.83 464.756H179.842C180.102 464.724 180.359 464.677 180.613 464.617C180.992 464.523 181.493 464.359 181.453 464.014C181.408 463.623 179.867 459.517 179.691 459.051C179.684 459.031 179.672 459.012 179.658 458.997C179.643 458.981 179.626 458.968 179.606 458.959C179.587 458.951 179.566 458.946 179.544 458.945C179.523 458.945 179.502 458.948 179.482 458.956C179.462 458.964 179.444 458.975 179.428 458.99C179.413 459.005 179.4 459.023 179.392 459.042C179.383 459.062 179.378 459.083 179.378 459.105C179.377 459.126 179.381 459.148 179.388 459.168C180.046 460.916 181.101 463.788 181.131 464.053C180.725 464.284 180.27 464.413 179.805 464.43C179.762 464.433 179.722 464.454 179.694 464.487C179.666 464.52 179.652 464.563 179.656 464.606C179.659 464.65 179.679 464.69 179.712 464.719C179.744 464.747 179.787 464.761 179.83 464.758V464.756Z" fill="#0C0C0C"/>
<path opacity="0.5" d="M178.686 467.618C179.725 467.558 180.735 467.252 181.635 466.725C181.671 466.702 181.696 466.667 181.707 466.626C181.717 466.586 181.712 466.542 181.692 466.505C181.672 466.468 181.638 466.44 181.598 466.428C181.559 466.415 181.516 466.418 181.478 466.437C179.533 467.526 177.674 467.589 176.101 466.619C176.069 466.599 176.036 466.58 176.002 466.563C175.963 466.547 175.92 466.548 175.881 466.564C175.843 466.58 175.812 466.611 175.795 466.649C175.778 466.688 175.776 466.732 175.79 466.772C175.804 466.812 175.833 466.844 175.87 466.863C175.882 466.87 175.903 466.883 175.932 466.9C176.759 467.412 177.718 467.662 178.686 467.618Z" fill="#0C0C0C"/>
<path d="M159.096 460.178L164.826 459.542C169.234 458.101 171.065 450.686 171.065 450.686C171.065 450.686 175.015 455.235 186.72 453.158C186.72 453.158 186.267 437.875 168.465 440.027C162.267 440.777 157.593 447.072 157.544 455.303C157.511 461.071 159.096 460.178 159.096 460.178Z" fill="#0A0A0A"/>
<path d="M165.638 466.672C163.694 466.9 161.879 464.977 161.655 463.009C161.431 461.04 162.882 459.771 164.826 459.544L165.977 460.746L167.308 466.476L165.638 466.672Z" fill="#F8B499"/>
<path d="M181.108 455.701C181.681 455.379 182.329 455.22 182.984 455.239C183.307 455.246 183.628 455.302 183.935 455.406C184.239 455.508 184.53 455.648 184.801 455.823C184.828 455.84 184.847 455.868 184.855 455.899C184.862 455.931 184.858 455.964 184.842 455.992C184.826 456.02 184.8 456.041 184.769 456.05C184.738 456.059 184.705 456.056 184.677 456.041L184.669 456.037C184.413 455.883 184.138 455.762 183.853 455.677C183.57 455.592 183.275 455.55 182.98 455.554C182.392 455.557 181.816 455.717 181.309 456.019L181.297 456.027C181.276 456.041 181.252 456.05 181.228 456.055C181.203 456.059 181.178 456.059 181.153 456.053C181.129 456.047 181.106 456.037 181.086 456.022C181.065 456.007 181.048 455.989 181.035 455.967C181.022 455.945 181.013 455.921 181.01 455.896C181.006 455.871 181.008 455.845 181.014 455.821C181.02 455.796 181.031 455.773 181.047 455.753C181.062 455.733 181.081 455.716 181.103 455.704L181.108 455.701Z" fill="#0C0C0C"/>
<path d="M175.972 456.657C175.412 456.477 174.814 456.451 174.241 456.582C173.952 456.646 173.674 456.753 173.417 456.901C173.158 457.048 172.917 457.228 172.702 457.435L172.695 457.442C172.67 457.46 172.64 457.469 172.61 457.466C172.579 457.463 172.551 457.449 172.53 457.427C172.509 457.404 172.497 457.375 172.496 457.344C172.496 457.313 172.506 457.283 172.526 457.259C172.75 457.027 173.003 456.825 173.278 456.657C173.554 456.487 173.854 456.36 174.167 456.279C174.802 456.113 175.468 456.122 176.098 456.305C176.122 456.312 176.145 456.323 176.165 456.338C176.185 456.354 176.202 456.373 176.214 456.395C176.226 456.417 176.234 456.442 176.237 456.467C176.24 456.492 176.238 456.518 176.231 456.542C176.223 456.567 176.211 456.589 176.195 456.609C176.179 456.628 176.16 456.644 176.137 456.656C176.115 456.668 176.091 456.675 176.066 456.677C176.041 456.678 176.015 456.675 175.992 456.667H175.987L175.972 456.657Z" fill="#0C0C0C"/>
<path opacity="0.52" d="M178.795 469.174C178.983 469.166 179.17 469.142 179.354 469.102C179.395 469.092 179.43 469.066 179.452 469.03C179.475 468.994 179.482 468.95 179.474 468.908C179.465 468.867 179.441 468.83 179.406 468.806C179.371 468.782 179.328 468.773 179.286 468.78C178.999 468.865 178.697 468.887 178.401 468.845C178.105 468.802 177.821 468.696 177.568 468.533C177.535 468.506 177.492 468.493 177.449 468.497C177.406 468.501 177.367 468.523 177.34 468.556C177.312 468.59 177.299 468.634 177.304 468.677C177.308 468.72 177.329 468.76 177.363 468.788C177.782 469.08 178.288 469.217 178.795 469.174Z" fill="#0C0C0C"/>
<path opacity="0.1" d="M174.71 464.884C175.543 464.854 176.202 464.328 176.18 463.709C176.159 463.089 175.466 462.611 174.632 462.641C173.798 462.67 173.14 463.197 173.161 463.816C173.183 464.435 173.876 464.913 174.71 464.884Z" fill="#0C0C0C"/>
<path opacity="0.1" d="M183.632 463.174C183.655 463.793 184.348 464.27 185.182 464.242C185.326 464.237 185.469 464.216 185.609 464.181C185.708 463.454 185.768 462.752 185.801 462.1C185.577 462.023 185.34 461.989 185.103 461.999C184.271 462.027 183.613 462.552 183.632 463.174Z" fill="#0C0C0C"/>
<path d="M202.209 491.478C202.173 495.135 200.934 499.495 200.492 504.763C200.375 506.169 197.395 510.236 196.962 514.76C196.417 520.521 197.63 529.505 197.792 533.39C189.416 538.084 179.941 540.393 170.374 540.072C160.807 539.75 151.504 536.81 143.454 531.564C143.237 521.585 142.98 509.264 142.651 506.31C141.583 496.559 141.871 490.392 143.413 487.507C145.933 482.796 150.418 481.358 155.11 480.709C157.977 480.317 162.282 480.038 162.282 480.038C162.282 480.038 162.647 487.511 171.346 487.927C183.187 488.493 182.399 480.038 182.457 480.038C186.753 480.038 194.893 481.079 198.013 483.234C201.321 485.512 202.25 488.214 202.209 491.478Z" fill="#D7D2C4"/>
<path d="M161.299 497.166L145.234 532.672C139.066 528.984 133.7 524.069 129.458 518.223L142.859 488.605L161.299 497.166Z" fill="#D7D2C4"/>
<path d="M215.187 517.686C212.04 522.133 208.241 526.068 203.923 529.355C202.501 530.441 201.025 531.453 199.501 532.386L183.012 495.673L201.475 487.164L215.187 517.686Z" fill="#D7D2C4"/>
<path d="M282.327 330.036C312.775 330.036 337.458 305.038 337.458 274.201C337.458 243.364 312.775 218.366 282.327 218.366C251.879 218.366 227.196 243.364 227.196 274.201C227.196 305.038 251.879 330.036 282.327 330.036Z" fill="white"/>
<path opacity="0.09" d="M282.327 330.036C312.775 330.036 337.458 305.038 337.458 274.201C337.458 243.364 312.775 218.366 282.327 218.366C251.879 218.366 227.196 243.364 227.196 274.201C227.196 305.038 251.879 330.036 282.327 330.036Z" fill="#367CFF"/>
<path d="M292.987 240.766C292.987 240.766 296.478 236.934 296.208 229.635C295.999 223.984 291.62 228.473 291.62 228.473C291.62 228.473 291.43 224.405 288.645 225.323C285.859 226.24 285.003 230.707 285.003 230.707" fill="#0C0C0C"/>
<path d="M273.958 228.496C273.958 228.496 260.054 232.634 268.657 251.153L269.927 251.008L272.504 250.714" fill="#0C0C0C"/>
<path d="M293.661 270.362C293.598 270.354 292.894 282.168 279.343 281.136C269.962 280.424 266.617 270.344 266.402 270.344C267.414 270.126 268.664 269.796 269.16 269.683C270.243 269.428 271.224 268.846 271.972 268.013C272.72 267.18 273.2 266.137 273.348 265.021C273.622 263.347 273.156 254.78 273.3 253.086L287.699 256.341C287.498 259.919 286.09 268.214 291.026 269.683C291.848 269.926 292.733 270.15 293.661 270.362Z" fill="#C27557"/>
<path opacity="0.52" d="M287.902 266.293C287.677 265.557 287.531 264.798 287.469 264.029C287.311 262.276 287.342 260.511 287.563 258.765C284.636 258.365 281.879 257.141 279.604 255.233C279.337 256.234 277.866 260.604 278.273 261.554C279.043 263.351 282.66 266.293 287.902 266.293Z" fill="#0C0C0C"/>
<path d="M285.551 262.531C279.872 263.049 272.54 260.698 271.07 253.03L269.744 246.112C268.274 238.443 271.059 231.447 278.187 230.045C285.315 228.643 291.835 233.811 293.305 241.479L293.891 244.542C294.075 245.597 294.187 246.663 294.227 247.734C294.354 250.564 294.537 254.866 293.194 258.046C291.926 261.049 289.181 262.201 285.551 262.531Z" fill="#C27557"/>
<path opacity="0.5" d="M286.41 254.95C287.45 254.93 288.471 254.663 289.391 254.171C289.411 254.162 289.428 254.149 289.443 254.132C289.458 254.116 289.47 254.097 289.477 254.076C289.484 254.055 289.487 254.033 289.486 254.01C289.484 253.988 289.479 253.967 289.469 253.947C289.459 253.927 289.445 253.909 289.428 253.895C289.411 253.881 289.392 253.87 289.371 253.864C289.35 253.857 289.328 253.855 289.306 253.857C289.284 253.86 289.263 253.866 289.244 253.877C287.261 254.89 285.4 254.881 283.864 253.853C283.833 253.831 283.801 253.811 283.768 253.792C283.749 253.783 283.728 253.777 283.707 253.776C283.685 253.774 283.664 253.777 283.644 253.784C283.624 253.791 283.605 253.802 283.589 253.816C283.573 253.831 283.56 253.848 283.55 253.867C283.541 253.887 283.535 253.908 283.534 253.929C283.533 253.951 283.536 253.973 283.542 253.993C283.549 254.013 283.56 254.032 283.574 254.049C283.588 254.065 283.605 254.078 283.624 254.088C283.637 254.094 283.656 254.108 283.684 254.127C284.492 254.67 285.441 254.956 286.41 254.95Z" fill="#0C0C0C"/>
<path opacity="0.52" d="M286.46 256.511C286.648 256.511 286.836 256.494 287.021 256.461C287.042 256.457 287.062 256.449 287.08 256.438C287.098 256.427 287.114 256.412 287.126 256.394C287.139 256.376 287.147 256.356 287.152 256.335C287.157 256.314 287.157 256.293 287.154 256.271C287.15 256.25 287.143 256.23 287.131 256.211C287.12 256.193 287.105 256.177 287.088 256.165C287.07 256.152 287.051 256.143 287.03 256.139C287.009 256.134 286.988 256.133 286.967 256.137C286.676 256.21 286.374 256.221 286.079 256.167C285.785 256.113 285.505 255.996 285.259 255.824C285.226 255.796 285.184 255.782 285.142 255.785C285.1 255.788 285.06 255.808 285.032 255.84C285.004 255.873 284.99 255.915 284.992 255.958C284.994 256.001 285.013 256.041 285.044 256.07C285.452 256.379 285.952 256.534 286.46 256.511Z" fill="#0C0C0C"/>
<path d="M291.598 246.474C292.092 246.474 292.492 246.069 292.492 245.568C292.492 245.068 292.092 244.663 291.598 244.663C291.104 244.663 290.704 245.068 290.704 245.568C290.704 246.069 291.104 246.474 291.598 246.474Z" fill="#0C0C0C"/>
<path d="M282.903 247.504C283.397 247.504 283.797 247.098 283.797 246.598C283.797 246.098 283.397 245.692 282.903 245.692C282.409 245.692 282.009 246.098 282.009 246.598C282.009 247.098 282.409 247.504 282.903 247.504Z" fill="#0C0C0C"/>
<path d="M271.962 255.28C269.795 255.706 267.589 253.704 267.168 251.51C266.747 249.316 268.272 247.761 270.438 247.335L271.835 248.585L273.823 254.913L271.962 255.28Z" fill="#C27557"/>
<path d="M273.49 251.35C273.49 251.35 272.28 240.342 275.415 239.073C277.504 238.228 283.319 240.379 288.022 238.546C290.079 237.744 292.197 237.907 292.585 238.889C292.739 239.277 293.03 233.234 288.906 229.443C285.623 226.426 276.752 227.03 273.002 228.904C262.618 234.094 270.076 247.895 270.076 247.895L271.234 251.554L273.49 251.35Z" fill="#0C0C0C"/>
<g opacity="0.52">
<path d="M287.744 252.225H287.758C288.456 252.089 289.613 251.784 289.516 251.255C289.432 250.816 287.352 246.313 287.116 245.801C287.106 245.78 287.091 245.76 287.074 245.744C287.056 245.728 287.036 245.715 287.013 245.707C286.991 245.699 286.967 245.695 286.944 245.696C286.92 245.697 286.897 245.703 286.875 245.713C286.854 245.724 286.834 245.738 286.818 245.756C286.802 245.774 286.79 245.794 286.782 245.817C286.774 245.84 286.77 245.864 286.771 245.888C286.772 245.912 286.778 245.935 286.788 245.957C287.71 247.951 289.103 251.024 289.16 251.323C289.115 251.46 288.415 251.725 287.692 251.865C287.645 251.872 287.601 251.898 287.573 251.938C287.544 251.977 287.532 252.026 287.539 252.075C287.546 252.123 287.572 252.167 287.611 252.196C287.649 252.225 287.698 252.237 287.746 252.23L287.744 252.225Z" fill="#0C0C0C"/>
</g>
<path d="M288.237 241.191C288.936 240.852 289.712 240.71 290.485 240.781C290.863 240.813 291.235 240.902 291.588 241.046C291.936 241.186 292.265 241.37 292.567 241.594C292.624 241.633 292.663 241.693 292.676 241.76C292.689 241.828 292.676 241.899 292.64 241.957C292.603 242.015 292.545 242.057 292.479 242.073C292.412 242.089 292.342 242.078 292.283 242.043L292.263 242.036C291.989 241.858 291.693 241.717 291.384 241.614C291.08 241.511 290.762 241.455 290.442 241.449C289.81 241.431 289.184 241.583 288.629 241.888L288.606 241.901C288.561 241.928 288.511 241.944 288.459 241.951C288.407 241.958 288.355 241.954 288.305 241.94C288.255 241.926 288.208 241.902 288.167 241.87C288.125 241.838 288.091 241.798 288.065 241.752C288.039 241.706 288.023 241.656 288.016 241.604C288.01 241.551 288.013 241.498 288.027 241.448C288.041 241.397 288.064 241.349 288.096 241.308C288.128 241.266 288.168 241.231 288.213 241.205L288.237 241.191Z" fill="#0C0C0C"/>
<path d="M283.11 242.595C282.501 242.422 281.858 242.416 281.246 242.575C280.935 242.654 280.637 242.779 280.363 242.948C280.084 243.118 279.826 243.323 279.597 243.558L279.582 243.572C279.533 243.621 279.467 243.648 279.398 243.647C279.329 243.647 279.263 243.62 279.214 243.571C279.165 243.522 279.137 243.456 279.135 243.386C279.134 243.317 279.159 243.249 279.206 243.198C279.451 242.912 279.732 242.657 280.04 242.442C280.353 242.222 280.695 242.051 281.058 241.934C281.42 241.813 281.796 241.743 282.177 241.726C282.567 241.704 282.958 241.738 283.339 241.828C283.441 241.852 283.53 241.917 283.585 242.007C283.641 242.097 283.659 242.206 283.635 242.31C283.611 242.414 283.547 242.503 283.458 242.56C283.369 242.616 283.261 242.634 283.159 242.609L283.135 242.603L283.11 242.595Z" fill="#0C0C0C"/>
<path d="M285.852 233.898C287.399 233.263 287.904 230.88 286.982 228.575C286.06 226.27 284.058 224.915 282.512 225.55C280.966 226.185 280.46 228.568 281.383 230.873C282.305 233.178 284.306 234.532 285.852 233.898Z" fill="#0C0C0C"/>
<path d="M312.389 282.569C312.444 286.354 310.983 290.608 310.496 296.37C310.397 297.538 310.163 300.113 309.852 303.468C309.342 309.024 308.621 316.707 307.99 323.632C298.966 328.43 288.806 330.603 278.637 329.912C268.467 329.22 258.686 325.691 250.375 319.715C250.177 319.565 249.978 319.419 249.78 319.277C249.253 311.448 248.631 303.231 248.063 298.04C246.994 288.349 245.538 283.523 246.354 280.264C246.42 279.986 246.507 279.715 246.616 279.451C248.964 273.681 256.442 271.106 261.509 270.413C264.601 269.988 269.252 269.682 269.252 269.682C269.252 269.682 269.645 277.753 279.034 278.201C291.817 278.812 290.965 269.682 291.028 269.682C293.097 269.682 304.371 271.207 307.188 273.069C307.66 273.38 308.112 273.722 308.54 274.092C309.764 275.126 310.745 276.423 311.411 277.89C312.077 279.357 312.411 280.955 312.389 282.569Z" fill="#F6CE3E"/>
<path d="M265.322 288.422L250.375 319.715C250.177 319.565 249.978 319.419 249.78 319.277C243.986 314.974 239.072 309.573 235.311 303.372L246.354 280.264L246.791 279.346L265.322 288.422Z" fill="#F6CE3E"/>
<path d="M263.88 292.024L250.285 319.647C250.195 319.579 250.109 319.515 250.019 319.455L263.596 291.882C263.615 291.844 263.649 291.815 263.689 291.801C263.73 291.787 263.774 291.79 263.812 291.809C263.849 291.828 263.877 291.862 263.89 291.902C263.902 291.942 263.899 291.986 263.88 292.024Z" fill="white"/>
<path d="M332.808 296.681C330.099 302.9 326.294 308.568 321.58 313.407L309.851 303.469L294.954 290.842L308.54 274.093L308.58 274.042L332.808 296.681Z" fill="#F6CE3E"/>
<path d="M310.032 303.59C310.07 303.589 310.107 303.573 310.134 303.546C310.162 303.519 310.179 303.483 310.182 303.444L310.956 294.254C310.96 294.212 310.946 294.17 310.919 294.137C310.892 294.105 310.854 294.084 310.812 294.081C310.77 294.077 310.729 294.091 310.697 294.118C310.665 294.146 310.645 294.184 310.64 294.227L309.867 303.417C309.863 303.459 309.876 303.501 309.903 303.533C309.93 303.566 309.969 303.586 310.011 303.59L310.032 303.59Z" fill="white"/>
<path d="M541.924 571.817C570.965 571.817 594.507 547.974 594.507 518.562C594.507 489.151 570.965 465.307 541.924 465.307C512.883 465.307 489.34 489.151 489.34 518.562C489.34 547.974 512.883 571.817 541.924 571.817Z" fill="white"/>
<path opacity="0.09" d="M489.34 518.561C489.34 529.094 492.424 539.39 498.202 548.148C503.98 556.906 512.192 563.731 521.8 567.762C531.408 571.793 541.981 572.847 552.181 570.793C562.381 568.738 571.75 563.666 579.104 556.218C586.458 548.771 591.466 539.282 593.495 528.951C595.524 518.621 594.483 507.913 590.503 498.183C586.523 488.452 579.783 480.134 571.136 474.283C562.489 468.431 552.323 465.308 541.923 465.308C535.01 465.282 528.161 466.642 521.77 469.309C515.379 471.976 509.573 475.898 504.685 480.848C499.797 485.798 495.925 491.679 493.291 498.152C490.658 504.624 489.315 511.561 489.34 518.561Z" fill="#367CFF"/>
<path d="M565.785 489.176C564.945 499.036 565.723 502.38 569.766 508.03C573.176 512.793 553.774 508.744 545.19 507.195L552.765 484.773C552.765 484.773 566.079 485.713 565.785 489.176Z" fill="#BE7643"/>
<path d="M536.169 485.073C533.636 494.631 533.92 497.589 528.964 502.608C524.856 506.769 540.866 507.615 549.457 509.127L549.891 485.434C549.891 485.434 537.059 481.716 536.169 485.073Z" fill="#BE7643"/>
<path d="M537.022 512.875C537.078 512.867 537.707 523.438 549.833 522.516C558.227 521.88 561.22 512.859 561.413 512.859C560.454 512.698 559.507 512.466 558.582 512.164C557.26 511.445 555.624 510.696 555.198 508.097C554.953 506.598 555.369 498.932 555.241 497.414L542.355 500.327C542.536 503.529 543.798 510.952 539.381 512.266C538.644 512.485 537.852 512.685 537.022 512.875Z" fill="#F4C6B4"/>
<path opacity="0.5" d="M542.175 509.234C542.376 508.576 542.506 507.896 542.562 507.209C542.704 505.64 542.676 504.061 542.478 502.498C545.097 502.14 547.565 501.045 549.6 499.338C549.84 500.233 551.155 504.143 550.791 504.994C550.102 506.602 546.866 509.234 542.175 509.234Z" fill="#0C0C0C"/>
<path d="M543.841 505.941C548.922 506.438 555.495 504.38 556.856 497.529L558.085 491.346C559.447 484.494 556.997 478.216 550.627 476.917C544.257 475.619 538.392 480.204 537.031 487.054L536.487 489.794C535.964 492.421 534.777 505.053 543.841 505.941Z" fill="#F4C6B4"/>
<path d="M564.233 493.298L558.502 492.662C547.289 490.574 544.543 481.411 544.543 481.411C544.543 481.411 539.84 487.77 535.846 486.31C535.846 486.31 537.133 470.975 554.862 473.67C561.828 474.729 565.784 480.577 565.784 488.422C565.784 494.189 564.233 493.298 564.233 493.298Z" fill="#BE7643"/>
<path opacity="0.1" d="M548.714 496.018C548.787 495.397 548.168 494.811 547.332 494.71C546.496 494.609 545.759 495.031 545.686 495.652C545.613 496.273 546.231 496.859 547.067 496.96C547.903 497.061 548.64 496.639 548.714 496.018Z" fill="#0C0C0C"/>
<path opacity="0.1" d="M538.239 494.479C538.164 495.099 537.427 495.521 536.591 495.421C536.446 495.403 536.304 495.37 536.166 495.323C536.127 494.583 536.125 493.872 536.146 493.213C536.378 493.155 536.619 493.141 536.857 493.171C537.69 493.271 538.309 493.857 538.239 494.479Z" fill="#0C0C0C"/>
<path opacity="0.5" d="M541.931 496.396H541.918C541.66 496.342 541.405 496.273 541.155 496.19C540.781 496.063 540.291 495.855 540.359 495.512C540.437 495.122 542.33 491.125 542.546 490.671C542.554 490.65 542.567 490.632 542.583 490.617C542.599 490.602 542.618 490.59 542.639 490.582C542.659 490.575 542.681 490.571 542.703 490.572C542.725 490.573 542.747 490.579 542.766 490.589C542.786 490.598 542.804 490.612 542.818 490.628C542.833 490.645 542.844 490.664 542.851 490.685C542.858 490.707 542.861 490.729 542.859 490.751C542.857 490.773 542.851 490.795 542.841 490.814C542.034 492.516 540.733 495.315 540.681 495.578C541.07 495.845 541.516 496.014 541.983 496.071C542.024 496.079 542.06 496.104 542.084 496.139C542.108 496.174 542.118 496.217 542.111 496.26C542.104 496.302 542.082 496.34 542.048 496.366C542.015 496.391 541.973 496.403 541.931 496.398V496.396Z" fill="#0C0C0C"/>
<path d="M556.046 499.535C557.982 499.93 559.968 498.153 560.357 496.192C560.747 494.231 559.393 492.83 557.457 492.436L556.198 493.546L554.382 499.196L556.046 499.535Z" fill="#F4C6B4"/>
<path d="M541.173 487.481C540.934 487.309 540.673 487.171 540.398 487.07C540.119 486.964 539.827 486.898 539.531 486.873C539.234 486.844 538.935 486.861 538.643 486.922C538.348 486.983 538.063 487.081 537.793 487.214L537.784 487.218C537.755 487.228 537.723 487.227 537.694 487.215C537.665 487.203 537.642 487.181 537.629 487.152C537.615 487.124 537.613 487.092 537.622 487.061C537.631 487.031 537.651 487.006 537.677 486.989C537.964 486.836 538.268 486.72 538.583 486.644C538.9 486.566 539.227 486.537 539.553 486.557C540.213 486.594 540.852 486.81 541.401 487.182C541.441 487.211 541.468 487.255 541.477 487.304C541.485 487.352 541.475 487.403 541.447 487.444C541.419 487.485 541.377 487.514 541.329 487.524C541.281 487.534 541.231 487.524 541.19 487.497L541.185 487.494L541.173 487.481Z" fill="#0C0C0C"/>
<path d="M546.389 488.211C547.037 488.081 547.708 488.129 548.332 488.351C548.641 488.458 548.932 488.612 549.196 488.807C549.458 488.999 549.695 489.224 549.902 489.477C549.925 489.502 549.936 489.535 549.935 489.568C549.933 489.602 549.919 489.634 549.894 489.656C549.87 489.679 549.837 489.691 549.804 489.689C549.771 489.688 549.739 489.673 549.717 489.648L549.71 489.641C549.511 489.414 549.283 489.212 549.034 489.042C548.788 488.872 548.517 488.74 548.232 488.652C547.666 488.472 547.063 488.447 546.485 488.58L546.471 488.583C546.422 488.596 546.371 488.588 546.328 488.561C546.285 488.535 546.254 488.493 546.243 488.444C546.231 488.395 546.238 488.343 546.264 488.299C546.29 488.256 546.332 488.225 546.38 488.213L546.389 488.211Z" fill="#0C0C0C"/>
<path d="M517.492 565.728C515.425 564.815 513.879 563.838 510.349 561.145C507.802 559.209 505.435 557.041 503.277 554.669L521.402 519.739L522.19 518.222L538.538 526.926L524.357 554.257L524.292 554.378L524.415 554.864" fill="#B7DCE1"/>
<path d="M577.77 537.629C577.294 542.809 577.191 550.864 577.224 558.027C570.39 564.305 562.044 568.65 553.026 570.625C544.008 572.6 534.635 572.136 525.85 569.279C524.775 558.478 523.176 542.606 522.275 532.832C521.362 522.709 518.676 519.365 526.006 514.517C530.044 512.435 536.447 512.252 539.325 512.252C538.348 521.848 558.316 523.029 558.812 512.252C573.747 513.666 580.661 514.018 577.77 537.629Z" fill="#B7DCE1"/>
<path d="M540.228 497.746C541.878 498.596 543.762 498.865 545.58 498.51C545.643 498.498 545.708 498.504 545.768 498.528C545.827 498.552 545.879 498.593 545.916 498.646C545.954 498.699 545.976 498.761 545.98 498.826C545.983 498.891 545.969 498.955 545.938 499.012C545.397 499.98 544.109 501.633 541.904 500.96C540.48 500.524 539.941 499.042 539.74 498.122C539.726 498.059 539.73 497.992 539.753 497.931C539.775 497.869 539.814 497.816 539.865 497.776C539.916 497.737 539.978 497.713 540.042 497.707C540.106 497.702 540.171 497.716 540.228 497.746Z" fill="white"/>
<path d="M540.124 490.312C540.564 490.312 540.921 489.951 540.921 489.505C540.921 489.059 540.564 488.697 540.124 488.697C539.683 488.697 539.326 489.059 539.326 489.505C539.326 489.951 539.683 490.312 540.124 490.312Z" fill="#0C0C0C"/>
<path d="M547.788 491.67C548.229 491.67 548.585 491.309 548.585 490.863C548.585 490.417 548.229 490.055 547.788 490.055C547.348 490.055 546.991 490.417 546.991 490.863C546.991 491.309 547.348 491.67 547.788 491.67Z" fill="#0C0C0C"/>
<path d="M524.04 550.267H524.055C524.088 550.262 524.117 550.244 524.136 550.218C524.156 550.192 524.165 550.158 524.16 550.125L522.75 535.74C522.748 535.723 522.743 535.707 522.735 535.693C522.727 535.679 522.716 535.666 522.703 535.656C522.69 535.646 522.675 535.639 522.66 535.635C522.644 535.631 522.627 535.631 522.611 535.633C522.595 535.635 522.58 535.641 522.566 535.649C522.552 535.657 522.54 535.668 522.53 535.681C522.52 535.694 522.513 535.709 522.509 535.725C522.505 535.741 522.504 535.758 522.506 535.774L523.916 550.16C523.92 550.19 523.935 550.217 523.958 550.237C523.981 550.256 524.01 550.267 524.04 550.267Z" fill="#0C0C0C"/>
<path d="M522.198 539.311H507.806V557.187H522.198V539.311Z" fill="white"/>
<path d="M516.303 548.249C516.304 547.068 516.65 545.914 517.297 544.933C517.945 543.951 518.866 543.187 519.943 542.735C521.02 542.283 522.205 542.165 523.348 542.396C524.492 542.626 525.542 543.195 526.366 544.03C527.19 544.865 527.751 545.929 527.978 547.087C528.206 548.244 528.089 549.445 527.643 550.535C527.196 551.626 526.441 552.558 525.472 553.214C524.502 553.87 523.363 554.22 522.197 554.22C520.634 554.218 519.136 553.588 518.031 552.469C516.926 551.349 516.305 549.832 516.303 548.249ZM518.717 548.249C518.717 548.946 518.921 549.627 519.304 550.207C519.686 550.786 520.23 551.238 520.865 551.505C521.501 551.772 522.201 551.841 522.876 551.705C523.551 551.57 524.171 551.234 524.658 550.741C525.144 550.248 525.476 549.62 525.61 548.936C525.744 548.253 525.675 547.544 525.412 546.9C525.149 546.256 524.703 545.706 524.13 545.319C523.558 544.931 522.885 544.725 522.197 544.725C521.274 544.726 520.39 545.097 519.738 545.758C519.085 546.419 518.718 547.315 518.717 548.249Z" fill="white"/>
<path d="M522.082 550.461C522.13 550.158 522.282 549.883 522.511 549.683C522.74 549.482 523.031 549.37 523.334 549.365C523.325 549.353 523.319 549.339 523.316 549.325L522.887 549.231C522.589 549.171 522.32 549.008 522.126 548.77C521.932 548.533 521.825 548.234 521.823 547.926C521.826 547.732 521.871 547.542 521.955 547.368C522.039 547.195 522.16 547.042 522.31 546.922C522.459 546.801 522.633 546.716 522.819 546.672C523.005 546.628 523.199 546.626 523.386 546.667L524.397 546.888C524.397 546.885 524.397 546.881 524.397 546.877C524.399 546.869 524.402 546.861 524.406 546.853C524.142 546.728 523.928 546.516 523.799 546.251C523.67 545.987 523.633 545.686 523.694 545.398C523.805 544.641 524.702 544.392 525.359 544.535L527.978 545.01L527.094 544.417C526.815 544.221 526.62 543.926 526.548 543.59C526.476 543.254 526.533 542.903 526.706 542.608C526.801 542.459 526.925 542.331 527.07 542.232C527.215 542.133 527.379 542.064 527.551 542.031C527.723 541.999 527.9 542.001 528.071 542.04C528.242 542.079 528.404 542.152 528.546 542.256L539.102 554.491L536.758 553.414C536.031 554.497 535 555.336 533.799 555.823C532.598 556.309 531.28 556.421 530.016 556.144L524.291 554.881C523.992 554.821 523.723 554.659 523.529 554.421C523.335 554.183 523.228 553.885 523.226 553.576C523.23 553.298 523.322 553.028 523.488 552.806C523.654 552.585 523.886 552.423 524.15 552.344C524.141 552.324 524.138 552.303 524.141 552.281C524.144 552.262 524.152 552.243 524.164 552.227C524.176 552.211 524.192 552.198 524.21 552.19L523.154 551.959C522.821 551.893 522.525 551.702 522.326 551.424C522.127 551.146 522.04 550.802 522.082 550.461Z" fill="#F4C6B4"/>
<path opacity="0.2" d="M526.309 547.319C526.336 547.313 526.361 547.298 526.378 547.276C526.396 547.253 526.405 547.226 526.405 547.197C526.404 547.169 526.394 547.141 526.375 547.12C526.357 547.098 526.332 547.083 526.304 547.078L524.536 546.776C524.52 546.772 524.503 546.772 524.487 546.775C524.471 546.778 524.456 546.785 524.443 546.794C524.429 546.804 524.418 546.815 524.409 546.829C524.4 546.843 524.394 546.859 524.391 546.875C524.389 546.891 524.389 546.908 524.393 546.924C524.397 546.94 524.404 546.955 524.413 546.969C524.423 546.982 524.435 546.993 524.449 547.001C524.464 547.01 524.479 547.015 524.495 547.017L526.264 547.32C526.279 547.323 526.294 547.323 526.309 547.319Z" fill="#0C0C0C"/>
<path opacity="0.2" d="M525.882 549.853C525.91 549.847 525.935 549.831 525.952 549.809C525.97 549.787 525.979 549.759 525.979 549.731C525.978 549.702 525.968 549.675 525.95 549.653C525.932 549.631 525.906 549.617 525.879 549.612L523.456 549.177C523.44 549.173 523.424 549.172 523.408 549.175C523.391 549.178 523.376 549.184 523.362 549.194C523.349 549.203 523.337 549.215 523.328 549.229C523.319 549.243 523.313 549.258 523.31 549.275C523.307 549.291 523.307 549.308 523.311 549.324C523.315 549.34 523.322 549.356 523.332 549.369C523.341 549.382 523.354 549.394 523.368 549.402C523.382 549.411 523.398 549.416 523.414 549.418L525.836 549.853C525.852 549.856 525.867 549.856 525.882 549.853Z" fill="#0C0C0C"/>
<path opacity="0.2" d="M525.437 552.598C525.465 552.592 525.489 552.577 525.507 552.554C525.525 552.532 525.534 552.504 525.533 552.475C525.532 552.446 525.521 552.419 525.503 552.397C525.484 552.376 525.458 552.362 525.43 552.357L524.281 552.18C524.25 552.177 524.22 552.186 524.195 552.205C524.171 552.224 524.154 552.252 524.15 552.283C524.145 552.314 524.152 552.346 524.17 552.371C524.188 552.397 524.214 552.415 524.245 552.422L525.394 552.6C525.408 552.602 525.423 552.602 525.437 552.598Z" fill="#0C0C0C"/>
<path d="M585.102 548.949C578.625 558.381 569.319 565.447 558.563 569.097L558.559 569.093C556.17 568.619 533.38 559.506 530.365 558.907L533.664 543.323C542.134 545.03 557.581 551.61 566.099 553.323L560.089 525.728C559.872 524.51 559.895 523.259 560.158 522.049C560.421 520.84 560.919 519.695 561.622 518.681C562.325 517.668 563.22 516.806 564.255 516.145C565.29 515.485 566.443 515.039 567.65 514.834C568.856 514.628 570.09 514.667 571.281 514.949C572.472 515.23 573.596 515.748 574.588 516.473C575.58 517.197 576.42 518.114 577.06 519.17C577.699 520.226 578.125 521.4 578.313 522.624L585.102 548.949Z" fill="#B7DCE1"/>
<path d="M572.555 555.354C572.586 555.354 572.616 555.342 572.638 555.32C572.66 555.299 572.674 555.27 572.676 555.239C572.678 555.208 572.669 555.177 572.65 555.152C572.631 555.128 572.604 555.111 572.574 555.106L566.17 552.906C566.154 552.903 566.137 552.904 566.121 552.908C566.106 552.911 566.091 552.918 566.078 552.928C566.065 552.938 566.054 552.95 566.045 552.964C566.037 552.979 566.032 552.994 566.029 553.011C566.025 553.043 566.033 553.077 566.052 553.103C566.072 553.13 566.101 553.147 566.133 553.152L572.537 555.353C572.543 555.354 572.549 555.354 572.555 555.354Z" fill="#0C0C0C"/>
<path d="M566.268 553.011C566.271 553.05 566.26 553.089 566.235 553.119C566.221 553.133 566.204 553.143 566.185 553.149C566.167 553.154 566.147 553.156 566.128 553.152L533.87 543.51L530.637 558.848L558.415 569.142C558.329 569.171 558.239 569.2 558.153 569.229C558.091 569.25 558.029 569.27 557.964 569.287L530.456 559.058C530.425 559.05 530.398 559.03 530.381 559.002C530.365 558.974 530.359 558.94 530.366 558.909L533.664 543.324C533.668 543.308 533.676 543.293 533.685 543.28C533.695 543.267 533.708 543.257 533.722 543.249C533.735 543.239 533.751 543.233 533.767 543.23C533.784 543.227 533.8 543.228 533.816 543.233L565.997 552.888L562.354 537.675C562.35 537.643 562.358 537.61 562.377 537.583C562.396 537.557 562.425 537.539 562.457 537.534C562.473 537.531 562.489 537.531 562.505 537.534C562.521 537.537 562.536 537.544 562.549 537.553C562.563 537.562 562.574 537.574 562.583 537.588C562.592 537.602 562.598 537.617 562.601 537.633L566.268 553.011Z" fill="#0C0C0C"/>
<path d="M145.619 533.132C145.589 533.132 145.559 533.126 145.531 533.114C145.504 533.102 145.479 533.085 145.458 533.064C145.437 533.043 145.421 533.017 145.41 532.99C145.399 532.962 145.393 532.932 145.393 532.902C145.393 532.872 145.399 532.843 145.411 532.815L154.243 511.554C154.266 511.498 154.31 511.454 154.366 511.431C154.421 511.408 154.483 511.409 154.538 511.432C154.593 511.456 154.637 511.501 154.66 511.557C154.682 511.613 154.682 511.676 154.658 511.732L145.826 532.992C145.809 533.033 145.78 533.069 145.743 533.093C145.706 533.118 145.663 533.132 145.619 533.132Z" fill="#0C0C0C"/>
<path d="M197.589 533.373H197.579C197.549 533.374 197.52 533.37 197.492 533.36C197.464 533.349 197.439 533.334 197.417 533.314C197.395 533.293 197.377 533.269 197.365 533.242C197.352 533.215 197.345 533.185 197.344 533.155L196.359 511.41C196.358 511.35 196.38 511.292 196.42 511.248C196.46 511.203 196.515 511.176 196.574 511.171C196.603 511.17 196.633 511.174 196.661 511.185C196.689 511.195 196.714 511.21 196.736 511.231C196.758 511.251 196.776 511.275 196.788 511.302C196.801 511.33 196.808 511.359 196.809 511.389L197.794 533.134C197.797 533.193 197.777 533.251 197.739 533.296C197.701 533.34 197.647 533.368 197.589 533.373Z" fill="#0C0C0C"/>
<defs>
<linearGradient id="paint0_linear_272_10361" x1="246.947" y1="251.827" x2="528.825" y2="521.386" gradientUnits="userSpaceOnUse">
<stop stop-color="#F78F20"/>
<stop offset="0.0001" stop-color="#F78F20" stop-opacity="0.85"/>
<stop offset="1" stop-color="#F6CE3E"/>
</linearGradient>
</defs>
</svg>
