<svg width="403" height="242" viewBox="0 0 403 242" fill="none" xmlns="http://www.w3.org/2000/svg">
<rect width="403" height="242" fill="#B7DCE1"/>
<g clip-path="url(#clip0_813_752)">
<path d="M294.167 192.235C302.617 192.235 309.358 183.739 308.985 173.563C308.497 160.257 302.853 141.469 280.608 122.693C253.48 99.7964 267.195 37.7225 209.555 42.271C151.916 46.8194 164.679 90.7029 132.44 117.32C103.173 141.483 94.0016 156.044 94 174.382C94 184.247 100.649 192.235 108.832 192.235H294.167Z" fill="#F3F5FD"/>
<path d="M271.57 45.6571H128.218V149.493H271.57V45.6571Z" fill="#DEE8F5"/>
<path d="M271.57 45.6571H128.218V54.2105H271.57V45.6571Z" fill="#C1D8ED"/>
<path d="M266.769 52.0803C267.954 52.0803 268.914 51.1195 268.914 49.9343C268.914 48.749 267.954 47.7882 266.769 47.7882C265.584 47.7882 264.623 48.749 264.623 49.9343C264.623 51.1195 265.584 52.0803 266.769 52.0803Z" fill="white"/>
<path d="M194.292 94.4516V86.4396C194.292 86.2885 194.232 86.1436 194.126 86.0367C194.019 85.9299 193.874 85.8698 193.723 85.8697H187.841C187.712 85.8692 187.587 85.825 187.486 85.7443C187.386 85.6635 187.315 85.5511 187.287 85.4253C186.745 83.1117 185.83 80.9021 184.576 78.8838C184.507 78.7745 184.478 78.6451 184.492 78.5168C184.507 78.3885 184.564 78.2688 184.655 78.1773L188.814 74.0166C188.867 73.9637 188.909 73.901 188.937 73.8318C188.966 73.7627 188.981 73.6886 188.981 73.6138C188.981 73.539 188.966 73.4649 188.937 73.3958C188.909 73.3267 188.867 73.2639 188.814 73.211L183.148 67.5439C183.041 67.4371 182.897 67.3771 182.746 67.3771C182.594 67.3771 182.45 67.4371 182.343 67.5439L178.183 71.7049C178.091 71.796 177.971 71.8534 177.843 71.8678C177.715 71.8821 177.586 71.8526 177.476 71.7839C175.459 70.5296 173.25 69.6134 170.937 69.0714C170.812 69.0429 170.699 68.9725 170.618 68.8718C170.538 68.7711 170.493 68.646 170.493 68.5169V62.634C170.493 62.4829 170.433 62.338 170.326 62.2311C170.219 62.1242 170.074 62.0642 169.923 62.0642H161.912C161.761 62.0642 161.616 62.1242 161.509 62.2311C161.402 62.338 161.342 62.4829 161.342 62.634V68.5169C161.342 68.646 161.298 68.7711 161.217 68.8718C161.136 68.9725 161.024 69.0429 160.898 69.0714C158.585 69.6131 156.376 70.529 154.358 71.7828C154.249 71.8516 154.119 71.8812 153.991 71.8668C153.863 71.8525 153.743 71.795 153.651 71.7038L149.491 67.5413C149.438 67.4884 149.376 67.4464 149.307 67.4178C149.237 67.3891 149.163 67.3744 149.089 67.3744C149.014 67.3744 148.94 67.3891 148.87 67.4178C148.801 67.4464 148.739 67.4884 148.686 67.5413L143.023 73.2078C142.97 73.2607 142.928 73.3235 142.899 73.3926C142.87 73.4617 142.856 73.5358 142.856 73.6106C142.856 73.6855 142.87 73.7596 142.899 73.8287C142.928 73.8978 142.97 73.9606 143.023 74.0135L147.182 78.1741C147.273 78.2658 147.33 78.3855 147.345 78.5138C147.359 78.6421 147.329 78.7714 147.26 78.8807C146.007 80.8991 145.091 83.1088 144.55 85.4224C144.521 85.548 144.451 85.6603 144.351 85.741C144.25 85.8217 144.126 85.866 143.997 85.8668H138.115C137.964 85.8669 137.819 85.9269 137.712 86.0338C137.606 86.1406 137.545 86.2856 137.545 86.4367V94.4487C137.545 94.5998 137.605 94.7447 137.712 94.8516C137.819 94.9585 137.964 95.0185 138.115 95.0185H143.997C144.126 95.0193 144.25 95.0636 144.351 95.1444C144.451 95.2251 144.521 95.3375 144.55 95.4632C145.091 97.7767 146.007 99.9862 147.26 102.004C147.329 102.114 147.359 102.243 147.345 102.371C147.331 102.5 147.274 102.619 147.183 102.711L143.023 106.872C142.916 106.979 142.856 107.124 142.856 107.275C142.856 107.426 142.916 107.571 143.023 107.677L148.686 113.342C148.739 113.395 148.801 113.437 148.87 113.465C148.94 113.494 149.014 113.509 149.089 113.509C149.163 113.509 149.237 113.494 149.307 113.465C149.376 113.437 149.438 113.395 149.491 113.342L153.651 109.181C153.743 109.09 153.862 109.032 153.991 109.018C154.119 109.004 154.248 109.033 154.358 109.102C156.375 110.356 158.585 111.272 160.898 111.813C161.023 111.842 161.136 111.912 161.216 112.012C161.297 112.113 161.341 112.238 161.342 112.367V118.249C161.342 118.324 161.357 118.398 161.386 118.468C161.414 118.537 161.456 118.6 161.509 118.652C161.562 118.705 161.625 118.747 161.694 118.776C161.763 118.805 161.837 118.819 161.912 118.819H169.922C169.997 118.819 170.071 118.805 170.14 118.776C170.209 118.747 170.272 118.705 170.325 118.652C170.378 118.6 170.42 118.537 170.448 118.468C170.477 118.398 170.492 118.324 170.492 118.249V112.372C170.492 112.243 170.536 112.118 170.617 112.017C170.698 111.916 170.81 111.846 170.936 111.818C173.25 111.276 175.459 110.36 177.477 109.106C177.586 109.038 177.715 109.008 177.844 109.023C177.972 109.037 178.092 109.094 178.183 109.185L182.342 113.345C182.449 113.452 182.594 113.512 182.745 113.512C182.896 113.512 183.041 113.452 183.148 113.345L188.813 107.681C188.866 107.628 188.908 107.565 188.937 107.496C188.966 107.427 188.98 107.353 188.98 107.278C188.98 107.203 188.966 107.129 188.937 107.06C188.908 106.991 188.866 106.928 188.813 106.875L184.653 102.714C184.562 102.623 184.505 102.503 184.491 102.375C184.476 102.246 184.506 102.117 184.574 102.008C185.828 99.9894 186.744 97.7799 187.285 95.4664C187.314 95.3405 187.384 95.2281 187.485 95.1473C187.586 95.0666 187.711 95.0224 187.84 95.0219H193.722C193.796 95.0221 193.871 95.0075 193.94 94.9789C194.009 94.9503 194.072 94.9083 194.125 94.8553C194.178 94.8023 194.22 94.7394 194.249 94.6701C194.278 94.6008 194.292 94.5265 194.292 94.4516ZM166.33 103.148C163.782 103.231 161.269 102.546 159.116 101.182C156.963 99.8172 155.27 97.8369 154.257 95.4978C153.244 93.1588 152.958 90.569 153.435 88.065C153.912 85.561 155.131 83.2584 156.934 81.4563C158.736 79.6542 161.039 78.4359 163.543 77.9596C166.047 77.4834 168.636 77.7712 170.974 78.7856C173.312 79.8001 175.291 81.4943 176.654 83.6483C178.017 85.8023 178.701 88.3164 178.617 90.8642C178.511 94.0895 177.182 97.1537 174.9 99.435C172.619 101.716 169.554 103.044 166.33 103.148Z" fill="white"/>
<path d="M227.419 121.714L226.331 116.824C226.321 116.778 226.302 116.735 226.275 116.696C226.248 116.658 226.214 116.626 226.174 116.6C226.135 116.575 226.091 116.558 226.045 116.55C225.999 116.542 225.952 116.543 225.906 116.553L222.316 117.353C222.237 117.37 222.155 117.36 222.082 117.324C222.01 117.289 221.952 117.23 221.917 117.157C221.272 115.818 220.413 114.594 219.374 113.532C219.317 113.475 219.281 113.4 219.272 113.32C219.263 113.239 219.282 113.159 219.325 113.09L221.299 109.985C221.35 109.905 221.367 109.809 221.346 109.717C221.326 109.624 221.269 109.544 221.19 109.493L216.962 106.804C216.882 106.754 216.785 106.737 216.693 106.757C216.601 106.778 216.521 106.834 216.47 106.914L214.496 110.019C214.452 110.087 214.387 110.138 214.31 110.164C214.234 110.191 214.151 110.19 214.074 110.162C212.672 109.671 211.2 109.413 209.714 109.396C209.634 109.396 209.555 109.368 209.492 109.318C209.429 109.267 209.385 109.197 209.368 109.118L208.568 105.527C208.558 105.482 208.539 105.438 208.512 105.4C208.485 105.362 208.451 105.329 208.412 105.304C208.372 105.279 208.328 105.262 208.282 105.254C208.236 105.246 208.189 105.247 208.143 105.257L203.256 106.346C203.164 106.366 203.083 106.422 203.033 106.502C202.982 106.582 202.965 106.678 202.985 106.771L203.785 110.362C203.802 110.441 203.792 110.523 203.756 110.595C203.721 110.668 203.662 110.726 203.589 110.761C202.25 111.406 201.027 112.265 199.965 113.305C199.908 113.361 199.833 113.397 199.753 113.406C199.672 113.415 199.592 113.396 199.523 113.353L196.419 111.377C196.339 111.327 196.242 111.31 196.15 111.33C196.058 111.351 195.978 111.407 195.927 111.487L193.24 115.715C193.19 115.795 193.173 115.892 193.193 115.984C193.214 116.076 193.27 116.156 193.35 116.207L196.454 118.181C196.522 118.225 196.574 118.291 196.6 118.367C196.626 118.444 196.625 118.527 196.597 118.603C196.107 120.005 195.848 121.479 195.832 122.964C195.832 123.045 195.804 123.123 195.753 123.186C195.703 123.249 195.633 123.293 195.554 123.311L191.964 124.11C191.918 124.121 191.875 124.14 191.836 124.167C191.798 124.193 191.765 124.228 191.74 124.267C191.715 124.307 191.698 124.351 191.69 124.397C191.682 124.443 191.683 124.49 191.693 124.536L192.782 129.426C192.792 129.472 192.811 129.515 192.838 129.553C192.865 129.592 192.899 129.624 192.939 129.65C192.978 129.675 193.022 129.692 193.068 129.7C193.114 129.708 193.161 129.707 193.207 129.697L196.797 128.897C196.876 128.88 196.958 128.89 197.031 128.926C197.103 128.961 197.161 129.02 197.196 129.093C197.841 130.432 198.7 131.656 199.739 132.718C199.796 132.775 199.832 132.85 199.841 132.93C199.849 133.01 199.831 133.091 199.788 133.16L197.812 136.265C197.762 136.344 197.745 136.441 197.765 136.533C197.786 136.625 197.842 136.706 197.922 136.756L202.148 139.444C202.188 139.469 202.232 139.486 202.278 139.494C202.324 139.502 202.371 139.501 202.417 139.491C202.463 139.481 202.506 139.462 202.544 139.435C202.582 139.408 202.615 139.374 202.64 139.334L204.614 136.229C204.658 136.161 204.723 136.11 204.8 136.084C204.876 136.058 204.959 136.058 205.035 136.085C206.437 136.577 207.91 136.836 209.396 136.852C209.476 136.852 209.555 136.88 209.618 136.93C209.681 136.981 209.725 137.051 209.742 137.13L210.542 140.721C210.552 140.766 210.571 140.81 210.598 140.848C210.625 140.886 210.659 140.919 210.698 140.944C210.738 140.969 210.782 140.986 210.828 140.994C210.874 141.002 210.921 141.001 210.967 140.991L215.856 139.902C215.902 139.892 215.945 139.873 215.983 139.846C216.022 139.819 216.054 139.785 216.079 139.746C216.105 139.706 216.122 139.662 216.13 139.616C216.138 139.57 216.137 139.523 216.127 139.477L215.327 135.886C215.31 135.807 215.32 135.725 215.356 135.653C215.391 135.58 215.45 135.522 215.523 135.487C216.862 134.842 218.086 133.983 219.147 132.944C219.205 132.887 219.279 132.851 219.36 132.842C219.44 132.833 219.521 132.852 219.589 132.895L222.693 134.869C222.733 134.895 222.777 134.912 222.823 134.92C222.869 134.928 222.916 134.927 222.962 134.917C223.007 134.906 223.051 134.887 223.089 134.861C223.127 134.834 223.16 134.8 223.185 134.76L225.874 130.533C225.899 130.493 225.916 130.449 225.924 130.403C225.932 130.357 225.931 130.31 225.921 130.264C225.911 130.218 225.892 130.175 225.865 130.137C225.838 130.098 225.804 130.066 225.764 130.041L222.66 128.065C222.591 128.021 222.54 127.956 222.514 127.879C222.488 127.803 222.489 127.719 222.516 127.643C223.007 126.241 223.266 124.768 223.282 123.282C223.283 123.201 223.31 123.123 223.361 123.06C223.411 122.997 223.482 122.953 223.56 122.935L227.15 122.136C227.242 122.115 227.321 122.059 227.371 121.98C227.422 121.901 227.439 121.806 227.419 121.714ZM211.532 130.823C209.989 131.22 208.362 131.143 206.862 130.603C205.363 130.063 204.06 129.084 203.124 127.794C202.188 126.504 201.661 124.962 201.612 123.369C201.564 121.776 201.995 120.204 202.85 118.859C203.706 117.514 204.946 116.458 206.41 115.827C207.873 115.196 209.493 115.02 211.058 115.321C212.623 115.623 214.061 116.388 215.185 117.517C216.31 118.647 217.069 120.089 217.364 121.655C217.737 123.638 217.342 125.689 216.259 127.392C215.176 129.094 213.487 130.321 211.532 130.823Z" fill="#C1D8ED"/>
<path d="M130.254 152.735C130.254 152.735 132.291 151.655 131.836 146.108L136.044 145.328C136.044 145.328 135.571 150.301 137.7 151.88L130.254 152.735Z" fill="#E98862"/>
<path opacity="0.15" d="M136.838 150.841L133.342 148.166L136.088 148.138C136.167 149.078 136.422 149.995 136.838 150.841Z" fill="black"/>
<path d="M129.449 143.958C129.74 145.641 130.658 147.235 132.142 147.778C133.904 148.423 135.209 148.467 137.241 148.467C140.013 148.467 139.922 145.575 140 142.661C140.079 139.736 139.845 136.597 138.749 135.577C136.563 133.542 130.143 134.831 129.363 138.234C128.959 139.995 129.171 142.356 129.449 143.958Z" fill="#E98862"/>
<path d="M141.485 137.269C141.485 137.269 142.621 137.015 142.31 135.883C142.104 135.132 141.142 135.299 141.142 135.299C141.142 135.299 142.053 135.132 142.053 134.336C142.053 133.836 141.668 132.986 140.506 133.471C139.144 134.041 137.589 133.968 136.408 133.769C135.739 133.623 135.061 133.527 134.378 133.482H134.374C133.589 133.469 132.806 133.573 132.053 133.793C129.94 134.425 126.743 136.32 127.423 140.614C128.181 145.408 130.43 147.241 131.42 147.829C131.478 147.864 131.544 147.886 131.612 147.892C131.68 147.898 131.749 147.888 131.812 147.864C131.876 147.84 131.934 147.801 131.981 147.752C132.028 147.702 132.062 147.642 132.083 147.577C132.363 146.678 132.847 144.418 132.712 139.757C139.205 139.439 141.073 139.342 141.073 139.342C141.073 139.342 142.601 139.399 142.601 138.282C142.601 137.166 141.485 137.269 141.485 137.269Z" fill="#0F1011"/>
<path d="M136.038 142.661C136.249 142.661 136.42 142.49 136.42 142.279C136.42 142.068 136.249 141.898 136.038 141.898C135.827 141.898 135.656 142.068 135.656 142.279C135.656 142.49 135.827 142.661 136.038 142.661Z" fill="#0F1011"/>
<path d="M139.049 142.414C139.26 142.414 139.431 142.243 139.431 142.032C139.431 141.821 139.26 141.65 139.049 141.65C138.838 141.65 138.668 141.821 138.668 142.032C138.668 142.243 138.838 142.414 139.049 142.414Z" fill="#0F1011"/>
<path d="M138.699 141.027L139.711 141.04" stroke="#0F1011" stroke-width="0.800849" stroke-miterlimit="10" stroke-linecap="round"/>
<path d="M135.215 141.408L136.212 141.168" stroke="#0F1011" stroke-width="0.800849" stroke-miterlimit="10" stroke-linecap="round"/>
<path d="M134.053 143.213C134.085 143.64 133.947 144.061 133.67 144.386C133.392 144.711 132.997 144.913 132.571 144.948C132.145 144.983 131.723 144.848 131.396 144.572C131.07 144.296 130.865 143.903 130.828 143.477C130.807 143.264 130.829 143.05 130.892 142.846C130.956 142.642 131.06 142.453 131.198 142.29C131.336 142.127 131.506 141.994 131.696 141.898C131.887 141.802 132.095 141.746 132.308 141.732C133.461 141.695 133.98 142.323 134.053 143.213Z" fill="#E98862"/>
<g opacity="0.15">
<path d="M137.732 144.396C137.701 144.396 137.67 144.385 137.646 144.364C137.622 144.344 137.607 144.315 137.602 144.284C137.597 144.253 137.604 144.221 137.621 144.194C137.638 144.168 137.663 144.148 137.694 144.138L138.47 143.9L137.927 142.691C137.913 142.659 137.912 142.623 137.925 142.591C137.937 142.558 137.962 142.532 137.994 142.518C138.025 142.504 138.061 142.503 138.094 142.515C138.126 142.527 138.153 142.551 138.167 142.583L138.771 143.928C138.779 143.945 138.783 143.963 138.783 143.982C138.783 144.001 138.779 144.019 138.771 144.036C138.764 144.053 138.752 144.069 138.738 144.081C138.724 144.093 138.708 144.102 138.69 144.108L137.771 144.39C137.759 144.394 137.745 144.396 137.732 144.396Z" fill="black"/>
</g>
<path d="M136.215 145.286C136.215 145.286 137.624 145.434 138.612 145.089C138.612 145.089 138.604 146.017 137.489 146.109C136.374 146.2 136.215 145.286 136.215 145.286Z" fill="#F8FCFF"/>
<path d="M146.794 193.479C147.295 193.395 152.941 192.43 152.941 192.43L152.01 186.977C152.01 186.977 146.379 187.939 145.88 188.023L146.794 193.479Z" fill="#E98862"/>
<path d="M156.161 198.71C156.185 198.857 156.178 199.007 156.141 199.151C156.105 199.295 156.039 199.43 155.947 199.548C155.856 199.665 155.741 199.763 155.611 199.834C155.48 199.905 155.336 199.949 155.188 199.962C154.983 199.98 154.777 199.939 154.594 199.844C154.411 199.749 154.259 199.603 154.156 199.425L150.966 193.43C150.904 193.314 150.869 193.186 150.862 193.054C150.854 192.923 150.875 192.792 150.924 192.67C151.383 191.695 151.518 190.599 151.308 189.542C151.111 188.725 150.688 187.979 150.087 187.391C150.029 187.34 149.986 187.273 149.964 187.199C149.943 187.125 149.942 187.046 149.963 186.972C149.985 186.897 150.027 186.831 150.084 186.779C150.142 186.728 150.213 186.694 150.29 186.682L153.394 186.161C153.486 186.146 153.58 186.149 153.67 186.17C153.761 186.191 153.846 186.23 153.922 186.284C153.997 186.338 154.061 186.406 154.11 186.485C154.159 186.564 154.192 186.652 154.207 186.744L156.161 198.71Z" fill="#C1D8ED"/>
<path d="M129.317 178.729C126.974 178.827 124.587 178.895 122.201 178.954L118.615 179.034L115.033 179.098L114.676 179.104C113.196 179.132 111.782 179.72 110.719 180.75C109.656 181.779 109.022 183.173 108.946 184.651C108.87 186.129 109.357 187.581 110.309 188.715C111.261 189.848 112.607 190.578 114.076 190.757L149.476 195.057L150.919 184.592L115.677 179.151L114.72 190.81L118.357 191.045L121.992 191.265C124.419 191.405 126.847 191.537 129.319 191.638L129.317 178.729Z" fill="#262626"/>
<path d="M120.387 191.188C125.274 190.476 125.76 190.345 125.921 190.303L124.484 184.96C124.5 184.956 124.521 184.95 124.547 184.945C124.146 185.032 121.663 185.412 119.591 185.713L120.387 191.188Z" fill="#E98862"/>
<path d="M114.281 195.943C114.23 196.083 114.208 196.232 114.217 196.38C114.226 196.529 114.265 196.674 114.332 196.806C114.399 196.939 114.493 197.056 114.608 197.151C114.723 197.246 114.856 197.316 114.999 197.357C115.197 197.414 115.407 197.412 115.605 197.354C115.803 197.295 115.979 197.181 116.114 197.025L120.384 191.745C120.466 191.643 120.525 191.524 120.557 191.397C120.589 191.269 120.593 191.137 120.569 191.008C120.302 189.964 120.378 188.862 120.785 187.864C121.133 187.099 121.69 186.447 122.391 185.983C122.458 185.944 122.512 185.887 122.548 185.819C122.584 185.75 122.599 185.673 122.592 185.596C122.585 185.519 122.557 185.445 122.51 185.384C122.463 185.322 122.4 185.275 122.327 185.249L119.377 184.149C119.29 184.116 119.198 184.101 119.105 184.105C119.012 184.108 118.921 184.13 118.837 184.169C118.752 184.207 118.676 184.262 118.613 184.331C118.55 184.399 118.501 184.479 118.469 184.566L114.281 195.943Z" fill="#C1D8ED"/>
<path d="M137.177 190.689C138.66 190.563 140.143 190.472 141.626 190.387C143.108 190.308 144.591 190.229 146.073 190.176L148.295 190.09L150.518 190.026C152 189.977 153.481 189.957 154.963 189.928L154.449 179.282C151.676 179.67 148.899 180.026 146.122 180.391C143.346 180.757 140.567 181.093 137.789 181.435L133.619 181.925L129.445 182.393C126.662 182.692 123.878 182.99 121.088 183.235L122.312 193.728C125.084 193.324 127.861 192.972 130.639 192.621L134.808 192.115L138.979 191.633C141.762 191.326 144.544 191.014 147.329 190.729C150.113 190.444 152.899 190.153 155.687 189.891C157.024 189.765 158.264 189.14 159.159 188.139C160.055 187.137 160.539 185.835 160.516 184.492C160.493 183.149 159.963 181.865 159.034 180.895C158.104 179.926 156.843 179.343 155.502 179.264L155.173 179.245C153.693 179.159 152.214 179.08 150.735 178.972L148.517 178.82L146.299 178.647C144.82 178.535 143.342 178.397 141.864 178.26C140.386 178.116 138.908 177.966 137.43 177.781L137.177 190.689Z" fill="#262626"/>
<path d="M123.934 177.113L123.155 190.208L145.672 189.943L143.972 178.35L123.934 177.113Z" fill="#262626"/>
<path d="M116.753 176.615C116.99 176.974 117.304 177.276 117.673 177.497C118.042 177.718 118.456 177.854 118.884 177.894L122.488 178.229C122.489 178.272 122.489 178.316 122.492 178.36C122.782 182.823 144.467 181.769 145.571 179.232C145.976 178.302 145.943 177.497 145.738 176.461L149.895 177.053C150.378 177.123 150.871 177.063 151.323 176.88C151.775 176.697 152.171 176.397 152.471 176.012C152.77 175.626 152.962 175.169 153.027 174.685C153.093 174.201 153.029 173.709 152.842 173.258L145.234 154.845C144.772 152.745 143.311 151.349 139.688 151.193C139.522 151.185 139.256 151.18 138.913 151.174C138.845 152.623 129.874 152.618 129.684 151.14C127.15 151.143 125.072 151.92 123.868 153.124C123.147 153.808 122.633 154.683 122.386 155.646L116.417 174.153C116.285 174.563 116.247 174.996 116.305 175.422C116.363 175.848 116.516 176.256 116.753 176.615ZM144.673 170.72C144.58 169.798 144.518 168.754 144.502 167.564L145.877 170.892L144.673 170.72ZM124.788 166.905C124.8 167.104 124.809 167.304 124.809 167.506C124.813 169.235 124.551 170.954 124.033 172.604L122.981 172.506L124.788 166.905Z" fill="#F78F20"/>
<path d="M131.425 159.994L130.494 173.872C130.483 174.036 130.506 174.2 130.561 174.354C130.616 174.509 130.702 174.65 130.814 174.77C130.926 174.89 131.062 174.985 131.212 175.051C131.362 175.116 131.525 175.15 131.688 175.15H151.068C151.364 175.15 151.65 175.04 151.87 174.842C152.09 174.643 152.229 174.37 152.259 174.076L153.693 160.197C153.71 160.031 153.692 159.862 153.64 159.703C153.588 159.544 153.504 159.397 153.391 159.272C153.279 159.148 153.142 159.048 152.989 158.98C152.836 158.912 152.67 158.877 152.502 158.877H132.619C132.316 158.877 132.024 158.992 131.802 159.2C131.58 159.407 131.445 159.691 131.425 159.994Z" fill="#9EBCEA"/>
<path d="M149.45 173.479H129.088C128.626 173.479 128.252 173.853 128.252 174.314C128.252 174.776 128.626 175.15 129.088 175.15H149.45C149.911 175.15 150.285 174.776 150.285 174.314C150.285 173.853 149.911 173.479 149.45 173.479Z" fill="#9EBCEA"/>
<path d="M142.607 168.858C143.626 168.858 144.451 168.032 144.451 167.014C144.451 165.995 143.626 165.17 142.607 165.17C141.589 165.17 140.764 165.995 140.764 167.014C140.764 168.032 141.589 168.858 142.607 168.858Z" fill="white"/>
<path d="M139.951 176.912C138.768 177.642 136.938 177.987 135.342 178.114L135.252 175.205C136.003 175.184 137.156 175.105 138.286 175.15C138.797 174.734 139.091 174.61 139.615 174.086C140.173 173.528 141.637 173.192 141.913 174.086C142.19 174.979 140.99 176.27 139.951 176.912Z" fill="#E98862"/>
<path d="M138.912 151.175C138.844 152.624 138.056 154.755 135.625 154.916C132.386 155.129 129.873 152.618 129.683 151.141H129.691C132.881 151.141 137.053 151.146 138.912 151.175Z" fill="#E98862"/>
<path d="M147.452 147.147L150.832 145.011H166.849V131.972H147.452V147.147Z" fill="#F6CE3E"/>
<path d="M163.998 139.034L159.633 141.153V140.333L163.096 138.712V138.694L159.633 137.082V136.253L163.998 138.371V139.034Z" fill="white" stroke="white" stroke-width="0.476864" stroke-miterlimit="10"/>
<path d="M157.837 141.521L155.59 134.843H156.382L158.629 141.521H157.837Z" fill="white" stroke="white" stroke-width="0.476864" stroke-miterlimit="10"/>
<path d="M150.303 138.352L154.668 136.252V137.072L151.15 138.693V138.712L154.668 140.333V141.152L150.303 139.052V138.352Z" fill="white" stroke="white" stroke-width="0.476864" stroke-miterlimit="10"/>
<path d="M267.354 189.539C266.771 184.634 266.771 184.13 266.771 183.964H272.302C272.302 183.947 272.302 183.925 272.302 183.899C272.322 184.309 272.6 186.806 272.848 188.886L267.354 189.539Z" fill="#E98862"/>
<path d="M289.394 190.201C289.394 190.201 289.375 184.472 289.375 183.964H294.907C294.907 184.47 294.925 190.183 294.925 190.183L289.394 190.201Z" fill="#E98862"/>
<path d="M275.058 187.793L265.312 187.627C265.717 177.362 265.786 165.621 265.895 154.997C265.925 152.364 266.124 149.735 266.49 147.128C268.058 135.872 269.081 124.68 271.192 113.491L271.262 113.512L271.468 112.107L291.506 110.869L292.551 123.967C292.551 123.967 295.161 169.266 296.351 187.48L286.64 188.301C284.89 170.443 282.183 144.422 280.517 125.661C278.605 134.795 277.304 144.252 275.641 153.308C275.308 164.643 275.027 176.491 275.058 187.793Z" fill="#262626"/>
<path d="M282.67 192.341C282.521 192.341 282.374 192.309 282.238 192.249C282.102 192.189 281.98 192.102 281.879 191.992C281.778 191.883 281.701 191.754 281.652 191.613C281.604 191.472 281.584 191.323 281.596 191.175C281.612 190.969 281.686 190.773 281.81 190.608C281.934 190.443 282.103 190.317 282.296 190.245L288.734 188.088C288.859 188.047 288.991 188.033 289.122 188.048C289.252 188.062 289.378 188.105 289.491 188.172C290.376 188.787 291.435 189.101 292.511 189.068C293.35 189.009 294.155 188.714 294.834 188.219C294.894 188.17 294.967 188.139 295.043 188.13C295.12 188.121 295.198 188.133 295.268 188.166C295.337 188.199 295.396 188.252 295.438 188.317C295.479 188.382 295.501 188.458 295.5 188.535V191.684C295.5 191.777 295.482 191.869 295.446 191.955C295.411 192.041 295.359 192.119 295.293 192.184C295.227 192.25 295.149 192.302 295.063 192.337C294.977 192.372 294.885 192.39 294.792 192.39L282.67 192.341Z" fill="#C1D8ED"/>
<path d="M260.615 192.341C260.466 192.341 260.319 192.309 260.183 192.249C260.047 192.189 259.925 192.102 259.824 191.992C259.723 191.883 259.646 191.754 259.597 191.613C259.549 191.472 259.53 191.323 259.541 191.175C259.557 190.969 259.632 190.773 259.756 190.608C259.88 190.443 260.048 190.317 260.242 190.245L266.679 188.088C266.804 188.047 266.936 188.033 267.067 188.048C267.197 188.062 267.323 188.105 267.436 188.172C268.321 188.787 269.38 189.101 270.457 189.068C271.295 189.009 272.1 188.714 272.78 188.219C272.84 188.17 272.912 188.139 272.989 188.13C273.065 188.12 273.143 188.133 273.213 188.166C273.283 188.199 273.342 188.252 273.383 188.317C273.424 188.382 273.446 188.458 273.446 188.536V191.684C273.446 191.777 273.427 191.869 273.392 191.955C273.356 192.041 273.304 192.119 273.238 192.184C273.172 192.25 273.094 192.302 273.008 192.337C272.922 192.372 272.83 192.39 272.737 192.39L260.615 192.341Z" fill="#C1D8ED"/>
<path d="M250.717 89.4005C250.717 89.4005 250.018 87.0995 248.619 86.1817C247.22 85.2638 247.223 86.2976 247.845 87.3338C248.466 88.3699 249.932 90.5499 249.932 90.5499" fill="#E98862"/>
<path d="M249.895 88.44C249.895 88.44 247.445 85.2319 246.012 85.2319C246.012 85.2319 243.704 86.3363 243.737 87.0497C243.786 88.1249 247.689 92.1369 247.689 92.1369L249.895 88.44Z" fill="#E98862"/>
<path d="M264.265 105.017C263.637 105.017 263.027 104.804 262.537 104.411L246.871 91.8734L250.326 87.5529L263.505 98.0992L271.406 84.7213L276.169 87.5357L266.645 103.659C266.4 104.073 266.052 104.416 265.634 104.654C265.217 104.892 264.744 105.018 264.264 105.018L264.265 105.017Z" fill="#005D83"/>
<path d="M270.168 112.99C271.271 115.527 292.956 116.581 293.246 112.118C293.431 109.278 290.928 106.799 290.928 101.264C290.928 95.7285 296.02 88.6602 291.871 84.5109C290.668 83.3069 288.589 82.5297 286.055 82.5271C285.866 84.005 276.895 84.0103 276.826 82.5613C276.484 82.5666 276.218 82.5719 276.052 82.5798C267.312 82.9565 271.153 92.9044 271.237 100.212C271.34 108.764 269.03 110.376 270.168 112.99Z" fill="#005D83"/>
<path d="M276.826 82.561C276.895 84.01 277.682 86.1413 280.113 86.302C283.353 86.5154 285.866 84.0047 286.055 82.5268H286.048C282.858 82.526 278.686 82.5321 276.826 82.561Z" fill="#E98862"/>
<path d="M273.635 85.1281L272.525 80.1405C272.504 80.0464 272.446 79.9645 272.365 79.9128C272.284 79.8611 272.185 79.8438 272.091 79.8647L268.43 80.68C268.349 80.6976 268.265 80.6873 268.192 80.651C268.118 80.6147 268.058 80.5545 268.023 80.4801C267.365 79.1148 266.489 77.8661 265.429 76.7834C265.371 76.725 265.335 76.6486 265.326 76.5668C265.317 76.485 265.336 76.4025 265.38 76.3329L267.393 73.166C267.444 73.0847 267.462 72.9864 267.441 72.8926C267.42 72.7988 267.362 72.7171 267.281 72.6654L262.969 69.9229C262.888 69.8716 262.79 69.8545 262.696 69.8755C262.602 69.8964 262.521 69.9536 262.469 70.0346L260.454 73.1999C260.409 73.2693 260.343 73.3215 260.265 73.348C260.187 73.3746 260.102 73.3739 260.025 73.3462C258.595 72.8454 257.093 72.5815 255.578 72.565C255.495 72.5647 255.416 72.5365 255.351 72.4849C255.287 72.4334 255.242 72.3616 255.224 72.2813L254.409 68.6194C254.399 68.5728 254.379 68.5287 254.352 68.4896C254.324 68.4505 254.29 68.4172 254.249 68.3916C254.209 68.366 254.164 68.3486 254.117 68.3403C254.07 68.3321 254.022 68.3332 253.975 68.3435L248.989 69.4537C248.895 69.4747 248.813 69.5322 248.761 69.6136C248.709 69.6949 248.692 69.7935 248.713 69.8876L249.529 73.5495C249.547 73.63 249.537 73.714 249.5 73.7879C249.464 73.8618 249.404 73.9211 249.329 73.9563C247.965 74.6143 246.716 75.4906 245.634 76.5508C245.575 76.6088 245.499 76.6452 245.417 76.6542C245.335 76.6632 245.253 76.6442 245.183 76.6003L242.017 74.5865C241.936 74.5351 241.837 74.518 241.744 74.5389C241.65 74.5599 241.568 74.6171 241.516 74.6982L238.776 79.0108C238.724 79.0921 238.707 79.1904 238.728 79.2842C238.749 79.378 238.806 79.4597 238.887 79.5114L242.053 81.5249C242.123 81.5694 242.175 81.636 242.202 81.7139C242.228 81.7919 242.228 81.8765 242.2 81.9541C241.699 83.3844 241.435 84.8868 241.419 86.4022C241.419 86.4845 241.39 86.5643 241.339 86.6285C241.287 86.6927 241.216 86.7376 241.135 86.7557L237.474 87.5711C237.38 87.592 237.298 87.6495 237.246 87.7308C237.195 87.8121 237.177 87.9106 237.198 88.0047L238.309 92.9926C238.329 93.0867 238.387 93.1685 238.468 93.2203C238.55 93.272 238.648 93.2893 238.742 93.2684L242.403 92.4531C242.484 92.4355 242.568 92.4457 242.642 92.482C242.716 92.5183 242.775 92.5786 242.81 92.653C243.468 94.0182 244.344 95.2668 245.404 96.3495C245.462 96.4079 245.498 96.4843 245.507 96.5662C245.516 96.6481 245.497 96.7306 245.453 96.8002L243.44 99.9671C243.389 100.048 243.372 100.147 243.393 100.24C243.414 100.334 243.471 100.416 243.552 100.468L247.862 103.209C247.943 103.26 248.042 103.277 248.135 103.257C248.229 103.236 248.311 103.178 248.363 103.097L250.376 99.9305C250.42 99.8612 250.487 99.809 250.565 99.7824C250.643 99.7558 250.727 99.7564 250.805 99.784C252.235 100.285 253.737 100.549 255.252 100.565C255.334 100.566 255.414 100.594 255.478 100.645C255.542 100.697 255.587 100.769 255.606 100.849L256.421 104.511C256.442 104.605 256.499 104.687 256.58 104.738C256.662 104.79 256.76 104.807 256.854 104.787L261.841 103.676C261.935 103.655 262.017 103.598 262.069 103.517C262.12 103.435 262.138 103.337 262.117 103.243L261.302 99.5807C261.284 99.5002 261.294 99.4162 261.33 99.3422C261.367 99.2683 261.427 99.2089 261.501 99.1736C262.866 98.5159 264.115 97.6397 265.197 96.5795C265.256 96.5215 265.332 96.4851 265.414 96.4762C265.496 96.4672 265.578 96.4863 265.648 96.5302L268.814 98.5435C268.895 98.5948 268.993 98.6119 269.087 98.591C269.181 98.5701 269.263 98.513 269.314 98.432L272.057 94.1204C272.082 94.0801 272.1 94.0352 272.108 93.9882C272.116 93.9411 272.115 93.893 272.105 93.8464C272.094 93.7998 272.075 93.7556 272.048 93.7166C272.02 93.6775 271.985 93.6442 271.945 93.6185L268.778 91.6047C268.709 91.5603 268.657 91.4937 268.63 91.4158C268.604 91.3379 268.605 91.2533 268.632 91.1759C269.133 89.7457 269.397 88.2433 269.414 86.728C269.414 86.6457 269.442 86.5659 269.494 86.5016C269.545 86.4374 269.617 86.3925 269.697 86.3742L273.358 85.5591C273.452 85.5382 273.533 85.4812 273.585 85.4005C273.637 85.3198 273.655 85.2219 273.635 85.1281ZM257.431 94.4181C255.857 94.8228 254.197 94.7446 252.668 94.1937C251.139 93.6428 249.81 92.6446 248.856 91.3289C247.901 90.0132 247.364 88.4407 247.314 86.8157C247.264 85.1907 247.704 83.5883 248.576 82.2165C249.449 80.8448 250.714 79.7672 252.206 79.1237C253.699 78.4801 255.351 78.3004 256.947 78.6079C258.543 78.9153 260.01 79.6957 261.157 80.8477C262.304 81.9997 263.078 83.4701 263.378 85.0678C263.759 87.0903 263.357 89.182 262.252 90.9185C261.148 92.655 259.424 93.9062 257.431 94.4181Z" fill="#F6CE3E"/>
<path d="M272.095 97.5752C272.095 97.5752 272.704 94.1056 270.197 93.8187C268.614 93.6377 264.637 91.4376 263.882 93.2762C263.227 94.8717 267.026 96.7706 268.386 97.1226C269.605 97.4372 272.095 97.5752 272.095 97.5752Z" fill="#E98862"/>
<path d="M271.052 94.0949C271.052 94.0949 267.82 92.3226 266.936 92.364C266.153 92.4006 267.485 93.9152 267.485 93.9152L271.052 94.0949Z" fill="#E98862"/>
<path d="M282.489 108.522C281.859 108.522 281.246 108.315 280.746 107.932L267.453 97.7736L270.94 93.2091L281.348 101.163L287.914 86.4583L293.158 88.8008L285.111 106.821C284.885 107.327 284.517 107.757 284.051 108.059C283.586 108.361 283.044 108.522 282.489 108.522V108.522Z" fill="#005D83"/>
<path d="M285.282 84.0579C285.282 84.0579 283.245 82.9777 283.7 77.4305L279.492 76.6512C279.492 76.6512 279.965 81.6246 277.836 83.2038L285.282 84.0579Z" fill="#E98862"/>
<g opacity="0.15">
<path d="M278.698 82.1629L282.195 79.4878L279.449 79.4594C279.37 80.3994 279.115 81.3163 278.698 82.1629Z" fill="black"/>
</g>
<path d="M286.088 75.2797C285.796 76.9629 284.878 78.5565 283.394 79.0997C281.776 79.7419 280.025 79.9784 278.295 79.7886C273.688 79.4108 274.6 68.9345 276.787 66.8991C278.974 64.8637 285.393 66.1528 286.173 69.5565C286.577 71.3174 286.365 73.6777 286.088 75.2797Z" fill="#E98862"/>
<path d="M274.03 70.7325C274.03 70.7325 274.932 63.2862 283.109 65.115C284.432 65.4657 285.609 66.2266 286.471 67.2885C286.796 66.6263 287.312 66.0767 287.952 65.7106C288.593 65.3444 289.328 65.1784 290.063 65.234C290.799 65.2896 291.5 65.5643 292.078 66.0226C292.656 66.4809 293.084 67.1018 293.305 67.8053C293.527 68.5088 293.533 69.2626 293.322 69.9696C293.112 70.6765 292.694 71.3041 292.124 71.7716C291.553 72.239 290.856 72.5248 290.122 72.5921C289.387 72.6594 288.65 72.5051 288.004 72.1491C287.996 72.2545 287.988 72.3625 287.977 72.4713C287.477 77.0817 283.64 79.3903 283.64 79.3903C283.64 79.3903 282.611 78.6102 282.977 71.1614C281.201 71.3129 277.138 71.5316 274.03 70.7325Z" fill="#0F1011"/>
<path d="M279.497 73.9839C279.708 73.9839 279.879 73.813 279.879 73.6022C279.879 73.3914 279.708 73.2205 279.497 73.2205C279.287 73.2205 279.116 73.3914 279.116 73.6022C279.116 73.813 279.287 73.9839 279.497 73.9839Z" fill="#11100F"/>
<path d="M276.487 73.7367C276.698 73.7367 276.869 73.5658 276.869 73.355C276.869 73.1442 276.698 72.9733 276.487 72.9733C276.276 72.9733 276.105 73.1442 276.105 73.355C276.105 73.5658 276.276 73.7367 276.487 73.7367Z" fill="#11100F"/>
<path d="M275.826 72.542C275.778 72.5423 275.732 72.5236 275.698 72.4902C275.665 72.4567 275.645 72.4112 275.645 72.3636C275.645 72.3161 275.664 72.2703 275.697 72.2365C275.73 72.2026 275.776 72.1835 275.823 72.1832L276.834 72.1705H276.837C276.884 72.1703 276.93 72.1889 276.964 72.2223C276.998 72.2558 277.017 72.3013 277.017 72.3489C277.017 72.3965 276.999 72.4422 276.965 72.4761C276.932 72.5099 276.886 72.5291 276.839 72.5294L275.828 72.542H275.826Z" fill="#11100F"/>
<path d="M280.322 72.9106C280.308 72.9106 280.294 72.9089 280.28 72.9056L279.283 72.6659C279.26 72.6606 279.238 72.6508 279.219 72.637C279.199 72.6232 279.183 72.6057 279.17 72.5855C279.158 72.5653 279.149 72.5429 279.146 72.5194C279.142 72.496 279.143 72.472 279.148 72.4489C279.154 72.4258 279.164 72.4041 279.178 72.3849C279.192 72.3657 279.21 72.3495 279.23 72.3373C279.25 72.325 279.273 72.3169 279.296 72.3134C279.32 72.31 279.344 72.3112 279.367 72.3171L280.364 72.5568C280.406 72.5671 280.444 72.5927 280.469 72.6287C280.494 72.6647 280.505 72.7086 280.5 72.7522C280.495 72.7957 280.474 72.8359 280.441 72.8651C280.408 72.8943 280.366 72.9105 280.322 72.9106Z" fill="#11100F"/>
<path d="M279.321 76.6084C279.321 76.6084 277.912 76.757 276.924 76.4119C276.924 76.4119 276.932 77.34 278.047 77.4314C279.162 77.5228 279.321 76.6084 279.321 76.6084Z" fill="white"/>
<path d="M281.484 74.5354C281.455 74.9597 281.595 75.3782 281.872 75.7004C282.15 76.0226 282.543 76.2227 282.967 76.2573C283.39 76.2919 283.811 76.1583 284.137 75.8854C284.463 75.6125 284.668 75.2222 284.709 74.7989C284.73 74.5864 284.708 74.3718 284.644 74.1679C284.581 73.9641 284.477 73.7751 284.339 73.6123C284.201 73.4495 284.031 73.3161 283.84 73.2201C283.65 73.1242 283.442 73.0676 283.229 73.0538C282.075 73.0171 281.556 73.6447 281.484 74.5354Z" fill="#E98862"/>
<g opacity="0.15">
<path d="M277.804 75.7191C277.836 75.7192 277.866 75.7079 277.89 75.6873C277.914 75.6667 277.93 75.6382 277.934 75.607C277.939 75.5758 277.932 75.5439 277.916 75.5172C277.899 75.4905 277.873 75.4708 277.843 75.4615L277.067 75.2231L277.61 74.0138C277.624 73.9819 277.625 73.9457 277.613 73.913C277.6 73.8803 277.575 73.8539 277.543 73.8396C277.512 73.8252 277.475 73.8242 277.443 73.8366C277.41 73.849 277.384 73.8739 277.369 73.9058L276.765 75.2513C276.758 75.2683 276.754 75.2868 276.754 75.3054C276.754 75.3241 276.758 75.3426 276.765 75.3596C276.773 75.3766 276.784 75.3918 276.798 75.4041C276.812 75.4165 276.829 75.4257 276.847 75.4312L277.765 75.7134C277.778 75.7172 277.791 75.7191 277.804 75.7191Z" fill="black"/>
</g>
<path d="M184.12 181.152H173.827C172.039 178.797 168.899 174.049 170.927 172.018C171.849 171.096 172.866 171.973 173.809 173.546C173.482 170.466 173.809 167.526 175.95 166.667C177.899 165.885 178.768 168.243 179.105 171.404C180.067 169.608 181.328 168.343 182.977 168.44C185.332 168.583 184.763 171.726 183.386 175.206C184.431 174.41 185.524 174.02 186.591 174.368C188.822 175.098 186.736 178.23 184.12 181.152Z" fill="#8DDBE0"/>
<path d="M183.583 192.235H174.091L172.502 181.152H185.172L183.583 192.235Z" fill="#C1D8ED"/>
</g>
<defs>
<clipPath id="clip0_813_752">
<rect width="215" height="157.932" fill="white" transform="translate(94 42.0339)"/>
</clipPath>
</defs>
</svg>
