<svg width="403" height="242" viewBox="0 0 403 242" fill="none" xmlns="http://www.w3.org/2000/svg">
<rect width="403" height="242" fill="#F6CE3E"/>
<path opacity="0.1" d="M286.12 186.206C306.204 186.206 312.323 170.133 306.536 150.448C303.264 139.316 295.697 124.759 283.335 118.171C249.505 100.143 254.064 99.2771 245.689 80.0882C232.018 48.7635 179.449 47.5547 157.969 70.0012C141.256 87.4664 134.104 112.088 111.333 130.228C83.848 152.126 91.3446 186.523 117.746 186.523L286.12 186.206Z" fill="#367CFF"/>
<path d="M308.61 167.223H96.7725L108.964 141.758H296.418L308.61 167.223Z" fill="#292A2E"/>
<path d="M308.61 167.223H96.7725L108.964 141.758H296.418L308.61 167.223Z" fill="white"/>
<path d="M308.61 167.447H96.7737C96.7347 167.447 96.6964 167.437 96.6622 167.419C96.6281 167.401 96.5992 167.375 96.5783 167.343C96.5574 167.311 96.5451 167.274 96.5427 167.237C96.5402 167.199 96.5477 167.161 96.5643 167.127L108.755 141.662C108.774 141.624 108.803 141.591 108.84 141.568C108.877 141.546 108.92 141.534 108.964 141.534H296.418C296.462 141.533 296.505 141.546 296.542 141.568C296.579 141.591 296.609 141.624 296.628 141.662L308.82 167.127C308.836 167.161 308.844 167.199 308.841 167.236C308.839 167.274 308.827 167.31 308.806 167.342C308.786 167.374 308.757 167.4 308.723 167.419C308.689 167.437 308.651 167.447 308.612 167.447H308.61ZM97.1364 166.998H308.246L296.272 141.982H109.111L97.1364 166.998Z" fill="#292A2E"/>
<path d="M217.341 133.232H196.826V148.281H217.341V133.232Z" fill="#292A2E"/>
<path opacity="0.64" d="M217.341 133.232H196.826V141.272H217.341V133.232Z" fill="#0C0C0C"/>
<path d="M250.655 73.5264H163.512C162.141 73.5264 161.03 74.6046 161.03 75.9346V134.947C161.03 136.277 162.141 137.355 163.512 137.355H250.655C252.026 137.355 253.137 136.277 253.137 134.947V75.9346C253.137 74.6046 252.026 73.5264 250.655 73.5264Z" fill="#292A2E"/>
<path d="M249.43 76.2618H164.737C164.175 76.2618 163.719 76.7044 163.719 77.2503V126.193C163.719 126.739 164.175 127.181 164.737 127.181H249.43C249.992 127.181 250.448 126.739 250.448 126.193V77.2503C250.448 76.7044 249.992 76.2618 249.43 76.2618Z" fill="white"/>
<path d="M221.609 147.044H192.558C191.814 147.044 191.212 147.629 191.212 148.351C191.212 149.072 191.814 149.657 192.558 149.657H221.609C222.353 149.657 222.955 149.072 222.955 148.351C222.955 147.629 222.353 147.044 221.609 147.044Z" fill="#292A2E"/>
<path d="M192.715 84.3953H188.858C188.835 84.3961 188.812 84.3924 188.791 84.3844C188.769 84.3765 188.75 84.3644 188.733 84.3489C188.717 84.3334 188.703 84.3148 188.694 84.2942C188.685 84.2737 188.681 84.2515 188.681 84.2292C188.681 84.2069 188.685 84.1847 188.694 84.1642C188.703 84.1436 188.717 84.125 188.733 84.1095C188.75 84.094 188.769 84.0819 188.791 84.0739C188.812 84.066 188.835 84.0623 188.858 84.0631H192.715C192.76 84.0647 192.801 84.0829 192.832 84.1138C192.863 84.1448 192.88 84.1862 192.88 84.2292C192.88 84.2722 192.863 84.3136 192.832 84.3445C192.801 84.3755 192.76 84.3937 192.715 84.3953Z" fill="#292A2E"/>
<path d="M186.077 84.3953H184.617C184.594 84.3961 184.571 84.3924 184.55 84.3844C184.528 84.3765 184.509 84.3644 184.492 84.3489C184.476 84.3334 184.462 84.3148 184.453 84.2942C184.444 84.2737 184.44 84.2515 184.44 84.2292C184.44 84.2069 184.444 84.1847 184.453 84.1642C184.462 84.1436 184.476 84.125 184.492 84.1095C184.509 84.094 184.528 84.0819 184.55 84.0739C184.571 84.066 184.594 84.0623 184.617 84.0631H186.077C186.1 84.0623 186.123 84.066 186.144 84.0739C186.166 84.0819 186.185 84.094 186.202 84.1095C186.218 84.125 186.232 84.1436 186.241 84.1642C186.25 84.1847 186.254 84.2069 186.254 84.2292C186.254 84.2515 186.25 84.2737 186.241 84.2942C186.232 84.3148 186.218 84.3334 186.202 84.3489C186.185 84.3644 186.166 84.3765 186.144 84.3844C186.123 84.3924 186.1 84.3961 186.077 84.3953Z" fill="#B7DCE1"/>
<path d="M186.076 87.3931H184.617C184.572 87.3931 184.528 87.3756 184.496 87.3444C184.464 87.3132 184.446 87.271 184.446 87.2269C184.446 87.1828 184.464 87.1405 184.496 87.1094C184.528 87.0782 184.572 87.0607 184.617 87.0607H186.076C186.122 87.0607 186.165 87.0782 186.198 87.1094C186.23 87.1405 186.248 87.1828 186.248 87.2269C186.248 87.271 186.23 87.3132 186.198 87.3444C186.165 87.3756 186.122 87.3931 186.076 87.3931Z" fill="#B7DCE1"/>
<path d="M186.076 90.3909H184.617C184.572 90.3909 184.528 90.3734 184.496 90.3423C184.464 90.3111 184.446 90.2688 184.446 90.2247C184.446 90.1807 184.464 90.1384 184.496 90.1072C184.528 90.076 184.572 90.0585 184.617 90.0585H186.076C186.122 90.0585 186.165 90.076 186.198 90.1072C186.23 90.1384 186.248 90.1807 186.248 90.2247C186.248 90.2688 186.23 90.3111 186.198 90.3423C186.165 90.3734 186.122 90.3909 186.076 90.3909Z" fill="#B7DCE1"/>
<path d="M186.076 93.3888H184.617C184.572 93.3888 184.528 93.3712 184.496 93.3401C184.464 93.3089 184.446 93.2666 184.446 93.2225C184.446 93.1785 184.464 93.1362 184.496 93.105C184.528 93.0738 184.572 93.0563 184.617 93.0563H186.076C186.122 93.0563 186.165 93.0738 186.198 93.105C186.23 93.1362 186.248 93.1785 186.248 93.2225C186.248 93.2666 186.23 93.3089 186.198 93.3401C186.165 93.3712 186.122 93.3888 186.076 93.3888Z" fill="#B7DCE1"/>
<path d="M186.077 96.3863H184.617C184.594 96.3871 184.571 96.3835 184.55 96.3755C184.528 96.3675 184.509 96.3554 184.492 96.3399C184.476 96.3244 184.462 96.3058 184.453 96.2852C184.444 96.2647 184.44 96.2426 184.44 96.2202C184.44 96.1979 184.444 96.1758 184.453 96.1552C184.462 96.1347 184.476 96.1161 184.492 96.1006C184.509 96.0851 184.528 96.073 184.55 96.065C184.571 96.057 184.594 96.0533 184.617 96.0541H186.077C186.1 96.0533 186.123 96.057 186.144 96.065C186.166 96.073 186.185 96.0851 186.202 96.1006C186.218 96.1161 186.232 96.1347 186.241 96.1552C186.25 96.1758 186.254 96.1979 186.254 96.2202C186.254 96.2426 186.25 96.2647 186.241 96.2852C186.232 96.3058 186.218 96.3244 186.202 96.3399C186.185 96.3554 186.166 96.3675 186.144 96.3755C186.123 96.3835 186.1 96.3871 186.077 96.3863Z" fill="#B7DCE1"/>
<path d="M186.076 99.3833H184.617C184.572 99.3833 184.528 99.3657 184.496 99.3346C184.464 99.3034 184.446 99.2611 184.446 99.2171C184.446 99.173 184.464 99.1307 184.496 99.0995C184.528 99.0684 184.572 99.0508 184.617 99.0508H186.076C186.122 99.0508 186.165 99.0684 186.198 99.0995C186.23 99.1307 186.248 99.173 186.248 99.2171C186.248 99.2611 186.23 99.3034 186.198 99.3346C186.165 99.3657 186.122 99.3833 186.076 99.3833Z" fill="#B7DCE1"/>
<path d="M186.076 102.382H184.617C184.572 102.382 184.528 102.364 184.496 102.333C184.464 102.302 184.446 102.26 184.446 102.216C184.446 102.172 184.464 102.129 184.496 102.098C184.528 102.067 184.572 102.05 184.617 102.05H186.076C186.122 102.05 186.165 102.067 186.198 102.098C186.23 102.129 186.248 102.172 186.248 102.216C186.248 102.26 186.23 102.302 186.198 102.333C186.165 102.364 186.122 102.382 186.076 102.382Z" fill="#B7DCE1"/>
<path d="M186.077 105.38H184.617C184.594 105.38 184.571 105.377 184.55 105.369C184.528 105.361 184.509 105.349 184.492 105.333C184.476 105.318 184.462 105.299 184.453 105.278C184.444 105.258 184.44 105.236 184.44 105.213C184.44 105.191 184.444 105.169 184.453 105.148C184.462 105.128 184.476 105.109 184.492 105.094C184.509 105.078 184.528 105.066 184.55 105.058C184.571 105.05 184.594 105.047 184.617 105.047H186.077C186.1 105.047 186.123 105.05 186.144 105.058C186.166 105.066 186.185 105.078 186.202 105.094C186.218 105.109 186.232 105.128 186.241 105.148C186.25 105.169 186.254 105.191 186.254 105.213C186.254 105.236 186.25 105.258 186.241 105.278C186.232 105.299 186.218 105.318 186.202 105.333C186.185 105.349 186.166 105.361 186.144 105.369C186.123 105.377 186.1 105.38 186.077 105.38Z" fill="#B7DCE1"/>
<path d="M186.076 108.378H184.617C184.572 108.378 184.528 108.36 184.496 108.329C184.464 108.298 184.446 108.256 184.446 108.212C184.446 108.168 184.464 108.125 184.496 108.094C184.528 108.063 184.572 108.045 184.617 108.045H186.076C186.122 108.045 186.165 108.063 186.198 108.094C186.23 108.125 186.248 108.168 186.248 108.212C186.248 108.256 186.23 108.298 186.198 108.329C186.165 108.36 186.122 108.378 186.076 108.378Z" fill="#B7DCE1"/>
<path d="M186.076 111.375H184.617C184.572 111.375 184.528 111.358 184.496 111.327C184.464 111.295 184.446 111.253 184.446 111.209C184.446 111.165 184.464 111.123 184.496 111.091C184.528 111.06 184.572 111.043 184.617 111.043H186.076C186.122 111.043 186.165 111.06 186.198 111.091C186.23 111.123 186.248 111.165 186.248 111.209C186.248 111.253 186.23 111.295 186.198 111.327C186.165 111.358 186.122 111.375 186.076 111.375Z" fill="#B7DCE1"/>
<path d="M186.077 114.373H184.617C184.594 114.374 184.571 114.37 184.55 114.362C184.528 114.354 184.509 114.342 184.492 114.326C184.476 114.311 184.462 114.292 184.453 114.272C184.444 114.251 184.44 114.229 184.44 114.207C184.44 114.184 184.444 114.162 184.453 114.142C184.462 114.121 184.476 114.103 184.492 114.087C184.509 114.072 184.528 114.059 184.55 114.051C184.571 114.044 184.594 114.04 184.617 114.041H186.077C186.1 114.04 186.123 114.044 186.144 114.051C186.166 114.059 186.185 114.072 186.202 114.087C186.218 114.103 186.232 114.121 186.241 114.142C186.25 114.162 186.254 114.184 186.254 114.207C186.254 114.229 186.25 114.251 186.241 114.272C186.232 114.292 186.218 114.311 186.202 114.326C186.185 114.342 186.166 114.354 186.144 114.362C186.123 114.37 186.1 114.374 186.077 114.373Z" fill="#B7DCE1"/>
<path d="M186.076 117.371H184.617C184.572 117.371 184.528 117.353 184.496 117.322C184.464 117.291 184.446 117.249 184.446 117.204C184.446 117.16 184.464 117.118 184.496 117.087C184.528 117.056 184.572 117.038 184.617 117.038H186.076C186.122 117.038 186.165 117.056 186.198 117.087C186.23 117.118 186.248 117.16 186.248 117.204C186.248 117.249 186.23 117.291 186.198 117.322C186.165 117.353 186.122 117.371 186.076 117.371Z" fill="#B7DCE1"/>
<path d="M186.076 120.368H184.617C184.572 120.368 184.528 120.351 184.496 120.32C184.464 120.289 184.446 120.246 184.446 120.202C184.446 120.158 184.464 120.116 184.496 120.085C184.528 120.054 184.572 120.036 184.617 120.036H186.076C186.122 120.036 186.165 120.054 186.198 120.085C186.23 120.116 186.248 120.158 186.248 120.202C186.248 120.246 186.23 120.289 186.198 120.32C186.165 120.351 186.122 120.368 186.076 120.368Z" fill="#B7DCE1"/>
<path d="M186.077 123.366H184.617C184.594 123.367 184.571 123.363 184.55 123.355C184.528 123.347 184.509 123.335 184.492 123.32C184.476 123.304 184.462 123.286 184.453 123.265C184.444 123.244 184.44 123.222 184.44 123.2C184.44 123.178 184.444 123.156 184.453 123.135C184.462 123.114 184.476 123.096 184.492 123.08C184.509 123.065 184.528 123.053 184.55 123.045C184.571 123.037 184.594 123.033 184.617 123.034H186.077C186.1 123.033 186.123 123.037 186.144 123.045C186.166 123.053 186.185 123.065 186.202 123.08C186.218 123.096 186.232 123.114 186.241 123.135C186.25 123.156 186.254 123.178 186.254 123.2C186.254 123.222 186.25 123.244 186.241 123.265C186.232 123.286 186.218 123.304 186.202 123.32C186.185 123.335 186.166 123.347 186.144 123.355C186.123 123.363 186.1 123.367 186.077 123.366Z" fill="#B7DCE1"/>
<path d="M195.797 87.3931H192.284C192.261 87.3939 192.238 87.3902 192.216 87.3823C192.195 87.3743 192.175 87.3622 192.159 87.3467C192.142 87.3312 192.129 87.3126 192.12 87.292C192.111 87.2715 192.106 87.2493 192.106 87.227C192.106 87.2047 192.111 87.1825 192.12 87.162C192.129 87.1414 192.142 87.1228 192.159 87.1073C192.175 87.0918 192.195 87.0797 192.216 87.0717C192.238 87.0638 192.261 87.0601 192.284 87.0609H195.797C195.82 87.0601 195.843 87.0638 195.865 87.0717C195.886 87.0797 195.906 87.0918 195.923 87.1073C195.939 87.1228 195.952 87.1414 195.961 87.162C195.97 87.1825 195.975 87.2047 195.975 87.227C195.975 87.2493 195.97 87.2715 195.961 87.292C195.952 87.3126 195.939 87.3312 195.923 87.3467C195.906 87.3622 195.886 87.3743 195.865 87.3823C195.843 87.3902 195.82 87.3939 195.797 87.3931Z" fill="#292A2E"/>
<path d="M192.715 105.38H188.858C188.835 105.38 188.812 105.377 188.791 105.369C188.769 105.361 188.75 105.349 188.733 105.333C188.717 105.318 188.703 105.299 188.694 105.278C188.685 105.258 188.681 105.236 188.681 105.213C188.681 105.191 188.685 105.169 188.694 105.148C188.703 105.128 188.717 105.109 188.733 105.094C188.75 105.078 188.769 105.066 188.791 105.058C188.812 105.05 188.835 105.047 188.858 105.047H192.715C192.76 105.049 192.801 105.067 192.832 105.098C192.863 105.129 192.88 105.17 192.88 105.213C192.88 105.256 192.863 105.298 192.832 105.329C192.801 105.36 192.76 105.378 192.715 105.38Z" fill="#292A2E"/>
<path d="M195.798 108.378H192.284C192.238 108.378 192.195 108.36 192.163 108.329C192.131 108.298 192.113 108.256 192.113 108.212C192.113 108.168 192.131 108.125 192.163 108.094C192.195 108.063 192.238 108.045 192.284 108.045H195.798C195.843 108.045 195.887 108.063 195.919 108.094C195.951 108.125 195.969 108.168 195.969 108.212C195.969 108.256 195.951 108.298 195.919 108.329C195.887 108.36 195.843 108.378 195.798 108.378Z" fill="#292A2E"/>
<path d="M220.286 90.3909H194.681C194.635 90.3909 194.592 90.3734 194.56 90.3422C194.528 90.311 194.51 90.2688 194.51 90.2247C194.51 90.1806 194.528 90.1383 194.56 90.1072C194.592 90.076 194.635 90.0585 194.681 90.0585H220.286C220.332 90.0585 220.375 90.076 220.407 90.1072C220.44 90.1383 220.458 90.1806 220.458 90.2247C220.458 90.2688 220.44 90.311 220.407 90.3422C220.375 90.3734 220.332 90.3909 220.286 90.3909Z" fill="#292A2E"/>
<path d="M238.811 90.3909H223.994C223.948 90.3909 223.905 90.3734 223.873 90.3422C223.841 90.311 223.823 90.2688 223.823 90.2247C223.823 90.1806 223.841 90.1383 223.873 90.1072C223.905 90.076 223.948 90.0585 223.994 90.0585H238.811C238.857 90.0585 238.9 90.076 238.933 90.1072C238.965 90.1383 238.983 90.1806 238.983 90.2247C238.983 90.2688 238.965 90.311 238.933 90.3422C238.9 90.3734 238.857 90.3909 238.811 90.3909Z" fill="#0CBC8B"/>
<path d="M246.763 90.3909H242.222C242.176 90.3909 242.133 90.3734 242.101 90.3422C242.069 90.311 242.051 90.2688 242.051 90.2247C242.051 90.1806 242.069 90.1383 242.101 90.1072C242.133 90.076 242.176 90.0585 242.222 90.0585H246.763C246.809 90.0585 246.852 90.076 246.885 90.1072C246.917 90.1383 246.935 90.1806 246.935 90.2247C246.935 90.2688 246.917 90.311 246.885 90.3422C246.852 90.3734 246.809 90.3909 246.763 90.3909H246.763Z" fill="#292A2E"/>
<path d="M230.561 96.3863H194.681C194.658 96.3871 194.635 96.3835 194.613 96.3755C194.592 96.3675 194.572 96.3554 194.556 96.3399C194.539 96.3244 194.526 96.3058 194.517 96.2852C194.508 96.2647 194.503 96.2426 194.503 96.2202C194.503 96.1979 194.508 96.1758 194.517 96.1552C194.526 96.1347 194.539 96.1161 194.556 96.1006C194.572 96.0851 194.592 96.073 194.613 96.065C194.635 96.057 194.658 96.0533 194.681 96.0541H230.561C230.584 96.0533 230.607 96.057 230.629 96.065C230.65 96.073 230.67 96.0851 230.686 96.1006C230.703 96.1161 230.716 96.1347 230.725 96.1552C230.734 96.1758 230.739 96.1979 230.739 96.2202C230.739 96.2426 230.734 96.2647 230.725 96.2852C230.716 96.3058 230.703 96.3244 230.686 96.3399C230.67 96.3554 230.65 96.3675 230.629 96.3755C230.607 96.3835 230.584 96.3871 230.561 96.3863Z" fill="#292A2E"/>
<path d="M238.811 96.3863H234.27C234.247 96.3871 234.224 96.3835 234.202 96.3755C234.181 96.3675 234.161 96.3554 234.145 96.3399C234.128 96.3244 234.115 96.3058 234.106 96.2852C234.097 96.2647 234.092 96.2426 234.092 96.2202C234.092 96.1979 234.097 96.1758 234.106 96.1552C234.115 96.1347 234.128 96.1161 234.145 96.1006C234.161 96.0851 234.181 96.073 234.202 96.065C234.224 96.057 234.247 96.0533 234.27 96.0541H238.812C238.835 96.0533 238.858 96.057 238.879 96.065C238.901 96.073 238.92 96.0851 238.937 96.1006C238.954 96.1161 238.967 96.1347 238.976 96.1552C238.985 96.1758 238.989 96.1979 238.989 96.2202C238.989 96.2426 238.985 96.2647 238.976 96.2852C238.967 96.3058 238.954 96.3244 238.937 96.3399C238.92 96.3554 238.901 96.3675 238.879 96.3755C238.858 96.3835 238.835 96.3871 238.812 96.3863H238.811Z" fill="#B7DCE1"/>
<path d="M198.538 93.3888H194.681C194.635 93.3888 194.592 93.3712 194.56 93.3401C194.528 93.3089 194.51 93.2666 194.51 93.2225C194.51 93.1785 194.528 93.1362 194.56 93.105C194.592 93.0738 194.635 93.0563 194.681 93.0563H198.538C198.583 93.0563 198.627 93.0738 198.659 93.105C198.691 93.1362 198.709 93.1785 198.709 93.2225C198.709 93.2666 198.691 93.3089 198.659 93.3401C198.627 93.3712 198.583 93.3888 198.538 93.3888Z" fill="#0CBC8B"/>
<path d="M228.537 93.3888H202.246C202.2 93.3888 202.157 93.3712 202.124 93.3401C202.092 93.3089 202.074 93.2666 202.074 93.2225C202.074 93.1785 202.092 93.1362 202.124 93.105C202.157 93.0738 202.2 93.0563 202.246 93.0563H228.537C228.582 93.0563 228.626 93.0738 228.658 93.105C228.69 93.1362 228.708 93.1785 228.708 93.2225C228.708 93.2666 228.69 93.3089 228.658 93.3401C228.626 93.3712 228.582 93.3888 228.537 93.3888Z" fill="#B7DCE1"/>
<path d="M246.793 93.3888H232.661C232.616 93.3888 232.572 93.3712 232.54 93.3401C232.508 93.3089 232.49 93.2666 232.49 93.2225C232.49 93.1785 232.508 93.1362 232.54 93.105C232.572 93.0738 232.616 93.0563 232.661 93.0563H246.793C246.838 93.0563 246.882 93.0738 246.914 93.105C246.946 93.1362 246.964 93.1785 246.964 93.2225C246.964 93.2666 246.946 93.3089 246.914 93.3401C246.882 93.3712 246.838 93.3888 246.793 93.3888Z" fill="#292A2E"/>
<path d="M220.286 99.3833H194.681C194.635 99.3833 194.592 99.3657 194.56 99.3346C194.528 99.3034 194.51 99.2611 194.51 99.2171C194.51 99.173 194.528 99.1307 194.56 99.0995C194.592 99.0684 194.635 99.0508 194.681 99.0508H220.286C220.332 99.0508 220.375 99.0684 220.407 99.0995C220.44 99.1307 220.458 99.173 220.458 99.2171C220.458 99.2611 220.44 99.3034 220.407 99.3346C220.375 99.3657 220.332 99.3833 220.286 99.3833Z" fill="#292A2E"/>
<path d="M231.961 99.3833H223.994C223.949 99.3833 223.905 99.3657 223.873 99.3346C223.841 99.3034 223.823 99.2611 223.823 99.2171C223.823 99.173 223.841 99.1307 223.873 99.0995C223.905 99.0684 223.949 99.0508 223.994 99.0508H231.961C232.007 99.0508 232.05 99.0684 232.082 99.0995C232.115 99.1307 232.133 99.173 232.133 99.2171C232.133 99.2611 232.115 99.3034 232.082 99.3346C232.05 99.3657 232.007 99.3833 231.961 99.3833Z" fill="#0CBC8B"/>
<path d="M246.763 99.3833H235.371C235.326 99.3833 235.282 99.3657 235.25 99.3346C235.218 99.3034 235.2 99.2611 235.2 99.2171C235.2 99.173 235.218 99.1307 235.25 99.0995C235.282 99.0684 235.326 99.0508 235.371 99.0508H246.763C246.808 99.0508 246.852 99.0684 246.884 99.0995C246.916 99.1307 246.934 99.173 246.934 99.2171C246.934 99.2611 246.916 99.3034 246.884 99.3346C246.852 99.3657 246.808 99.3833 246.763 99.3833Z" fill="#292A2E"/>
<path d="M198.538 102.382H194.681C194.635 102.382 194.592 102.364 194.56 102.333C194.528 102.302 194.51 102.26 194.51 102.216C194.51 102.172 194.528 102.129 194.56 102.098C194.592 102.067 194.635 102.05 194.681 102.05H198.538C198.583 102.05 198.627 102.067 198.659 102.098C198.691 102.129 198.709 102.172 198.709 102.216C198.709 102.26 198.691 102.302 198.659 102.333C198.627 102.364 198.583 102.382 198.538 102.382Z" fill="#B7DCE1"/>
<path d="M228.537 102.382H202.246C202.2 102.382 202.157 102.364 202.124 102.333C202.092 102.302 202.074 102.26 202.074 102.216C202.074 102.172 202.092 102.129 202.124 102.098C202.157 102.067 202.2 102.05 202.246 102.05H228.537C228.582 102.05 228.626 102.067 228.658 102.098C228.69 102.129 228.708 102.172 228.708 102.216C228.708 102.26 228.69 102.302 228.658 102.333C228.626 102.364 228.582 102.382 228.537 102.382Z" fill="#0CBC8B"/>
<path d="M219.601 114.373H193.996C193.95 114.373 193.907 114.355 193.875 114.324C193.843 114.293 193.824 114.251 193.824 114.207C193.824 114.163 193.843 114.12 193.875 114.089C193.907 114.058 193.95 114.041 193.996 114.041H219.601C219.646 114.041 219.69 114.058 219.722 114.089C219.754 114.12 219.772 114.163 219.772 114.207C219.772 114.251 219.754 114.293 219.722 114.324C219.69 114.355 219.646 114.373 219.601 114.373Z" fill="#292A2E"/>
<path d="M238.126 114.373H223.309C223.263 114.373 223.22 114.355 223.188 114.324C223.155 114.293 223.137 114.251 223.137 114.207C223.137 114.163 223.155 114.12 223.188 114.089C223.22 114.058 223.263 114.041 223.309 114.041H238.126C238.172 114.041 238.215 114.058 238.247 114.089C238.28 114.12 238.298 114.163 238.298 114.207C238.298 114.251 238.28 114.293 238.247 114.324C238.215 114.355 238.172 114.373 238.126 114.373Z" fill="#B7DCE1"/>
<path d="M204.704 111.375H193.996C193.95 111.375 193.907 111.358 193.875 111.327C193.843 111.295 193.824 111.253 193.824 111.209C193.824 111.165 193.843 111.123 193.875 111.091C193.907 111.06 193.95 111.043 193.996 111.043H204.704C204.749 111.043 204.793 111.06 204.825 111.091C204.857 111.123 204.875 111.165 204.875 111.209C204.875 111.253 204.857 111.295 204.825 111.327C204.793 111.358 204.749 111.375 204.704 111.375Z" fill="#0CBC8B"/>
<path d="M227.851 111.375H208.41C208.365 111.375 208.321 111.358 208.289 111.327C208.257 111.295 208.239 111.253 208.239 111.209C208.239 111.165 208.257 111.123 208.289 111.091C208.321 111.06 208.365 111.043 208.41 111.043H227.851C227.896 111.043 227.94 111.06 227.972 111.091C228.004 111.123 228.022 111.165 228.022 111.209C228.022 111.253 228.004 111.295 227.972 111.327C227.94 111.358 227.896 111.375 227.851 111.375Z" fill="#B7DCE1"/>
<path d="M246.108 111.375H231.976C231.931 111.375 231.887 111.358 231.855 111.327C231.823 111.295 231.805 111.253 231.805 111.209C231.805 111.165 231.823 111.123 231.855 111.091C231.887 111.06 231.931 111.043 231.976 111.043H246.108C246.153 111.043 246.197 111.06 246.229 111.091C246.261 111.123 246.279 111.165 246.279 111.209C246.279 111.253 246.261 111.295 246.229 111.327C246.197 111.358 246.153 111.375 246.108 111.375Z" fill="#292A2E"/>
<path d="M229.876 120.368H193.996C193.95 120.368 193.907 120.351 193.875 120.32C193.843 120.289 193.824 120.246 193.824 120.202C193.824 120.158 193.843 120.116 193.875 120.085C193.907 120.054 193.95 120.036 193.996 120.036H229.876C229.922 120.036 229.965 120.054 229.997 120.085C230.029 120.116 230.048 120.158 230.048 120.202C230.048 120.246 230.029 120.289 229.997 120.32C229.965 120.351 229.922 120.368 229.876 120.368Z" fill="#B7DCE1"/>
<path d="M240.438 120.368H233.584C233.539 120.368 233.495 120.351 233.463 120.32C233.431 120.289 233.413 120.246 233.413 120.202C233.413 120.158 233.431 120.116 233.463 120.085C233.495 120.054 233.539 120.036 233.584 120.036H240.438C240.483 120.036 240.527 120.054 240.559 120.085C240.591 120.116 240.609 120.158 240.609 120.202C240.609 120.246 240.591 120.289 240.559 120.32C240.527 120.351 240.483 120.368 240.438 120.368Z" fill="#292A2E"/>
<path d="M197.852 117.371H193.996C193.973 117.371 193.95 117.368 193.928 117.36C193.907 117.352 193.887 117.34 193.871 117.324C193.854 117.309 193.841 117.29 193.832 117.27C193.823 117.249 193.818 117.227 193.818 117.205C193.818 117.182 193.823 117.16 193.832 117.14C193.841 117.119 193.854 117.1 193.871 117.085C193.887 117.069 193.907 117.057 193.928 117.049C193.95 117.041 193.973 117.038 193.996 117.038H197.852C197.875 117.038 197.898 117.041 197.92 117.049C197.941 117.057 197.961 117.069 197.978 117.085C197.994 117.1 198.007 117.119 198.016 117.14C198.025 117.16 198.03 117.182 198.03 117.205C198.03 117.227 198.025 117.249 198.016 117.27C198.007 117.29 197.994 117.309 197.978 117.324C197.961 117.34 197.941 117.352 197.92 117.36C197.898 117.368 197.875 117.371 197.852 117.371Z" fill="#B7DCE1"/>
<path d="M227.851 117.371H201.56C201.537 117.371 201.514 117.368 201.493 117.36C201.471 117.352 201.452 117.34 201.435 117.324C201.418 117.309 201.405 117.29 201.396 117.27C201.387 117.249 201.383 117.227 201.383 117.205C201.383 117.182 201.387 117.16 201.396 117.14C201.405 117.119 201.418 117.1 201.435 117.085C201.452 117.069 201.471 117.057 201.493 117.049C201.514 117.041 201.537 117.038 201.56 117.038H227.851C227.874 117.038 227.897 117.041 227.919 117.049C227.94 117.057 227.96 117.069 227.976 117.085C227.993 117.1 228.006 117.119 228.015 117.14C228.024 117.16 228.029 117.182 228.029 117.205C228.029 117.227 228.024 117.249 228.015 117.27C228.006 117.29 227.993 117.309 227.976 117.324C227.96 117.34 227.94 117.352 227.919 117.36C227.897 117.368 227.874 117.371 227.851 117.371Z" fill="#292A2E"/>
<path d="M246.108 117.371H231.976C231.953 117.371 231.93 117.368 231.908 117.36C231.887 117.352 231.867 117.34 231.851 117.324C231.834 117.309 231.821 117.29 231.812 117.27C231.803 117.249 231.798 117.227 231.798 117.205C231.798 117.182 231.803 117.16 231.812 117.14C231.821 117.119 231.834 117.1 231.851 117.085C231.867 117.069 231.887 117.057 231.908 117.049C231.93 117.041 231.953 117.038 231.976 117.038H246.108C246.131 117.038 246.154 117.041 246.175 117.049C246.197 117.057 246.216 117.069 246.233 117.085C246.25 117.1 246.263 117.119 246.272 117.14C246.281 117.16 246.285 117.182 246.285 117.205C246.285 117.227 246.281 117.249 246.272 117.27C246.263 117.29 246.25 117.309 246.233 117.324C246.216 117.34 246.197 117.352 246.175 117.36C246.154 117.368 246.131 117.371 246.108 117.371Z" fill="#0CBC8B"/>
<path d="M219.601 123.366H193.996C193.95 123.366 193.907 123.349 193.875 123.318C193.843 123.286 193.824 123.244 193.824 123.2C193.824 123.156 193.843 123.114 193.875 123.082C193.907 123.051 193.95 123.034 193.996 123.034H219.601C219.646 123.034 219.69 123.051 219.722 123.082C219.754 123.114 219.772 123.156 219.772 123.2C219.772 123.244 219.754 123.286 219.722 123.318C219.69 123.349 219.646 123.366 219.601 123.366Z" fill="#0CBC8B"/>
<path d="M231.276 123.366H223.309C223.264 123.366 223.22 123.349 223.188 123.318C223.156 123.286 223.138 123.244 223.138 123.2C223.138 123.156 223.156 123.114 223.188 123.082C223.22 123.051 223.264 123.034 223.309 123.034H231.276C231.322 123.034 231.365 123.051 231.397 123.082C231.43 123.114 231.448 123.156 231.448 123.2C231.448 123.244 231.43 123.286 231.397 123.318C231.365 123.349 231.322 123.366 231.276 123.366Z" fill="#292A2E"/>
<path d="M246.078 123.366H234.686C234.641 123.366 234.597 123.349 234.565 123.318C234.533 123.286 234.515 123.244 234.515 123.2C234.515 123.156 234.533 123.114 234.565 123.082C234.597 123.051 234.641 123.034 234.686 123.034H246.078C246.123 123.034 246.167 123.051 246.199 123.082C246.231 123.114 246.249 123.156 246.249 123.2C246.249 123.244 246.231 123.286 246.199 123.318C246.167 123.349 246.123 123.366 246.078 123.366H246.078Z" fill="#B7DCE1"/>
<path d="M182.297 125.004C182.275 125.004 182.253 124.999 182.232 124.991C182.211 124.983 182.192 124.971 182.176 124.955C182.16 124.94 182.148 124.921 182.139 124.901C182.13 124.881 182.126 124.86 182.126 124.838V79.1627C182.126 79.1186 182.144 79.0764 182.176 79.0452C182.208 79.014 182.252 78.9965 182.297 78.9965C182.343 78.9965 182.386 79.014 182.418 79.0452C182.451 79.0764 182.469 79.1186 182.469 79.1627V124.838C182.469 124.86 182.464 124.881 182.456 124.901C182.447 124.921 182.434 124.94 182.418 124.955C182.402 124.971 182.384 124.983 182.363 124.991C182.342 124.999 182.32 125.004 182.297 125.004Z" fill="#292A2E"/>
<path d="M174.464 81.2382H167.047C167.002 81.2382 166.958 81.2207 166.926 81.1895C166.894 81.1583 166.876 81.1161 166.876 81.072C166.876 81.0279 166.894 80.9856 166.926 80.9544C166.958 80.9233 167.002 80.9058 167.047 80.9058H174.463C174.509 80.9058 174.552 80.9233 174.585 80.9544C174.617 80.9856 174.635 81.0279 174.635 81.072C174.635 81.1161 174.617 81.1583 174.585 81.1895C174.552 81.2207 174.509 81.2382 174.463 81.2382H174.464Z" fill="#292A2E"/>
<path d="M172.231 84.5157H167.047C167.024 84.5165 167.002 84.5128 166.98 84.5049C166.958 84.4969 166.939 84.4848 166.922 84.4693C166.906 84.4538 166.893 84.4352 166.884 84.4146C166.875 84.3941 166.87 84.372 166.87 84.3496C166.87 84.3273 166.875 84.3052 166.884 84.2846C166.893 84.264 166.906 84.2455 166.922 84.23C166.939 84.2144 166.958 84.2023 166.98 84.1944C167.002 84.1864 167.024 84.1827 167.047 84.1835H172.23C172.274 84.1851 172.316 84.2033 172.347 84.2343C172.377 84.2652 172.395 84.3066 172.395 84.3496C172.395 84.3926 172.377 84.434 172.347 84.465C172.316 84.4959 172.274 84.5141 172.23 84.5157H172.231Z" fill="#292A2E"/>
<path d="M176.787 87.7935H167.047C167.002 87.7935 166.958 87.776 166.926 87.7448C166.894 87.7136 166.876 87.6713 166.876 87.6273C166.876 87.5832 166.894 87.5409 166.926 87.5097C166.958 87.4786 167.002 87.4611 167.047 87.4611H176.786C176.832 87.4611 176.875 87.4786 176.908 87.5097C176.94 87.5409 176.958 87.5832 176.958 87.6273C176.958 87.6713 176.94 87.7136 176.908 87.7448C176.875 87.776 176.832 87.7935 176.786 87.7935H176.787Z" fill="#292A2E"/>
<path d="M178.604 91.071H170.473C170.45 91.0718 170.428 91.0681 170.406 91.0601C170.385 91.0521 170.365 91.04 170.348 91.0245C170.332 91.009 170.319 90.9904 170.31 90.9699C170.301 90.9493 170.296 90.9272 170.296 90.9049C170.296 90.8825 170.301 90.8604 170.31 90.8398C170.319 90.8193 170.332 90.8007 170.348 90.7852C170.365 90.7697 170.385 90.7576 170.406 90.7496C170.428 90.7416 170.45 90.7379 170.473 90.7388H178.604C178.627 90.7379 178.65 90.7416 178.672 90.7496C178.693 90.7576 178.713 90.7697 178.729 90.7852C178.746 90.8007 178.759 90.8193 178.768 90.8398C178.777 90.8604 178.782 90.8825 178.782 90.9049C178.782 90.9272 178.777 90.9493 178.768 90.9699C178.759 90.9904 178.746 91.009 178.729 91.0245C178.713 91.04 178.693 91.0521 178.672 91.0601C178.65 91.0681 178.627 91.0718 178.604 91.071Z" fill="#292A2E"/>
<path d="M174.673 94.3487H170.474C170.428 94.3487 170.385 94.3312 170.352 94.3C170.32 94.2689 170.302 94.2266 170.302 94.1825C170.302 94.1384 170.32 94.0961 170.352 94.065C170.385 94.0338 170.428 94.0163 170.474 94.0163H174.673C174.718 94.0163 174.762 94.0338 174.794 94.065C174.826 94.0961 174.844 94.1384 174.844 94.1825C174.844 94.2266 174.826 94.2689 174.794 94.3C174.762 94.3312 174.718 94.3487 174.673 94.3487Z" fill="#292A2E"/>
<path d="M177.889 97.6265H170.474C170.428 97.6265 170.385 97.609 170.352 97.5778C170.32 97.5466 170.302 97.5044 170.302 97.4603C170.302 97.4162 170.32 97.3739 170.352 97.3428C170.385 97.3116 170.428 97.2941 170.474 97.2941H177.889C177.934 97.2941 177.978 97.3116 178.01 97.3428C178.042 97.3739 178.06 97.4162 178.06 97.4603C178.06 97.5044 178.042 97.5466 178.01 97.5778C177.978 97.609 177.934 97.6265 177.889 97.6265Z" fill="#292A2E"/>
<path d="M172.766 100.904H167.047C167.002 100.904 166.958 100.887 166.926 100.855C166.894 100.824 166.876 100.782 166.876 100.738C166.876 100.694 166.894 100.651 166.926 100.62C166.958 100.589 167.002 100.572 167.047 100.572H172.766C172.811 100.572 172.855 100.589 172.887 100.62C172.919 100.651 172.937 100.694 172.937 100.738C172.937 100.782 172.919 100.824 172.887 100.855C172.855 100.887 172.811 100.904 172.766 100.904H172.766Z" fill="#292A2E"/>
<path d="M170.801 104.182H167.047C167.002 104.182 166.958 104.164 166.926 104.133C166.894 104.102 166.876 104.06 166.876 104.016C166.876 103.971 166.894 103.929 166.926 103.898C166.958 103.867 167.002 103.849 167.047 103.849H170.8C170.845 103.849 170.889 103.867 170.921 103.898C170.953 103.929 170.971 103.971 170.971 104.016C170.971 104.06 170.953 104.102 170.921 104.133C170.889 104.164 170.845 104.182 170.8 104.182H170.801Z" fill="#292A2E"/>
<path d="M185.844 80.5352V80.5951L187.984 81.366C188.015 81.3781 188.041 81.3988 188.059 81.4255C188.078 81.4522 188.087 81.4836 188.087 81.5156V81.5722C188.088 81.5972 188.081 81.6219 188.069 81.644C188.057 81.6661 188.039 81.6849 188.018 81.6985C187.996 81.7133 187.971 81.7226 187.945 81.7255C187.918 81.7284 187.892 81.7248 187.867 81.715L185.449 80.7976C185.419 80.786 185.393 80.7658 185.375 80.7398C185.356 80.7137 185.346 80.6829 185.346 80.6514V80.4821C185.346 80.4504 185.356 80.4194 185.374 80.3933C185.392 80.3672 185.419 80.3471 185.449 80.3358L187.867 79.4162C187.887 79.4096 187.908 79.4062 187.929 79.4061C187.96 79.4067 187.991 79.416 188.018 79.4328C188.04 79.447 188.057 79.4664 188.069 79.489C188.082 79.5117 188.088 79.5369 188.087 79.5624V79.6187C188.088 79.6504 188.078 79.6816 188.06 79.7078C188.042 79.734 188.015 79.754 187.984 79.765L185.844 80.5352Z" fill="#B7DCE1"/>
<path d="M190.087 78.7372L188.807 82.5425C188.796 82.5743 188.776 82.6021 188.748 82.6218C188.72 82.6415 188.687 82.6522 188.652 82.6522C188.628 82.6526 188.603 82.647 188.581 82.636C188.559 82.625 188.54 82.6088 188.526 82.589C188.51 82.5693 188.5 82.5465 188.495 82.5223C188.49 82.4981 188.491 82.4732 188.498 82.4494L189.779 78.6475C189.79 78.6153 189.811 78.5872 189.84 78.5671C189.868 78.547 189.902 78.5359 189.937 78.5353C189.962 78.5353 189.986 78.541 190.008 78.552C190.03 78.563 190.049 78.579 190.063 78.5986C190.079 78.6181 190.089 78.6409 190.093 78.6651C190.097 78.6892 190.095 78.7139 190.087 78.7372Z" fill="#B7DCE1"/>
<path d="M193.233 80.482V80.6514C193.233 80.6826 193.224 80.7133 193.206 80.7393C193.189 80.7654 193.163 80.7857 193.134 80.7976L190.712 81.715C190.688 81.7247 190.662 81.7282 190.636 81.7253C190.61 81.7224 190.586 81.7131 190.565 81.6984C190.543 81.6849 190.525 81.6662 190.512 81.6442C190.5 81.6221 190.493 81.5974 190.493 81.5722V81.5156C190.492 81.4831 190.502 81.4512 190.521 81.4244C190.54 81.3976 190.568 81.3772 190.599 81.366L192.74 80.5951V80.5352L190.599 79.764C190.568 79.7539 190.54 79.7343 190.521 79.7079C190.502 79.6816 190.492 79.65 190.493 79.6178V79.5615C190.493 79.5358 190.499 79.5106 190.512 79.488C190.525 79.4654 190.543 79.4461 190.565 79.4319C190.591 79.4151 190.622 79.4059 190.654 79.4052C190.673 79.4049 190.693 79.4084 190.712 79.4153L193.134 80.3349C193.164 80.3465 193.189 80.3669 193.207 80.3932C193.225 80.4196 193.234 80.4506 193.233 80.482Z" fill="#B7DCE1"/>
<path d="M105.267 186.586C103.871 186.586 102.495 186.258 101.257 185.631C100.019 185.004 98.9556 184.096 98.1571 182.985C97.3586 181.873 96.8486 180.591 96.6707 179.246C96.4928 177.902 96.6522 176.537 97.1353 175.265C97.6256 173.974 110.202 142.474 112.392 136.999L127.526 145.545C126.296 148.623 121.836 160.292 118.253 169.692L124.205 169.063L126.078 184.442L106.205 186.537C105.894 186.57 105.581 186.586 105.267 186.586Z" fill="#B7DCE1"/>
<path d="M154.77 130.449C154.717 130.443 153.26 135.761 141.894 134.933C134.025 134.361 132.107 129.164 131.926 129.164C132.775 128.989 134.152 128.807 134.529 128.612C135.768 127.966 136.671 127.18 137.125 125.492C137.48 124.172 137.661 119.091 137.661 116.542L149.77 119.183C149.601 122.058 148.42 128.724 152.56 129.904C153.249 130.098 153.991 130.278 154.77 130.449Z" fill="#E98862"/>
<path d="M149.35 124.835C144.577 125.2 138.445 123.245 137.28 117.065L136.23 111.489C135.065 105.31 137.466 99.7068 143.462 98.6427C149.458 97.5786 154.884 101.793 156.049 107.972L156.514 110.441C156.961 112.812 157.867 124.183 149.35 124.835Z" fill="#E98862"/>
<path d="M126.756 130.018C122.466 130.327 118.092 130.778 114.936 133.613C111.135 137.028 110.446 141.227 112.871 152.782C114.957 162.724 114.13 167.068 115.526 185.415C115.567 185.955 115.655 187.073 115.655 187.073L161.541 186.999C161.541 186.999 165.84 162.658 168.214 151.432C170.019 142.897 174.761 132.536 154.769 130.448C154.717 130.442 138.684 129.16 126.756 130.018Z" fill="#B7DCE1"/>
<path d="M115.656 187.185C115.626 187.185 115.597 187.174 115.576 187.154C115.554 187.134 115.541 187.107 115.54 187.078L114.102 150.858C114.102 150.843 114.104 150.829 114.109 150.815C114.115 150.801 114.123 150.788 114.133 150.778C114.143 150.767 114.156 150.758 114.169 150.752C114.183 150.746 114.198 150.742 114.213 150.742C114.229 150.74 114.244 150.742 114.259 150.747C114.273 150.752 114.286 150.76 114.298 150.77C114.309 150.78 114.318 150.793 114.324 150.806C114.33 150.82 114.333 150.835 114.333 150.85L115.771 187.069C115.772 187.099 115.761 187.128 115.741 187.149C115.72 187.171 115.691 187.184 115.66 187.185L115.656 187.185Z" fill="#0C0C0C"/>
<path d="M189.285 142.95L192.509 135.934C192.58 135.779 192.683 135.641 192.812 135.528C192.941 135.414 193.093 135.328 193.258 135.275C193.423 135.222 193.597 135.202 193.771 135.218C193.944 135.234 194.112 135.285 194.264 135.367C194.539 135.527 194.744 135.781 194.838 136.079C194.932 136.378 194.908 136.699 194.771 136.982L194.08 138.486L198.492 134.723C198.975 134.297 199.849 134.072 200.306 134.63C200.497 134.833 200.611 135.093 200.63 135.367C200.648 135.641 200.571 135.914 200.409 136.139C200.415 136.143 200.42 136.147 200.424 136.151C200.427 136.155 200.429 136.159 200.431 136.163L201.176 135.505C201.314 135.384 201.478 135.293 201.657 135.241C201.835 135.188 202.024 135.175 202.208 135.203C202.393 135.23 202.569 135.297 202.723 135.398C202.877 135.5 203.007 135.633 203.101 135.789C203.245 136.038 203.296 136.327 203.247 136.608C203.197 136.889 203.049 137.145 202.828 137.333L202.511 137.613C202.515 137.626 202.517 137.639 202.517 137.652C202.776 137.511 203.079 137.465 203.37 137.52C203.662 137.576 203.924 137.731 204.109 137.956C204.304 138.209 204.393 138.524 204.36 138.838C204.326 139.152 204.171 139.442 203.927 139.651L203.14 140.346C203.158 140.344 203.177 140.346 203.194 140.352C203.211 140.358 203.227 140.368 203.239 140.381C203.253 140.397 203.262 140.417 203.265 140.438C203.532 140.375 203.812 140.399 204.064 140.505C204.316 140.612 204.525 140.796 204.658 141.029C204.793 141.277 204.838 141.561 204.786 141.837C204.734 142.113 204.587 142.363 204.37 142.547L197.727 148.415C196.798 149.236 195.637 149.769 194.394 149.946C193.15 150.122 191.881 149.935 190.748 149.407C189.771 148.951 189.016 148.144 188.642 147.157C188.269 146.17 188.307 145.081 188.748 144.121L189.285 142.95Z" fill="#E98862"/>
<g opacity="0.2">
<path d="M196.06 139.885C196.081 139.906 196.109 139.919 196.139 139.921C196.17 139.922 196.199 139.912 196.222 139.893L200.413 136.309C200.436 136.289 200.45 136.261 200.452 136.231C200.454 136.202 200.444 136.172 200.423 136.15C200.403 136.128 200.374 136.114 200.344 136.112C200.313 136.11 200.283 136.12 200.26 136.14L196.069 139.724C196.058 139.734 196.048 139.746 196.042 139.759C196.035 139.772 196.031 139.787 196.03 139.801C196.029 139.816 196.031 139.831 196.036 139.845C196.041 139.859 196.049 139.872 196.059 139.883L196.06 139.885Z" fill="#0C0C0C"/>
</g>
<g opacity="0.2">
<path d="M197.638 141.722C197.659 141.743 197.687 141.756 197.717 141.758C197.748 141.759 197.777 141.749 197.8 141.73L202.477 137.73C202.489 137.72 202.498 137.708 202.505 137.695C202.511 137.682 202.515 137.668 202.516 137.653C202.517 137.638 202.515 137.623 202.51 137.609C202.505 137.596 202.498 137.583 202.488 137.572C202.467 137.55 202.438 137.537 202.408 137.535C202.378 137.533 202.348 137.543 202.324 137.562L197.647 141.562C197.636 141.571 197.626 141.583 197.62 141.596C197.613 141.61 197.609 141.624 197.608 141.639C197.607 141.653 197.609 141.668 197.614 141.682C197.619 141.696 197.627 141.709 197.637 141.72L197.638 141.722Z" fill="#0C0C0C"/>
</g>
<g opacity="0.2">
<path d="M199.336 143.721C199.356 143.743 199.385 143.756 199.415 143.757C199.445 143.759 199.475 143.749 199.498 143.729L203.229 140.538C203.252 140.519 203.266 140.491 203.267 140.461C203.269 140.432 203.259 140.402 203.239 140.38C203.218 140.358 203.19 140.344 203.159 140.342C203.129 140.341 203.099 140.351 203.076 140.37L199.345 143.561C199.333 143.571 199.324 143.583 199.317 143.596C199.311 143.609 199.307 143.623 199.306 143.638C199.305 143.653 199.307 143.668 199.312 143.681C199.317 143.695 199.324 143.708 199.334 143.719L199.336 143.721Z" fill="#0C0C0C"/>
</g>
<path d="M153.776 118.501C152.954 114.493 152.577 111.82 152.62 108.999C153.778 107.028 153.473 104.766 153.21 103.789C153.542 103.972 153.889 104.128 154.248 104.255C154.415 104.311 154.595 104.32 154.767 104.281C154.938 104.241 155.095 104.155 155.218 104.032C155.341 103.909 155.426 103.754 155.461 103.587C155.497 103.419 155.483 103.244 155.42 103.084C154.524 100.833 152.221 96.4588 147.466 94.993C146.27 94.541 143.213 93.9701 139.157 94.51C135.706 94.9694 127.893 98.146 126.678 107.438V107.443C126.638 107.752 125.128 115.64 123.499 119.748C121.31 125.27 118.237 126.986 118.315 133.357C118.415 141.553 133.942 142.644 143.308 142.031C152.675 141.418 157.902 138.43 157.97 132.523C158.043 125.905 155.42 126.52 153.776 118.501Z" fill="#0A0A0A"/>
<path d="M153.779 115.659C151.956 115.983 150.122 114.353 149.789 112.585C149.456 110.817 150.287 108.999 152.62 108.999L153.779 115.659Z" fill="#E98862"/>
<path d="M173.379 185.314C171.546 185.314 169.761 184.75 168.278 183.704C166.796 182.657 165.694 181.182 165.129 179.49L153.085 143.347L169.581 138.171L175.915 157.182L186.862 140.291L201.539 149.246L180.716 181.38C179.935 182.584 178.853 183.576 177.57 184.264C176.287 184.952 174.845 185.314 173.379 185.314Z" fill="#B7DCE1"/>
<path d="M163.661 175.334C163.653 175.334 163.646 175.333 163.639 175.332C163.609 175.327 163.583 175.31 163.565 175.285C163.548 175.261 163.541 175.231 163.547 175.201L167.641 153.637C167.644 153.622 167.649 153.608 167.658 153.596C167.666 153.583 167.677 153.573 167.689 153.564C167.702 153.556 167.716 153.55 167.731 153.547C167.745 153.544 167.761 153.544 167.776 153.546C167.791 153.549 167.805 153.555 167.818 153.563C167.83 153.571 167.841 153.581 167.85 153.593C167.859 153.605 167.865 153.619 167.868 153.633C167.871 153.648 167.871 153.663 167.868 153.677L163.774 175.243C163.769 175.268 163.755 175.292 163.734 175.308C163.714 175.325 163.687 175.334 163.661 175.334Z" fill="#0C0C0C"/>
<path d="M177.389 162.272C177.363 162.272 177.338 162.263 177.318 162.248C177.298 162.233 177.283 162.212 177.277 162.188L175.913 157.09C175.905 157.061 175.91 157.031 175.925 157.005C175.941 156.979 175.966 156.961 175.996 156.953C176.025 156.946 176.057 156.95 176.083 156.965C176.11 156.98 176.129 157.005 176.137 157.034L177.501 162.131C177.505 162.148 177.505 162.165 177.502 162.182C177.498 162.199 177.491 162.215 177.48 162.228C177.469 162.242 177.455 162.253 177.439 162.26C177.423 162.268 177.406 162.272 177.388 162.272H177.389Z" fill="#0C0C0C"/>
<path d="M270.174 161.417H224.98C224.698 161.417 224.418 161.358 224.16 161.246C223.902 161.133 223.672 160.969 223.484 160.764C223.296 160.559 223.156 160.317 223.071 160.055C222.987 159.793 222.96 159.517 222.994 159.245L224.203 149.453C224.261 148.982 224.496 148.547 224.862 148.232C225.228 147.917 225.7 147.743 226.19 147.743H270.174C270.705 147.743 271.213 147.948 271.589 148.312C271.964 148.676 272.175 149.169 272.175 149.684V159.476C272.175 159.991 271.964 160.484 271.589 160.848C271.213 161.212 270.705 161.417 270.174 161.417Z" fill="#292A2E"/>
<path d="M237.205 161.509L239.138 154.312C239.181 154.154 239.189 153.989 239.162 153.827C239.135 153.666 239.074 153.512 238.982 153.375C238.891 153.237 238.771 153.12 238.63 153.031C238.489 152.941 238.33 152.881 238.164 152.854C236.789 152.602 236.621 154.44 236.361 155.321L235.369 149.888C235.217 148.422 233.187 148.374 233.036 149.835C233.026 149.833 233.015 149.835 233.005 149.84C233.053 147.17 230.007 147.377 230.529 149.716C230.518 149.723 230.508 149.732 230.5 149.743C229.992 148.449 227.907 149.054 228.189 150.427L228.351 151.414C228.341 151.404 228.329 151.396 228.316 151.39C228.303 151.385 228.289 151.382 228.275 151.381C228.261 151.381 228.247 151.383 228.234 151.388C228.221 151.393 228.209 151.401 228.198 151.41C227.499 150.45 225.785 151.154 226.049 152.357L227.417 160.69C228.199 166.08 236.373 167.888 237.205 161.509Z" fill="#E98862"/>
<g opacity="0.2">
<path d="M233.992 155.217C233.692 155.189 233.049 150.118 232.929 149.96C232.924 149.931 232.93 149.902 232.947 149.879C232.964 149.855 232.99 149.839 233.02 149.834C233.049 149.829 233.079 149.836 233.103 149.852C233.128 149.869 233.144 149.894 233.149 149.922L234.084 155.09C234.087 155.105 234.087 155.119 234.083 155.133C234.08 155.147 234.074 155.161 234.065 155.172C234.057 155.184 234.046 155.194 234.033 155.202C234.021 155.209 234.007 155.214 233.992 155.217Z" fill="#0C0C0C"/>
</g>
<g opacity="0.2">
<path d="M231.653 155.68C231.624 155.685 231.595 155.678 231.571 155.661C231.547 155.644 231.531 155.619 231.526 155.591L230.481 149.823C230.476 149.795 230.483 149.765 230.5 149.742C230.517 149.718 230.543 149.702 230.572 149.697C230.879 149.67 231.625 155.432 231.747 155.553C231.75 155.568 231.749 155.582 231.746 155.596C231.743 155.611 231.737 155.624 231.728 155.636C231.719 155.648 231.708 155.658 231.695 155.666C231.682 155.673 231.668 155.678 231.653 155.68Z" fill="#0C0C0C"/>
</g>
<g opacity="0.2">
<path d="M229.124 156.197C229.095 156.201 229.066 156.194 229.042 156.177C229.018 156.161 229.002 156.135 228.998 156.107L228.163 151.506C228.159 151.478 228.167 151.45 228.184 151.427C228.201 151.404 228.226 151.389 228.255 151.384C228.284 151.379 228.313 151.385 228.337 151.401C228.361 151.417 228.378 151.441 228.384 151.469L229.218 156.07C229.221 156.084 229.22 156.099 229.217 156.113C229.214 156.127 229.208 156.141 229.199 156.152C229.19 156.164 229.179 156.174 229.166 156.182C229.154 156.19 229.139 156.195 229.124 156.197Z" fill="#0C0C0C"/>
</g>
<path d="M168.504 187.185H114.78L111.365 161.731C111.297 161.221 111.341 160.702 111.496 160.209C111.651 159.716 111.912 159.261 112.262 158.874C112.612 158.487 113.044 158.177 113.527 157.965C114.011 157.752 114.536 157.642 115.066 157.642H161.26C162.166 157.642 163.042 157.962 163.724 158.542C164.405 159.123 164.846 159.924 164.963 160.796L168.504 187.185Z" fill="white"/>
<path d="M165.243 160.762C165.115 159.824 164.641 158.963 163.908 158.339C163.176 157.714 162.235 157.369 161.26 157.366H115.066C114.559 157.367 114.056 157.461 113.585 157.642C113.385 157.718 113.193 157.811 113.009 157.918C112.336 158.308 111.795 158.879 111.453 159.563C111.111 160.247 110.982 161.013 111.083 161.767L114.495 187.185H115.066L111.647 161.698C111.584 161.226 111.625 160.746 111.768 160.291C111.911 159.836 112.152 159.415 112.475 159.057C112.799 158.7 113.197 158.413 113.644 158.217C114.091 158.02 114.576 157.918 115.066 157.918H161.26C162.097 157.92 162.904 158.217 163.533 158.752C164.163 159.288 164.57 160.027 164.681 160.832L168.218 187.185H168.791L165.243 160.762Z" fill="#292A2E"/>
<path d="M165.37 187.185H111.645L108.231 161.731C108.162 161.221 108.207 160.702 108.361 160.209C108.516 159.716 108.777 159.261 109.127 158.874C109.478 158.487 109.909 158.177 110.393 157.964C110.876 157.752 111.401 157.642 111.932 157.642H158.125C159.031 157.642 159.906 157.962 160.587 158.543C161.268 159.123 161.709 159.924 161.826 160.796L165.37 187.185Z" fill="#292A2E"/>
<path d="M162.108 160.762C162.029 160.178 161.815 159.618 161.481 159.126C161.147 158.633 160.702 158.22 160.18 157.918C159.996 157.811 159.804 157.719 159.605 157.642C159.134 157.46 158.632 157.367 158.125 157.366H111.932C111.36 157.366 110.796 157.484 110.275 157.713C109.755 157.941 109.29 158.275 108.913 158.692C108.536 159.108 108.255 159.598 108.089 160.128C107.923 160.659 107.875 161.218 107.949 161.767L111.359 187.185H111.932L108.513 161.698C108.45 161.226 108.491 160.746 108.633 160.291C108.776 159.836 109.017 159.415 109.341 159.057C109.664 158.7 110.063 158.413 110.51 158.217C110.957 158.02 111.441 157.918 111.932 157.918H158.125C158.961 157.92 159.769 158.217 160.398 158.752C161.027 159.288 161.435 160.027 161.546 160.832L165.083 187.185H165.656L162.108 160.762Z" fill="#292A2E"/>
<path d="M256.562 131.56C256.614 131.554 257.203 141.024 268.541 140.198C276.39 139.628 279.189 131.547 279.369 131.547C278.522 131.373 277.097 131.119 276.721 130.924C275.485 130.28 273.725 129.609 273.326 127.28C273.097 125.938 273.486 119.071 273.366 117.712L261.549 120.322C261.717 123.19 262.896 129.84 258.766 131.017C258.08 131.212 257.339 131.391 256.562 131.56Z" fill="#E98862"/>
<path d="M261.881 124.795C266.64 125.152 272.748 123.193 273.898 117.032L274.936 111.473C276.086 105.311 273.683 99.7309 267.705 98.6803C261.726 97.6294 256.326 101.839 255.176 108L254.716 110.461C254.573 111.308 254.491 112.165 254.468 113.023C254.391 115.292 254.283 118.743 255.439 121.278C256.532 123.672 258.843 124.568 261.881 124.795Z" fill="#E98862"/>
<path d="M272.552 98.3645C270.663 97.7929 268.704 97.4695 266.727 97.4029C266.535 96.6705 266.108 96.1019 265.48 95.8632C264.435 95.4669 263.158 96.1053 262.308 97.3351C261.836 96.6326 261.196 95.9996 260.348 95.7426C258.007 95.0353 257.891 98.2976 257.891 98.2976C257.891 98.2976 254.18 94.7444 254.064 99.2763C253.924 104.759 254.962 106.367 255.72 106.773C257.216 107.575 258.33 107.44 258.922 108.619C260.715 112.191 258.958 122.251 261.032 123.51C264.211 125.439 270.721 125.507 272.836 125.36C273.649 125.304 274.41 124.389 274.752 123.671C275.858 121.354 278.325 116.099 279.011 113.927C280.278 109.917 280.182 100.782 272.552 98.3645Z" fill="#0C0C0C"/>
<path d="M259.612 119.917C261.447 119.724 262.722 117.662 262.523 115.88C262.324 114.098 260.726 113.274 258.89 113.467L258.078 114.76L258.034 120.083L259.612 119.917Z" fill="#E98862"/>
<path d="M290.274 185.7L290.331 185.703C290.331 185.703 290.29 184.64 290.274 185.7Z" fill="#333333"/>
<path d="M240.262 152.515C240.62 156.6 242.364 182.086 242.708 187.118H290.193C290.461 182.58 291.666 162.736 292.683 153.861C293.654 145.392 295.559 141.152 294.162 138.649C291.881 134.557 285.645 132.192 281.394 131.634C278.797 131.293 278.262 131.048 277.204 131.048H258.921C257.183 131.048 246.08 132.674 243.805 134.297C237.506 138.791 239.501 143.858 240.262 152.515Z" fill="#005D83"/>
<path d="M300.332 186.851C301.728 186.851 303.104 186.524 304.343 185.897C305.581 185.27 306.645 184.362 307.443 183.25C308.242 182.138 308.752 180.855 308.93 179.511C309.108 178.167 308.948 176.801 308.465 175.529C307.974 174.238 296.473 144.687 294.284 139.211L278.072 145.585C279.303 148.664 283.763 160.334 287.347 169.734L281.393 169.106L279.52 185.831L299.394 186.802C299.705 186.835 300.018 186.851 300.332 186.851Z" fill="#005D83"/>
<path d="M291.08 154.032L289.913 187.114L290.228 187.125L291.395 154.043L291.08 154.032Z" fill="#0C0C0C"/>
<path d="M233.393 186.851C231.996 186.851 230.62 186.524 229.382 185.897C228.144 185.27 227.08 184.361 226.282 183.25C225.483 182.138 224.973 180.855 224.795 179.511C224.617 178.167 224.777 176.801 225.26 175.529C225.75 174.238 237.733 144.557 239.923 139.081L255.653 145.586C254.422 148.665 249.961 160.334 246.378 169.735L252.331 169.106L254.205 185.832L234.331 186.802C234.02 186.835 233.706 186.852 233.393 186.851Z" fill="#005D83"/>
<path d="M246.341 167.773C246.314 167.773 246.287 167.767 246.263 167.755C246.238 167.743 246.217 167.726 246.201 167.705C246.185 167.683 246.174 167.658 246.17 167.632C246.166 167.606 246.168 167.58 246.176 167.554L250.385 154.697C250.391 154.675 250.402 154.655 250.416 154.637C250.431 154.62 250.449 154.605 250.469 154.595C250.49 154.584 250.512 154.577 250.535 154.575C250.559 154.573 250.582 154.576 250.604 154.583C250.626 154.589 250.646 154.6 250.664 154.615C250.682 154.63 250.696 154.648 250.706 154.668C250.717 154.688 250.723 154.71 250.724 154.732C250.726 154.755 250.723 154.777 250.715 154.798L246.506 167.655C246.495 167.689 246.473 167.719 246.444 167.74C246.414 167.762 246.378 167.773 246.341 167.773Z" fill="#0C0C0C"/>
<path d="M300.276 161.731L296.86 187.185H243.137L246.679 160.796C246.796 159.924 247.236 159.123 247.917 158.543C248.598 157.963 249.473 157.643 250.38 157.642H296.573C297.104 157.642 297.629 157.752 298.113 157.964C298.597 158.176 299.028 158.486 299.379 158.873C299.729 159.26 299.99 159.715 300.145 160.208C300.3 160.701 300.345 161.22 300.276 161.731Z" fill="white"/>
<path d="M299.592 158.692C299.316 158.387 298.992 158.126 298.633 157.918C298.448 157.811 298.255 157.719 298.055 157.642C297.583 157.461 297.08 157.367 296.573 157.366H250.38C249.405 157.369 248.464 157.715 247.731 158.339C246.999 158.964 246.525 159.825 246.397 160.762L242.85 187.185H243.424L246.96 160.832C247.07 160.027 247.477 159.288 248.106 158.752C248.735 158.216 249.543 157.92 250.38 157.918H296.573C297.063 157.919 297.548 158.021 297.995 158.217C298.442 158.413 298.84 158.7 299.164 159.058C299.488 159.415 299.729 159.836 299.872 160.291C300.016 160.746 300.057 161.226 299.994 161.698L296.573 187.185H297.146L300.556 161.767C300.63 161.218 300.582 160.659 300.416 160.129C300.25 159.598 299.969 159.109 299.592 158.692Z" fill="#292A2E"/>
<path d="M303.41 161.731L299.994 187.185H246.271L249.813 160.796C249.898 160.165 250.153 159.567 250.551 159.062C250.95 158.556 251.48 158.162 252.085 157.918C252.538 157.735 253.024 157.641 253.514 157.642H299.71C300.24 157.642 300.765 157.752 301.248 157.965C301.732 158.177 302.163 158.487 302.513 158.874C302.864 159.261 303.125 159.716 303.28 160.209C303.434 160.702 303.479 161.221 303.41 161.731Z" fill="#292A2E"/>
<path d="M302.726 158.692C302.349 158.276 301.885 157.943 301.365 157.714C300.845 157.485 300.281 157.367 299.71 157.366H253.514C252.791 157.368 252.082 157.558 251.461 157.918C250.939 158.22 250.494 158.633 250.16 159.125C249.825 159.618 249.61 160.178 249.531 160.762L245.985 187.185H246.558L250.095 160.832C250.205 160.027 250.612 159.288 251.241 158.752C251.869 158.216 252.677 157.92 253.514 157.918H299.71C300.2 157.918 300.685 158.02 301.132 158.217C301.579 158.413 301.977 158.7 302.301 159.057C302.624 159.415 302.865 159.836 303.008 160.291C303.151 160.746 303.192 161.226 303.128 161.698L299.71 187.185H300.281L303.693 161.767C303.766 161.218 303.717 160.659 303.551 160.129C303.384 159.598 303.103 159.109 302.726 158.692Z" fill="#292A2E"/>
<path d="M96.7622 187.343H307.911C307.954 187.343 307.995 187.326 308.026 187.297C308.056 187.267 308.073 187.227 308.073 187.186C308.073 187.144 308.056 187.104 308.026 187.075C307.995 187.045 307.954 187.029 307.911 187.029H96.7622C96.7192 187.029 96.6781 187.045 96.6477 187.075C96.6174 187.104 96.6003 187.144 96.6003 187.186C96.6003 187.227 96.6174 187.267 96.6477 187.297C96.6781 187.326 96.7192 187.343 96.7622 187.343Z" fill="#292A2E"/>
<g opacity="0.65">
<path d="M96.7622 187.343H307.911C307.954 187.343 307.995 187.326 308.026 187.297C308.056 187.267 308.073 187.227 308.073 187.186C308.073 187.144 308.056 187.104 308.026 187.075C307.995 187.045 307.954 187.029 307.911 187.029H96.7622C96.7192 187.029 96.6781 187.045 96.6477 187.075C96.6174 187.104 96.6003 187.144 96.6003 187.186C96.6003 187.227 96.6174 187.267 96.6477 187.297C96.6781 187.326 96.7192 187.343 96.7622 187.343Z" fill="#292A2E"/>
</g>
<path d="M224.725 178.576L225.468 159.611L235.737 159.083L236.672 178.576H224.725Z" fill="#B7DCE1"/>
</svg>
