<svg width="403" height="242" viewBox="0 0 403 242" fill="none" xmlns="http://www.w3.org/2000/svg">
<rect width="403" height="242" fill="#F78F20"/>
<g clip-path="url(#clip0_813_845)">
<path d="M87.1798 192.17C82.2982 192.233 77.4121 191.831 71.8607 188.066C70.7219 187.294 69.5379 186.217 69.5791 184.838C69.6099 183.799 70.3774 182.892 71.3037 182.422C71.6498 182.251 72.0147 182.121 72.3909 182.035C72.3928 182.035 72.3949 182.035 72.3949 182.034C72.9758 181.909 73.5669 181.838 74.1607 181.821L74.33 181.815C77.1566 181.711 79.9831 182.026 82.718 182.75C82.9656 182.814 83.2278 182.793 83.4619 182.69C83.696 182.586 83.8881 182.406 84.007 182.179C84.1259 181.951 84.1646 181.691 84.1167 181.439C84.0688 181.187 83.9372 180.958 83.7433 180.791C83.3902 180.488 83.0072 180.222 82.6003 179.997C82.0033 179.674 81.3776 179.408 80.7314 179.202C79.8692 178.919 78.9778 178.707 78.0991 178.477C74.8334 177.628 71.6407 176.519 68.5516 175.16C66.3465 174.188 64.1253 173.036 62.6167 171.152C61.9238 170.286 61.3851 169.202 61.5212 168.1C61.7481 166.288 63.6893 165.172 65.4984 164.944C68.6693 164.547 71.7637 165.966 74.5864 167.465C76.9281 168.712 79.5438 170.085 82.0997 169.378C82.5422 169.279 82.946 169.051 83.2611 168.725C83.8389 168.055 83.6965 166.983 83.1809 166.264C82.6653 165.544 81.8645 165.095 81.093 164.665C76.6102 162.169 72.1338 159.512 68.5565 155.831C64.9793 152.15 62.3475 147.287 62.3442 142.146C62.3442 140.642 62.5773 139.104 63.2891 137.78C64.0008 136.455 65.2467 135.366 66.7239 135.095C68.7352 134.723 70.7158 135.883 72.2381 137.25C77.4677 141.941 79.5535 149.092 82.6424 155.408C83.5069 157.176 84.5073 158.952 86.1022 160.12C86.2511 160.234 86.4228 160.315 86.6056 160.356C87.6822 160.588 88.1526 159.262 88.2021 158.251C88.394 154.252 87.4119 150.069 88.8644 146.338C89.4193 144.917 90.4157 143.557 91.866 143.096C93.6381 142.533 95.6309 143.522 96.6953 145.05C97.7597 146.578 98.0465 148.519 98.0373 150.383C98.0208 153.839 97.0885 157.241 95.7187 160.411C94.9966 162.084 94.1302 163.818 94.3364 165.628C94.4182 166.239 94.6543 166.819 95.0226 167.313C95.3909 167.807 95.879 168.199 96.4406 168.451C96.701 168.562 96.9811 168.619 97.2642 168.62C97.5473 168.621 97.8276 168.565 98.0886 168.455C98.6518 168.213 99.081 167.745 99.4937 167.292C99.6668 167.102 99.8401 166.91 100.015 166.72C100.705 165.963 101.394 165.205 102.083 164.447C103.834 162.52 106.023 160.421 108.604 160.752C109.923 160.921 111.014 161.743 111.761 162.849C112.434 163.854 112.813 165.028 112.856 166.238C112.935 168.759 110.806 176.536 109.607 178.753C108.208 181.34 103.882 191.953 87.1798 192.17Z" fill="#8DDBE0"/>
<path d="M315.821 192.17C320.703 192.233 325.589 191.831 331.14 188.066C332.279 187.294 333.463 186.217 333.422 184.838C333.391 183.799 332.624 182.892 331.697 182.422C331.351 182.251 330.986 182.121 330.61 182.035C330.608 182.035 330.606 182.035 330.606 182.034C330.025 181.909 329.434 181.838 328.84 181.821L328.671 181.815C325.844 181.711 323.018 182.026 320.283 182.75C320.035 182.815 319.773 182.793 319.539 182.69C319.305 182.586 319.112 182.406 318.994 182.179C318.875 181.951 318.836 181.691 318.884 181.438C318.932 181.186 319.064 180.958 319.258 180.791C319.611 180.488 319.994 180.222 320.401 179.997C320.998 179.674 321.623 179.408 322.27 179.202C323.132 178.919 324.023 178.707 324.902 178.477C328.168 177.628 331.36 176.519 334.449 175.16C336.655 174.188 338.876 173.036 340.385 171.152C341.078 170.286 341.616 169.202 341.48 168.1C341.253 166.288 339.312 165.172 337.503 164.944C334.332 164.547 331.237 165.966 328.415 167.465C326.073 168.712 323.457 170.085 320.901 169.378C320.459 169.279 320.055 169.051 319.74 168.725C319.162 168.055 319.305 166.983 319.82 166.264C320.336 165.544 321.137 165.095 321.908 164.665C326.391 162.169 330.867 159.512 334.444 155.831C338.022 152.15 340.652 147.287 340.656 142.146C340.656 140.642 340.423 139.104 339.711 137.78C339 136.455 337.754 135.366 336.276 135.095C334.265 134.723 332.285 135.883 330.762 137.25C325.533 141.94 323.447 149.091 320.359 155.407C319.494 157.174 318.494 158.951 316.899 160.119C316.75 160.233 316.578 160.314 316.396 160.355C315.319 160.587 314.849 159.261 314.799 158.25C314.607 154.251 315.589 150.067 314.137 146.337C313.582 144.916 312.586 143.555 311.135 143.094C309.363 142.532 307.37 143.52 306.306 145.048C305.242 146.577 304.955 148.518 304.964 150.382C304.98 153.838 305.913 157.239 307.283 160.409C308.005 162.082 308.871 163.817 308.665 165.627C308.583 166.238 308.347 166.818 307.979 167.312C307.61 167.806 307.122 168.198 306.561 168.449C306.3 168.561 306.02 168.618 305.737 168.619C305.454 168.62 305.174 168.563 304.913 168.454C304.349 168.212 303.92 167.744 303.508 167.291C303.334 167.101 303.161 166.909 302.986 166.718C302.297 165.962 301.608 165.204 300.919 164.446C299.167 162.519 296.979 160.42 294.397 160.751C293.079 160.92 291.987 161.742 291.241 162.848C290.568 163.853 290.188 165.027 290.145 166.237C290.067 168.758 292.196 176.535 293.394 178.751C294.792 181.34 299.118 191.953 315.821 192.17Z" fill="#8DDBE0"/>
<path d="M310.846 186.526H91.2121C88.4646 186.526 86.2373 188.759 86.2373 191.513V191.513C86.2373 194.267 88.4646 196.5 91.2121 196.5H310.846C313.594 196.5 315.821 194.267 315.821 191.513V191.513C315.821 188.759 313.594 186.526 310.846 186.526Z" fill="#DEE8F5"/>
<path d="M293.06 45.5002H108.26C104.213 45.5002 100.933 48.7887 100.933 52.8452V180.802C100.933 184.859 104.213 188.147 108.26 188.147H293.06C297.107 188.147 300.388 184.859 300.388 180.802V52.8452C300.388 48.7887 297.107 45.5002 293.06 45.5002Z" fill="#DEE8F5"/>
<path d="M292.605 50.5093H108.715C106.926 50.5093 105.476 51.9632 105.476 53.7567V179.732C105.476 181.525 106.926 182.979 108.715 182.979H292.605C294.394 182.979 295.845 181.525 295.845 179.732V53.7567C295.845 51.9632 294.394 50.5093 292.605 50.5093Z" fill="white"/>
<path d="M197.407 56.9311H111.907V114.023H197.407V56.9311Z" fill="#F3F5FD"/>
<path d="M122.14 64.107H115.048V113.949H122.14V64.107Z" fill="#C1D8ED"/>
<path d="M122.139 113.949H145.38V64.107H122.139V113.949Z" fill="#DEE8F5"/>
<g opacity="0.53">
<path d="M123.187 112.91H144.332V95.4971H123.187V112.91Z" fill="#F3F5FD"/>
</g>
<g opacity="0.53">
<path d="M123.187 74.2251H144.332V65.1795H123.187V74.2251Z" fill="white"/>
</g>
<g opacity="0.53">
<path d="M123.187 84.3017H144.332V75.2561H123.187V84.3017Z" fill="white"/>
</g>
<g opacity="0.53">
<path d="M123.187 94.3783H144.332V85.3327H123.187V94.3783Z" fill="white"/>
</g>
<path d="M133.291 113.243H134.229V95.1963H133.291V113.243Z" fill="#DEE8F5"/>
<path d="M136.533 110.299C137.06 110.299 137.487 109.871 137.487 109.343C137.487 108.815 137.06 108.387 136.533 108.387C136.006 108.387 135.579 108.815 135.579 109.343C135.579 109.871 136.006 110.299 136.533 110.299Z" fill="white"/>
<path d="M130.986 110.299C131.513 110.299 131.94 109.871 131.94 109.343C131.94 108.815 131.513 108.387 130.986 108.387C130.46 108.387 130.032 108.815 130.032 109.343C130.032 109.871 130.46 110.299 130.986 110.299Z" fill="white"/>
<path d="M140.375 77.0644V78.4847V84.301H132.927V78.4847V77.0644H140.375Z" fill="#C1D8ED"/>
<path d="M142.635 78.4853H135.187V84.3019H142.635V78.4853Z" fill="#DEE8F5"/>
<path d="M142.635 78.4853H135.187V78.9212H142.635V78.4853Z" fill="#C1D8ED"/>
<path d="M135.187 78.4844H142.635V77.0642H135.187V78.4844Z" fill="#DEE8F5"/>
<path d="M138.102 80.5262H139.72C139.824 80.5262 139.908 80.4417 139.908 80.3374V79.8415C139.908 79.7373 139.824 79.6527 139.72 79.6527H138.102C137.998 79.6527 137.914 79.7373 137.914 79.8415V80.3374C137.914 80.4417 137.998 80.5262 138.102 80.5262Z" fill="white"/>
<path d="M132.022 78.0495V79.2767V84.3015H125.588V79.2767V78.0495H132.022Z" fill="#C1D8ED"/>
<path d="M134.131 79.2767H127.697V84.3017H134.131V79.2767Z" fill="#DEE8F5"/>
<path d="M134.131 79.2767H127.697V79.6534H134.131V79.2767Z" fill="#C1D8ED"/>
<path d="M127.697 79.2767H134.131V78.0497H127.697V79.2767Z" fill="#DEE8F5"/>
<path d="M130.215 81.0406H131.612C131.702 81.0406 131.775 80.9675 131.775 80.8775V80.4491C131.775 80.3591 131.702 80.2861 131.612 80.2861H130.215C130.125 80.2861 130.052 80.3591 130.052 80.4491V80.8775C130.052 80.9675 130.125 81.0406 130.215 81.0406Z" fill="white"/>
<path d="M143.843 68.5062L142.87 68.2756L141.65 73.4487L142.623 73.6794L143.843 68.5062Z" fill="white"/>
<path d="M141.799 67.8736L141.259 67.9735L142.095 72.5143L142.635 72.4144L141.799 67.8736Z" fill="#C1D8ED"/>
<path d="M141.799 67.872L141.259 67.9749L141.354 68.4757L141.894 68.3727L141.799 67.872Z" fill="#DEE8F5"/>
<path d="M143.473 69.0286L141.722 73.4839L142.022 73.6024L143.773 69.1471L143.473 69.0286Z" fill="#C1D8ED"/>
<path d="M143.855 70.9774H141.216V74.3587H143.855V70.9774Z" fill="#C1D8ED"/>
<path d="M139.82 68.3418H137.581V74.2929H139.82V68.3418Z" fill="#C1D8ED"/>
<path d="M137.805 67.5229H136.606V74.293H137.805V67.5229Z" fill="#DEE8F5"/>
<path d="M136.607 67.9051H134.742V74.293H136.607V67.9051Z" fill="white"/>
<path d="M130.22 67.9049H129.13V74.2929H130.22V67.9049Z" fill="#DEE8F5"/>
<path d="M132.358 68.3614L130.301 69.3653L132.686 74.274L134.742 73.2701L132.358 68.3614Z" fill="#DEE8F5"/>
<path d="M129.139 68.3779H126.899V74.329H129.139V68.3779Z" fill="#C1D8ED"/>
<path d="M127.123 67.559H125.925V74.329H127.123V67.559Z" fill="#DEE8F5"/>
<path d="M125.925 67.9413H124.061V74.3292H125.925V67.9413Z" fill="#C1D8ED"/>
<path d="M138.657 88.2748L137.616 87.9526L135.736 94.056L136.776 94.3783L138.657 88.2748Z" fill="#DEE8F5"/>
<path d="M127.255 88.4264H125.016V94.3775H127.255V88.4264Z" fill="#C1D8ED"/>
<path d="M128.229 87.6075H127.031V94.3775H128.229V87.6075Z" fill="white"/>
<path d="M130.093 87.9896H128.229V94.3775H130.093V87.9896Z" fill="#DEE8F5"/>
<path d="M135.706 87.9896H134.616V94.3775H135.706V87.9896Z" fill="#DEE8F5"/>
<path d="M134.535 89.4685L132.478 88.4646L130.093 93.3733L132.15 94.3772L134.535 89.4685Z" fill="white"/>
<path d="M139.209 91.1965C139.254 91.2783 139.33 91.3387 139.42 91.3644C139.51 91.3902 139.606 91.3792 139.688 91.3338C139.747 91.3141 139.809 91.3095 139.87 91.3204C139.931 91.3314 139.988 91.3575 140.036 91.3964C140.195 91.5156 140.306 91.6879 140.349 91.8821H142.205C142.212 91.7699 142.226 91.6584 142.248 91.5481C142.298 91.2472 142.44 90.9692 142.653 90.7521C142.704 90.6965 142.772 90.6598 142.847 90.648C142.889 90.6719 142.935 90.687 142.983 90.6923C143.031 90.6975 143.079 90.6929 143.126 90.6787C143.172 90.6645 143.214 90.6409 143.251 90.6095C143.288 90.5781 143.317 90.5395 143.339 90.4961C143.36 90.4527 143.372 90.4054 143.374 90.3571C143.377 90.3088 143.369 90.2605 143.352 90.2153C143.335 90.1701 143.309 90.1288 143.275 90.0941C143.242 90.0594 143.201 90.0319 143.157 90.0134C142.991 89.9447 142.807 89.9289 142.632 89.968C142.456 90.0072 142.297 90.0995 142.175 90.2324C142.08 90.3205 141.995 90.4186 141.921 90.525C141.949 90.3447 141.993 90.1672 142.052 89.9945C142.124 89.7764 142.254 89.5825 142.429 89.4347C142.5 89.3766 142.545 89.2933 142.556 89.2023C142.567 89.1112 142.542 89.0195 142.487 88.9465C142.431 88.8735 142.35 88.8249 142.259 88.8109C142.169 88.7969 142.077 88.8185 142.002 88.8714C141.717 89.1007 141.505 89.4074 141.39 89.7547C141.377 89.7899 141.366 89.8255 141.354 89.8616C141.135 89.3134 140.91 88.8494 140.456 88.5822C140.376 88.5388 140.282 88.5283 140.194 88.5529C140.106 88.5775 140.031 88.6354 139.984 88.7144C139.938 88.7933 139.924 88.8872 139.945 88.9763C139.967 89.0654 140.022 89.1427 140.098 89.1921C140.375 89.3552 140.541 89.7238 140.728 90.1968C140.522 89.9581 140.275 89.7583 139.998 89.6067C139.957 89.5814 139.912 89.5647 139.864 89.5577C139.817 89.5506 139.768 89.5533 139.722 89.5656C139.676 89.578 139.632 89.5996 139.594 89.6293C139.557 89.659 139.525 89.6961 139.502 89.7384C139.479 89.7806 139.465 89.8271 139.461 89.875C139.456 89.9229 139.462 89.9712 139.477 90.017C139.491 90.0628 139.515 90.1051 139.547 90.1412C139.579 90.1774 139.617 90.2067 139.661 90.2274C139.876 90.3462 140.066 90.5046 140.223 90.6943C140.084 90.6324 139.934 90.6022 139.782 90.6059C139.63 90.6095 139.482 90.647 139.346 90.7155C139.264 90.761 139.204 90.8373 139.178 90.9275C139.152 91.0177 139.163 91.1144 139.209 91.1965Z" fill="#8DDBE0"/>
<path d="M142.899 91.8824H139.619V92.8383H142.899V91.8824Z" fill="#DEE8F5"/>
<path d="M139.618 92.8382V93.8861C139.618 94.0164 139.67 94.1414 139.762 94.2335C139.854 94.3257 139.979 94.3774 140.109 94.3774H142.408C142.538 94.3774 142.663 94.3257 142.755 94.2335C142.847 94.1414 142.898 94.0164 142.899 93.8861V92.8382H139.618Z" fill="#C1D8ED"/>
<path d="M189.519 68.4272V93.8867H175.967V94.4343H175.357V93.8867H161.804V68.4272H189.519Z" fill="white"/>
<path d="M189.52 62.1195H161.804V93.8865H189.52V62.1195Z" fill="white"/>
<g opacity="0.78">
<path d="M170.047 79.9454H163.332V94.4343H170.047V79.9454Z" fill="#C1D8ED"/>
</g>
<g opacity="0.78">
<path d="M176.699 76.8429L183.233 74.8175V94.7118H176.699V76.8429Z" fill="#C1D8ED"/>
</g>
<path d="M169.492 82.6871L173.752 79.8657L177.739 82.6871V94.7118H169.492V82.6871Z" fill="#DEE8F5"/>
<path d="M189.512 85.6685H181.435V94.7118H189.512V85.6685Z" fill="#DEE8F5"/>
<path d="M164.73 89.3191H161.804V94.3592H164.73V89.3191Z" fill="#DEE8F5"/>
<path d="M189.519 80.8505H161.804V81.4629H189.519V80.8505Z" fill="#F3F5FD"/>
<path d="M189.519 74.213H161.804V74.8254H189.519V74.213Z" fill="#F3F5FD"/>
<path d="M189.519 87.4901H161.804V88.1026H189.519V87.4901Z" fill="#F3F5FD"/>
<path d="M175.967 68.4271H175.356V94.4342H175.967V68.4271Z" fill="#F3F5FD"/>
<path d="M191.475 93.8865H159.849V95.3469H191.475V93.8865Z" fill="#C1D8ED"/>
<path d="M191.475 60.6591H159.849V62.1195H191.475V60.6591Z" fill="#C1D8ED"/>
<path d="M189.52 67.1516H161.804V68.4277H189.52V67.1516Z" fill="#DEE8F5"/>
<path d="M189.52 65.4743H161.804V66.7504H189.52V65.4743Z" fill="#DEE8F5"/>
<path d="M189.52 63.797H161.804V65.0731H189.52V63.797Z" fill="#DEE8F5"/>
<path d="M189.52 62.1195H161.804V63.3956H189.52V62.1195Z" fill="#DEE8F5"/>
<path d="M137.149 71.2695C137.097 66.2379 139.081 63.1198 141.77 61.4078C144.425 59.7185 152.747 58.2481 155.903 64.3815C157.962 68.3829 157.149 69.8134 157.732 76.2225C158.316 82.6317 160.558 83.3041 162.829 91.0725C164.611 97.1661 154.627 100.401 145.979 100.121C137.332 99.8417 131.851 97.923 131.349 92.4102C130.629 84.4976 137.25 81.13 137.149 71.2695Z" fill="#0F1011"/>
<path d="M142.301 85.1811C142.301 85.1811 144.898 83.7698 144.25 76.65L149.634 75.5978C149.634 75.5978 149.087 81.9917 151.834 83.9949L142.301 85.1811Z" fill="#E98862"/>
<g opacity="0.15">
<path d="M150.717 82.6692L146.205 79.2745L149.724 79.2056C149.869 80.3917 150.157 81.6636 150.717 82.6692Z" fill="black"/>
</g>
<path d="M141.165 73.9153C141.558 76.0736 142.753 78.1101 144.662 78.7907C146.928 79.599 148.612 79.8527 151.205 79.6167C157.105 79.0772 155.814 65.6308 152.987 63.0428C150.16 60.4548 141.949 62.1844 140.987 66.5656C140.491 68.8315 140.791 71.8607 141.165 73.9153Z" fill="#E98862"/>
<path d="M149.591 72.1721C149.861 72.1721 150.08 71.9527 150.08 71.682C150.08 71.4112 149.861 71.1918 149.591 71.1918C149.321 71.1918 149.102 71.4112 149.102 71.682C149.102 71.9527 149.321 72.1721 149.591 72.1721Z" fill="#0F1011"/>
<path d="M153.447 71.8195C153.717 71.8195 153.936 71.6001 153.936 71.3294C153.936 71.0586 153.717 70.8392 153.447 70.8392C153.177 70.8392 152.958 71.0586 152.958 71.3294C152.958 71.6001 153.177 71.8195 153.447 71.8195Z" fill="#0F1011"/>
<path d="M154.283 70.2765L152.988 70.272C152.927 70.272 152.869 70.2477 152.826 70.2045C152.783 70.1613 152.758 70.1027 152.758 70.0417C152.758 69.9806 152.783 69.922 152.826 69.8788C152.869 69.8356 152.927 69.8113 152.988 69.8113L154.283 69.8158C154.344 69.8158 154.402 69.8401 154.445 69.8833C154.489 69.9265 154.513 69.985 154.513 70.0461C154.513 70.1072 154.489 70.1658 154.445 70.209C154.402 70.2522 154.344 70.2765 154.283 70.2765Z" fill="#0F1011"/>
<path d="M148.525 70.8033C148.469 70.8033 148.414 70.7828 148.372 70.7455C148.33 70.7082 148.303 70.6569 148.297 70.6011C148.29 70.5453 148.304 70.4889 148.335 70.4425C148.367 70.3962 148.415 70.3631 148.469 70.3495L149.744 70.0295C149.773 70.0215 149.804 70.0195 149.834 70.0236C149.865 70.0276 149.894 70.0377 149.92 70.0532C149.946 70.0687 149.969 70.0893 149.988 70.1137C150.006 70.1382 150.019 70.1661 150.027 70.1958C150.034 70.2255 150.035 70.2563 150.031 70.2866C150.026 70.3168 150.016 70.3459 150 70.372C149.984 70.3981 149.963 70.4207 149.938 70.4386C149.913 70.4566 149.885 70.4693 149.856 70.4762L148.581 70.7963C148.562 70.8009 148.544 70.8033 148.525 70.8033Z" fill="#0F1011"/>
<path d="M149.853 75.5414C149.853 75.5414 151.66 75.7158 152.921 75.2607C152.921 75.2607 152.921 76.4528 151.494 76.5824C150.068 76.7119 149.853 75.5414 149.853 75.5414Z" fill="white"/>
<path d="M145.086 68.2777C145.528 75.9273 144.009 81.7892 144.009 81.7892C144.009 81.7892 139.407 76.2478 138.712 70.3307C138.059 64.7845 142.111 61.4677 144.863 60.8244C155.322 58.3789 156.048 66.0259 156.048 66.0259C155.372 68.6345 143.954 70.253 143.954 70.253" fill="#0F1011"/>
<path d="M147.14 73.8179C147.188 74.3655 147.017 74.9096 146.665 75.3311C146.313 75.7527 145.809 76.0173 145.263 76.0673C144.716 76.1172 144.173 75.9483 143.751 75.5975C143.329 75.2467 143.062 74.7426 143.01 74.1955C142.98 73.9228 143.006 73.6469 143.085 73.3843C143.164 73.1217 143.295 72.8777 143.47 72.6669C143.645 72.4562 143.861 72.2829 144.104 72.1573C144.348 72.0318 144.614 71.9567 144.887 71.9364C146.364 71.8748 147.036 72.6747 147.14 73.8179Z" fill="#E98862"/>
<g opacity="0.15">
<path d="M151.785 74.3817C151.745 74.3816 151.706 74.3671 151.676 74.3409C151.645 74.3146 151.625 74.2782 151.619 74.2384C151.613 74.1985 151.621 74.1578 151.642 74.1235C151.663 74.0891 151.696 74.0635 151.734 74.0513L152.727 73.7357L152.016 72.1887C152.006 72.1684 151.999 72.1461 151.997 72.1231C151.995 72.1002 151.998 72.0771 152.006 72.0553C152.013 72.0335 152.025 72.0134 152.04 71.9963C152.055 71.9792 152.074 71.9654 152.095 71.9557C152.116 71.9461 152.138 71.9408 152.161 71.9402C152.184 71.9396 152.207 71.9437 152.228 71.9523C152.25 71.9608 152.269 71.9737 152.285 71.99C152.301 72.0063 152.314 72.0257 152.323 72.0471L153.112 73.7681C153.122 73.7898 153.128 73.8135 153.128 73.8375C153.128 73.8615 153.123 73.8852 153.114 73.9072C153.104 73.9291 153.09 73.9488 153.072 73.9648C153.054 73.9808 153.033 73.9928 153.01 74.0001L151.836 74.3734C151.82 74.3787 151.803 74.3815 151.785 74.3817Z" fill="black"/>
</g>
<path d="M177.732 88.1335C177.732 88.1335 178.27 84.1167 181.114 84.6756C182.908 85.0282 191.556 85.6758 191.588 86.4773C191.669 88.4597 183.746 87.9747 182.812 89.698L177.732 88.1335Z" fill="#E98862"/>
<path d="M180.082 84.6804C180.082 84.6804 184.234 83.8626 185.186 84.2159C186.03 84.5286 184.047 85.7264 184.047 85.7264L180.082 84.6804Z" fill="#E98862"/>
<path d="M167.589 110.981C167.535 110.981 167.482 110.981 167.428 110.977C166.859 110.95 166.306 110.774 165.825 110.468C165.344 110.163 164.95 109.737 164.682 109.233L154.118 89.36L160.29 86.6169L167.901 101.249L178.032 85.9797L183.516 89.6357L170.33 109.508C170.029 109.961 169.622 110.333 169.144 110.59C168.665 110.847 168.131 110.981 167.589 110.981Z" fill="#F6CE3E"/>
<path d="M160.806 114.024H133.828C134.544 111.924 134.938 109.728 134.998 107.51C135.003 107.314 135.005 107.115 135.005 106.913C134.99 105.787 134.86 104.667 134.618 103.568C133.727 99.2307 131.605 94.5287 131.725 90.5452C131.781 88.6468 132.349 86.9107 133.8 85.4553C135.338 83.9139 137.994 82.9185 141.232 82.9149C141.474 84.8077 152.941 84.8145 153.028 82.9583C153.466 82.9652 153.806 82.972 154.017 82.9819C158.112 83.1594 160.046 84.9845 160.847 87.6862C161.913 91.2761 160.979 96.413 160.461 101.291C160.305 102.756 160.187 104.198 160.171 105.566C160.109 108.4 160.322 111.232 160.806 114.024Z" fill="#F6CE3E"/>
<path d="M153.028 82.9579C152.941 84.8136 151.934 87.5435 148.827 87.7488C144.687 88.0223 141.475 84.8065 141.233 82.9135H141.243C145.319 82.914 150.651 82.9206 153.028 82.9579Z" fill="#E98862"/>
<path d="M147.079 110.84L146.205 114.024H133.828C133.827 114.027 133.826 114.03 133.825 114.033L133.793 114.024L128.514 112.568C128.089 112.451 127.692 112.249 127.346 111.975C127.001 111.701 126.713 111.361 126.501 110.973C126.289 110.586 126.157 110.16 126.112 109.72C126.067 109.281 126.111 108.837 126.24 108.414L131.726 90.5445L132.36 88.479L138.654 90.4199L134.619 103.567L133.533 107.105L134.999 107.509L147.079 110.84Z" fill="#F6CE3E"/>
<path d="M154.583 111.041C156.12 111.041 157.365 109.792 157.365 108.252C157.365 106.712 156.12 105.463 154.583 105.463C153.047 105.463 151.801 106.712 151.801 108.252C151.801 109.792 153.047 111.041 154.583 111.041Z" fill="#FD5D76"/>
<path d="M155.953 109.113H155.277C155.19 109.113 155.106 109.078 155.044 109.016C154.982 108.954 154.948 108.87 154.948 108.782V108.324C154.947 108.24 154.979 108.16 155.036 108.099C154.887 108.067 154.736 108.051 154.584 108.053C154.423 108.051 154.263 108.068 154.107 108.105C154.169 108.167 154.203 108.251 154.203 108.339V108.782C154.203 108.87 154.168 108.954 154.107 109.016C154.045 109.078 153.961 109.113 153.874 109.113H153.214C153.127 109.113 153.043 109.078 152.981 109.016C152.919 108.954 152.885 108.87 152.885 108.782C152.885 107.925 153.536 107.392 154.585 107.392C155.633 107.392 156.285 107.925 156.285 108.782C156.285 108.826 156.276 108.869 156.259 108.909C156.243 108.949 156.218 108.986 156.188 109.016C156.157 109.047 156.12 109.071 156.08 109.088C156.04 109.104 155.997 109.113 155.953 109.113Z" fill="white"/>
<path d="M147.152 110.224C148.239 110.224 149.119 109.341 149.119 108.252C149.119 107.163 148.239 106.28 147.152 106.28C146.066 106.28 145.185 107.163 145.185 108.252C145.185 109.341 146.066 110.224 147.152 110.224Z" fill="#8DDBE0"/>
<path d="M147.153 108.885C147.032 108.885 146.916 108.837 146.83 108.751C146.744 108.665 146.696 108.549 146.696 108.427V107.551C146.696 107.43 146.744 107.313 146.83 107.227C146.915 107.141 147.032 107.093 147.153 107.093C147.274 107.093 147.391 107.141 147.476 107.227C147.562 107.313 147.61 107.43 147.61 107.551V108.427C147.61 108.549 147.562 108.665 147.476 108.751C147.39 108.837 147.274 108.885 147.153 108.885Z" fill="white"/>
<path d="M147.153 109.364C147.141 109.364 147.129 109.361 147.118 109.356C147.106 109.352 147.096 109.345 147.087 109.336C147.079 109.328 147.072 109.317 147.067 109.306C147.063 109.295 147.06 109.283 147.06 109.271V108.434C147.06 108.409 147.07 108.386 147.087 108.368C147.105 108.351 147.128 108.341 147.153 108.341C147.178 108.341 147.201 108.351 147.219 108.368C147.236 108.386 147.246 108.409 147.246 108.434V109.271C147.246 109.283 147.243 109.295 147.239 109.306C147.234 109.317 147.227 109.328 147.219 109.336C147.21 109.345 147.2 109.352 147.189 109.357C147.177 109.361 147.165 109.364 147.153 109.364Z" fill="white"/>
<path d="M147.57 109.411H146.735C146.711 109.411 146.687 109.401 146.67 109.383C146.652 109.366 146.643 109.342 146.643 109.318C146.643 109.293 146.652 109.269 146.67 109.252C146.687 109.234 146.711 109.225 146.735 109.225H147.57C147.595 109.225 147.618 109.234 147.636 109.252C147.653 109.269 147.663 109.293 147.663 109.318C147.663 109.342 147.653 109.366 147.636 109.383C147.618 109.401 147.595 109.411 147.57 109.411Z" fill="white"/>
<path d="M162.014 110.224C163.101 110.224 163.981 109.341 163.981 108.252C163.981 107.163 163.101 106.28 162.014 106.28C160.928 106.28 160.047 107.163 160.047 108.252C160.047 109.341 160.928 110.224 162.014 110.224Z" fill="#0CBC8B"/>
<path d="M162.581 107.608H160.995V108.896H162.581V107.608Z" fill="white"/>
<path d="M163.035 108.791L162.472 108.227L163.035 107.664" fill="white"/>
<path d="M289.413 56.9312H203.913V114.023H289.413V56.9312Z" fill="#F3F5FD"/>
<path d="M247.747 86.2511V65.9202H223.111V86.2511H247.747Z" fill="#DEE8F5"/>
<path d="M246.049 84.5486V67.6227H224.81V84.5486H246.049Z" fill="white"/>
<path d="M238.788 79.9068V70.855H228.224V79.9068H238.788Z" fill="#C1D8ED"/>
<path d="M239.369 82.6962C241.172 82.6962 242.634 81.2311 242.634 79.4237C242.634 77.6164 241.172 76.1513 239.369 76.1513C237.566 76.1513 236.105 77.6164 236.105 79.4237C236.105 81.2311 237.566 82.6962 239.369 82.6962Z" fill="#DEE8F5"/>
<path d="M234.273 82.6964V75.3809H232.832V82.6964H234.273Z" fill="#F3F5FD"/>
<path d="M234.006 113.852C233.61 113.718 233.253 113.489 232.967 113.184C232.681 112.88 232.474 112.509 232.364 112.106C232.153 111.293 232.18 110.436 232.443 109.638C232.633 108.984 232.922 108.352 232.994 107.675C233.231 105.42 231.049 103.115 232.076 101.095C232.408 100.441 233.05 99.9306 233.165 99.2068C233.259 98.6078 232.965 98.0267 232.819 97.4367C232.705 97.0342 232.684 96.6108 232.757 96.1988C232.831 95.7869 232.997 95.3972 233.244 95.0594C233.768 94.4109 234.759 94.1275 235.481 94.5428C236.426 95.0856 236.507 96.4271 236.264 97.4912C236.022 98.5554 235.572 99.6502 235.868 100.701C236.151 101.702 237.071 102.456 237.236 103.483C237.373 104.337 236.958 105.17 236.775 106.016C236.488 107.344 236.78 108.722 236.793 110.081C236.805 111.44 236.423 112.964 234.006 113.852Z" fill="#8DDBE0"/>
<path d="M232.771 113.671C231.818 113.381 231.057 112.845 230.867 111.864C230.71 111.055 230.903 110.147 230.461 109.452C229.862 108.51 229.249 108.404 228.504 107.574C227.358 106.298 227.318 105.733 227.393 103.369C227.425 102.369 226.048 101.241 226.533 100.28C226.961 99.4341 228.259 99.4308 228.996 100.025C229.732 100.62 230.055 101.575 230.377 102.467C230.698 103.36 231.102 104.304 231.916 104.788C232.404 105.078 233.042 105.213 233.312 105.713C233.528 106.114 233.419 106.606 233.332 107.055C233.113 108.182 233.167 109.558 234.112 110.209C234.538 110.503 235.096 110.604 235.446 110.986C235.792 111.363 235.848 111.921 235.825 112.433" fill="#DEE8F5"/>
<path d="M242.605 99.6078C242.605 101.036 241.536 101.649 240.992 102.296C240.209 103.232 239.793 104.423 239.825 105.645C239.862 107.009 240.441 108.46 239.822 109.676C239.368 110.568 238.398 111.045 237.635 111.691C236.906 112.316 236.352 113.119 236.027 114.023H233.444C233.244 113.565 233.157 113.067 233.189 112.568C233.221 112.07 233.371 111.586 233.628 111.158C234.207 110.24 235.283 109.607 235.509 108.545C235.711 107.599 235.151 106.622 235.321 105.671C235.502 104.635 236.455 103.955 237.214 103.228C237.411 103.051 237.581 102.846 237.717 102.619C238.049 102.017 237.958 101.281 238.071 100.601C238.287 99.3033 239.356 98.1493 240.653 97.9345C241.791 97.7457 242.605 98.4018 242.605 99.6078Z" fill="#F3F5FD"/>
<path d="M237.579 112.527H230.72V114.023H237.579V112.527Z" fill="#0CBC8B"/>
<path d="M284.823 108.282H265.901L267.184 94.2893C267.215 93.9544 267.369 93.6432 267.617 93.4166C267.865 93.19 268.188 93.0644 268.524 93.0644H284.745C284.932 93.0644 285.117 93.1034 285.289 93.1791C285.46 93.2548 285.613 93.3654 285.739 93.5039C285.865 93.6424 285.961 93.8057 286.021 93.9835C286.08 94.1612 286.102 94.3494 286.085 94.5361L284.823 108.282Z" fill="#C1D8ED"/>
<path d="M268.022 101.741H255.158V113.275H268.022V101.741Z" fill="#C1D8ED"/>
<path d="M281.156 108.282H262.931L264.215 94.2893C264.245 93.9545 264.4 93.6433 264.647 93.4167C264.895 93.1901 265.219 93.0644 265.554 93.0644H281.077C281.264 93.0644 281.449 93.1034 281.62 93.1791C281.791 93.2548 281.945 93.3654 282.071 93.5039C282.197 93.6424 282.293 93.8057 282.352 93.9835C282.412 94.1612 282.434 94.3494 282.417 94.5361L281.156 108.282Z" fill="#DEE8F5"/>
<g opacity="0.48">
<path d="M281.156 108.282H262.931L264.215 94.2893C264.245 93.9545 264.4 93.6433 264.647 93.4167C264.895 93.1901 265.219 93.0644 265.554 93.0644H281.077C281.264 93.0644 281.449 93.1034 281.62 93.1791C281.791 93.2548 281.945 93.3654 282.071 93.5039C282.197 93.6424 282.293 93.8057 282.352 93.9835C282.412 94.1612 282.434 94.3494 282.417 94.5361L281.156 108.282Z" fill="#C1D8ED"/>
</g>
<path d="M287.588 103.654V113.301C287.589 113.549 287.541 113.795 287.447 114.024H274.724V101.742H285.681C286.187 101.742 286.672 101.943 287.029 102.302C287.387 102.66 287.588 103.147 287.588 103.654Z" fill="#C1D8ED"/>
<path d="M276.817 103.841V113.116C276.817 113.431 276.746 113.742 276.61 114.025H253.268C253.133 113.741 253.063 113.431 253.063 113.116V103.841C253.082 103.297 253.31 102.781 253.701 102.402C254.092 102.023 254.614 101.811 255.158 101.811C255.701 101.811 256.224 102.023 256.614 102.402C257.005 102.781 257.234 103.297 257.252 103.841V111.018H272.631V103.841C272.631 103.285 272.851 102.751 273.244 102.358C273.636 101.964 274.169 101.743 274.724 101.743C275.279 101.743 275.811 101.964 276.204 102.358C276.596 102.751 276.817 103.285 276.817 103.841Z" fill="#DEE8F5"/>
<path d="M256.155 106.875H272.659V111.364H256.155C255.8 111.364 255.46 111.222 255.209 110.971C254.958 110.719 254.817 110.378 254.817 110.022V108.216C254.817 107.86 254.958 107.519 255.209 107.268C255.46 107.016 255.8 106.875 256.155 106.875Z" fill="#F3F5FD"/>
<g opacity="0.15">
<path d="M256.155 106.875H272.659V111.364H256.155C255.8 111.364 255.46 111.222 255.209 110.971C254.958 110.719 254.817 110.378 254.817 110.022V108.216C254.817 107.86 254.958 107.519 255.209 107.268C255.46 107.016 255.8 106.875 256.155 106.875Z" fill="#C1D8ED"/>
</g>
<path d="M212.688 112.527H225.553V101.741H212.688V112.527Z" fill="#C1D8ED"/>
<path d="M217.778 108.281H203.913V93.0636H215.155C215.491 93.0633 215.814 93.1888 216.062 93.4155C216.31 93.6421 216.464 93.9535 216.495 94.2885L217.778 108.281Z" fill="#DEE8F5"/>
<g opacity="0.48">
<path d="M217.778 108.281H203.913V93.0636H215.155C215.491 93.0633 215.814 93.1888 216.062 93.4155C216.31 93.6421 216.464 93.9535 216.495 94.2885L217.778 108.281Z" fill="#C1D8ED"/>
</g>
<path d="M205.988 101.742V114.023H203.914V113.412C203.9 113.314 203.893 113.214 203.893 113.115V103.841C203.893 103.741 203.9 103.642 203.914 103.543V101.743L205.988 101.742Z" fill="#C1D8ED"/>
<path d="M227.645 103.841V113.116C227.646 113.43 227.576 113.741 227.44 114.024H204.099C203.963 113.741 203.892 113.43 203.892 113.116V103.841C203.892 103.741 203.899 103.642 203.913 103.543C203.992 103.021 204.264 102.547 204.676 102.217C205.087 101.887 205.608 101.724 206.134 101.762C206.66 101.799 207.152 102.034 207.513 102.42C207.874 102.805 208.076 103.312 208.08 103.841V111.018H223.459V103.841C223.459 103.284 223.68 102.751 224.072 102.357C224.465 101.964 224.997 101.743 225.552 101.743C226.107 101.743 226.64 101.964 227.032 102.357C227.425 102.751 227.645 103.284 227.645 103.841Z" fill="#DEE8F5"/>
<path d="M224.556 111.363H208.051V106.874H224.556C224.91 106.874 225.251 107.015 225.502 107.267C225.753 107.519 225.894 107.86 225.894 108.215V110.022C225.894 110.377 225.753 110.719 225.502 110.97C225.251 111.222 224.91 111.363 224.556 111.363Z" fill="#F3F5FD"/>
<g opacity="0.15">
<path d="M224.556 111.364H208.051V106.875H224.556C224.911 106.875 225.251 107.016 225.502 107.268C225.753 107.519 225.894 107.86 225.894 108.216V110.022C225.894 110.378 225.753 110.719 225.502 110.971C225.251 111.222 224.911 111.364 224.556 111.364Z" fill="#C1D8ED"/>
</g>
<path d="M254.11 85.9817C254.11 85.9817 251.251 84.5614 251.67 76.8521L245.818 75.9295C245.818 75.9295 246.66 82.8081 243.775 85.0785L254.11 85.9817Z" fill="#E98862"/>
<g opacity="0.15">
<path d="M244.928 83.6039L249.664 79.762L245.864 79.8269C245.754 81.1127 245.492 82.4966 244.928 83.6039Z" fill="black"/>
</g>
<path d="M254.892 73.7785C254.552 76.1235 253.342 78.3681 251.309 79.1783C248.896 80.1403 247.092 80.2503 244.281 80.3275C240.445 80.4327 240.462 76.4194 240.244 72.3816C240.025 68.3275 240.228 63.9669 241.706 62.5116C244.655 59.6069 253.585 61.1501 254.794 65.8393C255.419 68.2657 255.215 71.5469 254.892 73.7785Z" fill="#E98862"/>
<path d="M251.455 78.953C251.587 79.3377 251.676 79.5046 252.019 79.2874C253.366 78.4345 256.398 76.576 257.266 69.9008C258.043 63.9195 254.312 61.5639 251.365 60.7674C248.825 60.0811 242.941 60.0872 240.227 61.8294C237.888 63.3313 240.358 66.6078 240.358 66.6078C241.41 66.6276 241.647 67.5282 244.126 67.4593C246.043 67.4067 247.266 66.5136 249.062 66.5389C250.707 66.5625 251.072 67.5577 251.031 68.2015C250.785 72.1169 250.99 77.5927 251.455 78.953Z" fill="#0F1011"/>
<path d="M245.711 72.2309C246.002 72.2309 246.239 71.9939 246.239 71.7015C246.239 71.4092 246.002 71.1722 245.711 71.1722C245.419 71.1722 245.183 71.4092 245.183 71.7015C245.183 71.9939 245.419 72.2309 245.711 72.2309Z" fill="#0F1011"/>
<path d="M241.535 72.0027C241.827 72.0027 242.063 71.7657 242.063 71.4734C242.063 71.181 241.827 70.944 241.535 70.944C241.244 70.944 241.007 71.181 241.007 71.4734C241.007 71.7657 241.244 72.0027 241.535 72.0027Z" fill="#0F1011"/>
<path d="M240.583 70.3705C240.518 70.3702 240.456 70.3445 240.41 70.2989C240.364 70.2534 240.337 70.1915 240.336 70.1266C240.334 70.0616 240.359 69.9988 240.403 69.9514C240.447 69.9041 240.508 69.876 240.573 69.8732L241.971 69.8173C242.004 69.816 242.036 69.8211 242.067 69.8324C242.098 69.8437 242.126 69.8609 242.15 69.8831C242.174 69.9053 242.193 69.9319 242.207 69.9616C242.22 69.9913 242.228 70.0233 242.229 70.056C242.231 70.0886 242.225 70.1212 242.214 70.1519C242.203 70.1826 242.186 70.2107 242.164 70.2347C242.142 70.2587 242.115 70.2781 242.085 70.2918C242.056 70.3055 242.024 70.3132 241.991 70.3145L240.593 70.3702L240.583 70.3705Z" fill="#0F1011"/>
<path d="M246.818 70.711C246.8 70.7111 246.783 70.7092 246.766 70.7056L245.378 70.4108C245.346 70.4044 245.315 70.3917 245.288 70.3733C245.26 70.3549 245.237 70.3313 245.219 70.3038C245.201 70.2763 245.188 70.2455 245.182 70.2131C245.176 70.1807 245.176 70.1474 245.183 70.1152C245.19 70.083 245.203 70.0524 245.222 70.0253C245.24 69.9982 245.264 69.9751 245.292 69.9573C245.32 69.9395 245.351 69.9275 245.383 69.9218C245.415 69.9161 245.449 69.9169 245.481 69.9242L246.87 70.2189C246.93 70.2317 246.983 70.2663 247.019 70.3159C247.055 70.3656 247.071 70.4269 247.065 70.488C247.059 70.5491 247.03 70.6057 246.985 70.6469C246.939 70.6881 246.88 70.7109 246.819 70.711H246.818Z" fill="#0F1011"/>
<path d="M248.493 72.9216C248.461 73.5162 248.666 74.0994 249.062 74.5427C249.459 74.9861 250.015 75.2534 250.608 75.2858C251.201 75.3182 251.783 75.113 252.225 74.7155C252.668 74.3179 252.934 73.7605 252.967 73.1659C253.034 71.9278 252.089 70.8086 250.852 70.8023C249.254 70.7938 248.561 71.6835 248.493 72.9216Z" fill="#E98862"/>
<g opacity="0.15">
<path d="M243.442 74.7021C243.426 74.7021 243.409 74.6999 243.394 74.6955L242.112 74.3391C242.087 74.3322 242.064 74.32 242.044 74.3034C242.024 74.2869 242.008 74.2662 241.996 74.2429C241.985 74.2196 241.979 74.1942 241.978 74.1683C241.977 74.1424 241.982 74.1167 241.992 74.0927L242.777 72.2047C242.795 72.16 242.831 72.1245 242.876 72.1061C242.92 72.0876 242.97 72.0877 243.015 72.1063C243.06 72.1249 243.095 72.1605 243.113 72.2052C243.132 72.2499 243.132 72.3002 243.113 72.3449L242.407 74.0425L243.49 74.3436C243.532 74.3556 243.569 74.3824 243.593 74.4193C243.617 74.4562 243.627 74.5005 243.621 74.5442C243.615 74.5879 243.594 74.628 243.561 74.6571C243.528 74.6862 243.485 74.7024 243.441 74.7026L243.442 74.7021Z" fill="black"/>
</g>
<path d="M245.58 75.8773C245.58 75.8773 243.637 76.137 242.258 75.6959C242.258 75.6959 242.305 76.9823 243.849 77.0668C245.394 77.1513 245.58 75.8773 245.58 75.8773Z" fill="white"/>
<path d="M214.133 86.3897C214.133 86.3897 214.538 83.3702 215.046 83.3136C215.893 83.2192 216.633 87.3063 216.996 88.2041L213.013 89.4684" fill="#E98862"/>
<path d="M210.384 80.0358C209.162 80.4212 209.46 84.2856 210.833 87.6824C212.206 91.0792 214.282 93.4435 215.469 92.9614C216.657 92.4792 216.505 89.334 215.133 85.9362C213.761 82.5384 213.013 79.2065 210.384 80.0358Z" fill="#E98862"/>
<path d="M222.065 112.114C221.314 112.114 220.58 111.886 219.96 111.461C219.341 111.036 218.863 110.433 218.591 109.732L210.384 88.5719L217.332 85.8642L223.258 101.145L236.042 85.8838L241.752 90.6877L224.919 110.78C224.569 111.198 224.133 111.533 223.64 111.764C223.146 111.994 222.609 112.114 222.065 112.114Z" fill="#262626"/>
<path d="M261.26 107.688C261.254 109.837 261.565 111.975 262.181 114.033H235.204C235.586 111.48 235.753 108.9 235.701 106.319C235.592 96.8125 230.606 83.8719 241.95 83.3838C242.165 83.3732 242.511 83.3661 242.955 83.3602C243.043 85.2452 254.686 85.2381 254.933 83.3142C258.222 83.3177 260.921 84.329 262.484 85.8961C263.212 86.6144 263.772 87.4867 264.121 88.4494C265.55 92.3858 263.426 97.4504 262.135 102.278C261.634 104.141 261.26 105.973 261.26 107.688Z" fill="#262626"/>
<path d="M242.955 83.3602C243.044 85.2449 244.066 88.017 247.222 88.2261C251.427 88.5037 254.688 85.2381 254.934 83.3156H254.924C250.784 83.3156 245.369 83.3224 242.955 83.3602Z" fill="#E98862"/>
<path d="M273.499 114.033H265.981L265.392 109.63L262.136 102.277L257.344 91.4684L264.122 88.4476L264.157 88.4334L272.421 107.086C272.564 107.41 272.661 107.753 272.707 108.104L273.499 114.033Z" fill="#262626"/>
<path d="M246.59 111.04C248.126 111.04 249.372 109.792 249.372 108.252C249.372 106.712 248.126 105.463 246.59 105.463C245.053 105.463 243.808 106.712 243.808 108.252C243.808 109.792 245.053 111.04 246.59 111.04Z" fill="#FD5D76"/>
<path d="M247.96 109.112H247.285C247.197 109.112 247.113 109.078 247.052 109.016C246.99 108.954 246.955 108.87 246.955 108.782V108.324C246.955 108.24 246.986 108.16 247.043 108.099C246.895 108.066 246.743 108.051 246.591 108.053C246.431 108.051 246.271 108.068 246.114 108.105C246.145 108.136 246.169 108.172 246.186 108.212C246.202 108.252 246.211 108.295 246.211 108.339V108.782C246.211 108.87 246.176 108.954 246.114 109.016C246.052 109.078 245.969 109.112 245.881 109.112H245.222C245.135 109.112 245.051 109.078 244.989 109.016C244.927 108.954 244.892 108.87 244.892 108.782C244.892 107.924 245.544 107.392 246.592 107.392C247.641 107.392 248.292 107.924 248.292 108.782C248.292 108.826 248.284 108.869 248.267 108.909C248.25 108.95 248.226 108.986 248.195 109.017C248.164 109.048 248.127 109.072 248.087 109.088C248.046 109.105 248.003 109.113 247.96 109.112Z" fill="white"/>
<path d="M239.159 110.224C240.245 110.224 241.126 109.341 241.126 108.252C241.126 107.163 240.245 106.281 239.159 106.281C238.072 106.281 237.192 107.163 237.192 108.252C237.192 109.341 238.072 110.224 239.159 110.224Z" fill="#8DDBE0"/>
<path d="M239.16 108.886C239.039 108.886 238.922 108.838 238.837 108.752C238.751 108.666 238.703 108.549 238.702 108.428V107.552C238.702 107.43 238.751 107.314 238.836 107.228C238.922 107.142 239.038 107.094 239.16 107.094C239.281 107.094 239.397 107.142 239.483 107.228C239.569 107.314 239.617 107.43 239.617 107.552V108.428C239.617 108.549 239.568 108.666 239.483 108.752C239.397 108.837 239.281 108.886 239.16 108.886Z" fill="white"/>
<path d="M239.159 109.364C239.147 109.364 239.135 109.362 239.124 109.357C239.113 109.352 239.102 109.345 239.094 109.337C239.085 109.328 239.078 109.318 239.074 109.307C239.069 109.295 239.067 109.283 239.067 109.271V108.434C239.067 108.41 239.076 108.386 239.094 108.369C239.111 108.351 239.135 108.341 239.159 108.341C239.184 108.341 239.208 108.351 239.225 108.369C239.242 108.386 239.252 108.41 239.252 108.434V109.271C239.252 109.296 239.242 109.319 239.225 109.337C239.208 109.354 239.184 109.364 239.159 109.364Z" fill="white"/>
<path d="M239.577 109.411H238.742C238.717 109.411 238.694 109.401 238.676 109.384C238.659 109.366 238.649 109.343 238.649 109.318C238.649 109.294 238.659 109.27 238.676 109.252C238.694 109.235 238.717 109.225 238.742 109.225H239.577C239.601 109.225 239.625 109.235 239.642 109.252C239.66 109.27 239.669 109.294 239.669 109.318C239.669 109.343 239.66 109.366 239.642 109.384C239.625 109.401 239.601 109.411 239.577 109.411Z" fill="white"/>
<path d="M254.02 110.224C255.107 110.224 255.987 109.341 255.987 108.252C255.987 107.163 255.107 106.281 254.02 106.281C252.934 106.281 252.053 107.163 252.053 108.252C252.053 109.341 252.934 110.224 254.02 110.224Z" fill="#0CBC8B"/>
<path d="M254.586 107.609H253V108.896H254.586V107.609Z" fill="white"/>
<path d="M255.04 108.792L254.477 108.228L255.04 107.665" fill="white"/>
<path d="M289.413 119.624H203.914V176.716H289.413V119.624Z" fill="#F3F5FD"/>
<path d="M209.114 175.972C209.782 176.162 210.432 176.41 211.056 176.716H206.809C206.817 176.662 206.83 176.609 206.849 176.558C206.935 176.359 207.073 176.186 207.247 176.057C207.421 175.929 207.625 175.848 207.84 175.824C207.999 175.801 208.159 175.797 208.318 175.812C208.321 175.812 208.321 175.812 208.321 175.809C208.566 175.835 208.809 175.883 209.046 175.953C209.069 175.961 209.093 175.964 209.114 175.972Z" fill="#8DDBE0"/>
<path d="M226.344 174.764C226.081 175.449 225.745 176.104 225.341 176.716H212.929C212.837 176.574 212.733 176.441 212.618 176.317C212.423 176.113 212.21 175.927 211.98 175.763C211.676 175.541 211.351 175.34 211.033 175.137C209.85 174.382 208.729 173.532 207.681 172.598C206.932 171.93 206.202 171.189 205.847 170.25C205.751 170.039 205.698 169.811 205.691 169.58C205.683 169.349 205.722 169.118 205.804 168.902C206.124 168.215 207.036 168.024 207.78 168.166C209.084 168.416 210.127 169.374 211.052 170.33C211.817 171.125 212.677 172.003 213.779 172.053C213.967 172.07 214.155 172.032 214.322 171.944C214.469 171.832 214.576 171.676 214.627 171.499C214.677 171.322 214.67 171.133 214.605 170.96C214.465 170.619 214.253 170.312 213.983 170.061C212.528 168.496 211.099 166.87 210.155 164.954C209.211 163.037 208.792 160.776 209.449 158.744C209.623 158.14 209.943 157.589 210.381 157.139C210.602 156.917 210.869 156.746 211.163 156.639C211.457 156.531 211.772 156.49 212.083 156.519C212.926 156.63 213.56 157.342 213.988 158.079C215.457 160.606 215.365 163.703 215.78 166.596C215.895 167.408 216.065 168.239 216.545 168.907C216.589 168.971 216.647 169.025 216.714 169.065C217.11 169.294 217.466 168.829 217.616 168.437C217.873 167.757 218.045 167.033 218.242 166.329C218.421 165.621 218.694 164.939 219.052 164.302C219.159 164.131 219.275 163.966 219.401 163.809C219.801 163.32 220.371 162.91 221.002 162.912C221.776 162.919 222.438 163.566 222.662 164.307C222.885 165.048 222.754 165.853 222.511 166.589C222.032 167.947 221.284 169.195 220.312 170.257C219.813 170.825 219.248 171.399 219.097 172.142C219.052 172.395 219.071 172.654 219.153 172.897C219.236 173.14 219.378 173.358 219.568 173.53C219.657 173.607 219.76 173.666 219.873 173.703C219.985 173.739 220.103 173.753 220.22 173.742C220.472 173.7 220.712 173.605 220.924 173.464C221.018 173.41 221.11 173.358 221.204 173.303C221.574 173.093 221.944 172.883 222.313 172.671C223.253 172.133 224.385 171.585 225.365 172.048C225.606 172.171 225.819 172.346 225.988 172.558C226.157 172.771 226.278 173.018 226.344 173.282C226.483 173.766 226.483 174.28 226.344 174.764Z" fill="#8DDBE0"/>
<path d="M270.717 132.667C273.349 132.667 275.483 130.528 275.483 127.89C275.483 125.252 273.349 123.113 270.717 123.113C268.086 123.113 265.952 125.252 265.952 127.89C265.952 130.528 268.086 132.667 270.717 132.667Z" fill="#C1D8ED"/>
<path d="M269.746 132.667C272.378 132.667 274.511 130.528 274.511 127.89C274.511 125.252 272.378 123.113 269.746 123.113C267.114 123.113 264.981 125.252 264.981 127.89C264.981 130.528 267.114 132.667 269.746 132.667Z" fill="#DEE8F5"/>
<path d="M269.746 131.963C271.99 131.963 273.809 130.14 273.809 127.89C273.809 125.641 271.99 123.817 269.746 123.817C267.502 123.817 265.683 125.641 265.683 127.89C265.683 130.14 267.502 131.963 269.746 131.963Z" fill="#F3F5FD"/>
<path d="M269.746 128.266C269.712 128.266 269.678 128.257 269.648 128.239C269.619 128.222 269.595 128.197 269.578 128.168C269.561 128.138 269.552 128.105 269.552 128.071V125.062C269.552 125.01 269.572 124.96 269.609 124.924C269.645 124.887 269.695 124.867 269.746 124.867C269.798 124.867 269.847 124.887 269.884 124.924C269.92 124.96 269.94 125.01 269.94 125.062V127.738L271.612 126.797C271.634 126.783 271.659 126.775 271.685 126.771C271.71 126.767 271.737 126.769 271.762 126.776C271.787 126.782 271.81 126.794 271.831 126.81C271.851 126.826 271.868 126.846 271.881 126.869C271.894 126.891 271.902 126.916 271.905 126.942C271.907 126.968 271.905 126.994 271.898 127.019C271.891 127.044 271.878 127.067 271.862 127.087C271.846 127.107 271.825 127.124 271.802 127.136L269.842 128.241C269.813 128.257 269.78 128.266 269.746 128.266Z" fill="#DEE8F5"/>
<path d="M275.666 168.342L275.445 169.423L273.954 176.715H273.274L274.771 169.423L275.059 168.018L275.666 168.342Z" fill="#C1D8ED"/>
<path d="M284.735 176.715H284.057L282.564 169.422L282.338 168.32L282.948 167.997L283.24 169.422L284.735 176.715Z" fill="#C1D8ED"/>
<path d="M285.325 166.985H272.681C272.362 166.985 272.103 167.245 272.103 167.565V168.843C272.103 169.163 272.362 169.423 272.681 169.423H285.325C285.644 169.423 285.903 169.163 285.903 168.843V167.565C285.903 167.245 285.644 166.985 285.325 166.985Z" fill="#DEE8F5"/>
<path d="M282.698 158.311C282.186 158.143 281.661 158.331 281.158 158.715C281.82 157.039 282.093 155.525 280.962 155.458C280.169 155.411 279.563 156.019 279.102 156.885C278.939 155.363 278.521 154.227 277.584 154.604C276.556 155.017 276.399 156.433 276.555 157.915C276.102 157.159 275.614 156.735 275.171 157.18C273.849 158.506 277.094 162.24 277.094 162.24H277.9L278.36 162.741C278.267 162.938 278.216 163.056 278.216 163.056L278.8 164.247C278.8 164.247 284.823 159.009 282.698 158.311Z" fill="#8DDBE0"/>
<path d="M281.253 166.916H276.692L275.928 161.578H282.017L281.253 166.916Z" fill="#C1D8ED"/>
<path d="M265.044 173.455H242.274L244.181 156.141C244.28 155.573 244.576 155.058 245.016 154.686C245.457 154.315 246.014 154.111 246.59 154.111H264.396C264.752 154.111 265.105 154.19 265.428 154.341C265.751 154.492 266.037 154.712 266.267 154.985C266.496 155.259 266.663 155.58 266.756 155.925C266.849 156.27 266.865 156.631 266.804 156.983L265.044 173.455Z" fill="#C1D8ED"/>
<path d="M261.933 165.303C261.933 165.303 261.82 169.322 261.587 173.455C261.526 174.559 261.455 175.671 261.375 176.716H226.474V167.894C226.474 167.207 226.746 166.549 227.23 166.063C227.714 165.577 228.371 165.304 229.057 165.303H261.933Z" fill="#F3F5FD"/>
<path d="M252.551 165.303V176.716H231.997V167.894C231.997 167.554 232.064 167.217 232.194 166.903C232.324 166.588 232.514 166.303 232.754 166.062C232.994 165.821 233.279 165.63 233.593 165.5C233.907 165.37 234.243 165.303 234.582 165.303H252.551Z" fill="#DEE8F5"/>
<path d="M260.47 173.455H237.7L239.607 156.141C239.706 155.573 240.002 155.058 240.442 154.686C240.883 154.315 241.44 154.111 242.016 154.111H259.823C260.179 154.111 260.532 154.19 260.855 154.341C261.178 154.492 261.465 154.712 261.694 154.985C261.924 155.259 262.091 155.579 262.183 155.925C262.276 156.27 262.293 156.631 262.231 156.983L260.47 173.455Z" fill="#DEE8F5"/>
<path d="M257.17 175.347V176.716H227.375V175.347C227.375 175.099 227.424 174.853 227.519 174.623C227.614 174.393 227.753 174.185 227.928 174.009C228.104 173.833 228.312 173.694 228.541 173.599C228.77 173.504 229.016 173.455 229.264 173.455H255.282C255.53 173.455 255.776 173.504 256.005 173.599C256.234 173.694 256.442 173.833 256.617 174.009C256.793 174.185 256.932 174.393 257.027 174.623C257.122 174.853 257.17 175.099 257.17 175.347Z" fill="white"/>
<path d="M266.939 165.303V176.716H251.854V167.894C251.854 167.554 251.921 167.217 252.051 166.903C252.181 166.588 252.371 166.303 252.611 166.062C252.851 165.821 253.136 165.63 253.45 165.5C253.764 165.37 254.1 165.303 254.439 165.303H266.939Z" fill="#F3F5FD"/>
<path d="M270.256 167.734V176.716H257.378V167.894C257.378 167.554 257.444 167.217 257.574 166.903C257.704 166.588 257.895 166.303 258.135 166.062C258.375 165.821 258.66 165.63 258.973 165.5C259.287 165.37 259.623 165.303 259.963 165.303H267.831C268.474 165.303 269.091 165.559 269.546 166.015C270.001 166.471 270.256 167.089 270.256 167.734Z" fill="#DEE8F5"/>
<path d="M221.467 142.952H221.197V149.633H221.467V142.952Z" fill="#C1D8ED"/>
<path d="M221.332 150.52C221.682 150.52 221.965 150.236 221.965 149.886C221.965 149.536 221.682 149.252 221.332 149.252C220.983 149.252 220.7 149.536 220.7 149.886C220.7 150.236 220.983 150.52 221.332 150.52Z" fill="#C1D8ED"/>
<path d="M219.104 138.768L219.088 146.967L219.052 164.302L219.026 176.716H218.221L218.242 166.329L218.282 146.967L218.299 138.768H219.104Z" fill="#C1D8ED"/>
<path d="M224.617 146.967H212.444L214.731 135.529H222.331L224.617 146.967Z" fill="#DEE8F5"/>
<path d="M225.999 176.069C225.44 176.069 224.889 175.933 224.394 175.672C223.9 175.411 223.476 175.034 223.159 174.572C222.841 174.111 222.641 173.579 222.574 173.022C222.508 172.466 222.577 171.902 222.776 171.378L229.57 153.517L234.362 155.349L237.191 151.487L242.753 155.581L228.781 174.657C228.461 175.095 228.042 175.451 227.558 175.697C227.075 175.942 226.541 176.07 225.999 176.069Z" fill="#005D83"/>
<path d="M266.32 176.085C265.933 176.382 265.49 176.597 265.017 176.716H263.258C262.956 176.639 262.665 176.523 262.392 176.37L261.43 175.832C261.538 176.134 261.64 176.427 261.732 176.716H233.371C233.896 174.414 234.837 171.132 234.764 164.914C234.659 155.777 229.867 146.303 240.77 145.833C240.977 145.822 241.31 145.817 241.736 145.809C241.821 147.62 253.013 147.614 253.25 145.765C256.411 145.769 259.004 146.741 260.505 148.246C261.491 149.176 262.163 150.391 262.427 151.722L267.613 172.357C267.784 173.037 267.752 173.752 267.522 174.415C267.293 175.077 266.875 175.658 266.32 176.085Z" fill="#005D83"/>
<path d="M241.736 145.809C241.821 147.621 242.804 150.286 245.837 150.487C249.879 150.754 253.014 147.614 253.25 145.767H253.24C249.261 145.767 244.056 145.773 241.736 145.809Z" fill="#E98862"/>
<path d="M237.743 151.982C237.914 152.212 237.77 152.542 236.846 153.516C236.271 154.125 235.568 154.972 235.049 155.611L230.346 153.812C230.682 152.422 231.218 150.505 231.717 150.07C232.517 149.372 235.486 150.716 235.486 150.716C235.486 150.716 235.808 149.728 236.229 148.707C236.712 147.531 237.326 146.309 237.727 146.51C238.115 146.704 237.829 147.919 237.385 149.224C236.817 150.904 235.985 152.729 235.985 152.729C235.985 152.729 237.323 151.42 237.743 151.982Z" fill="#E98862"/>
<path d="M238.223 162.338L242.207 161.701C242.363 161.676 242.513 161.618 242.646 161.531C242.778 161.444 242.891 161.33 242.977 161.196C243.063 161.062 243.119 160.912 243.143 160.754C243.166 160.597 243.157 160.437 243.114 160.283L240.608 151.268C240.534 151.001 240.364 150.77 240.131 150.621C239.898 150.471 239.619 150.412 239.345 150.456L235.362 151.093C235.206 151.118 235.056 151.176 234.923 151.263C234.79 151.351 234.678 151.465 234.592 151.599C234.506 151.732 234.45 151.883 234.426 152.04C234.403 152.197 234.412 152.358 234.455 152.511L236.961 161.527C237.035 161.794 237.205 162.024 237.438 162.174C237.671 162.324 237.95 162.382 238.223 162.338Z" fill="#C1D8ED"/>
<path d="M244.638 159.975L242.289 163.171C242.289 163.171 235.974 161.902 235.382 157.026C235.314 156.464 235.373 154.911 236.067 155.119C237.873 155.662 240.123 158.442 241.7 158.812C241.341 158.166 240.901 157.254 241.184 157.087C241.929 156.648 243.932 159.295 244.638 159.975Z" fill="#E98862"/>
<path d="M238.647 127.247C238.647 127.247 236.115 136.342 234.692 141.062C234.625 141.285 234.61 141.522 234.65 141.752C234.691 141.982 234.784 142.2 234.923 142.387C235.062 142.574 235.243 142.727 235.451 142.831C235.659 142.936 235.889 142.991 236.122 142.991H245.009C245.393 142.99 245.762 142.842 246.04 142.577C246.318 142.311 246.483 141.948 246.501 141.564L247.1 128.903L238.647 127.247Z" fill="#0F1011"/>
<path d="M252.267 147.479C252.267 147.479 249.682 146.108 250.253 139.056L244.914 138.068C244.914 138.068 245.52 144.39 242.821 146.399L252.267 147.479Z" fill="#E98862"/>
<g opacity="0.15">
<path d="M243.914 145.078L248.346 141.673L244.863 141.64C244.763 142.835 244.441 144.001 243.914 145.078Z" fill="black"/>
</g>
<path d="M253.279 136.319C252.912 138.459 251.749 140.486 249.865 141.179C247.814 141.997 245.594 142.3 243.399 142.06C237.555 141.586 238.699 128.266 241.471 125.677C244.243 123.087 252.386 124.718 253.38 129.044C253.896 131.282 253.629 134.284 253.279 136.319Z" fill="#E98862"/>
<path d="M244.918 134.678C245.185 134.678 245.402 134.461 245.402 134.193C245.402 133.925 245.185 133.708 244.918 133.708C244.651 133.708 244.434 133.925 244.434 134.193C244.434 134.461 244.651 134.678 244.918 134.678Z" fill="#0F1011"/>
<path d="M241.099 134.368C241.366 134.368 241.583 134.15 241.583 133.882C241.583 133.615 241.366 133.397 241.099 133.397C240.832 133.397 240.615 133.615 240.615 133.882C240.615 134.15 240.832 134.368 241.099 134.368Z" fill="#0F1011"/>
<path d="M240.259 132.85C240.2 132.848 240.144 132.824 240.102 132.782C240.061 132.739 240.037 132.682 240.037 132.623C240.036 132.564 240.059 132.507 240.1 132.464C240.141 132.421 240.197 132.396 240.256 132.394L241.539 132.376H241.542C241.601 132.378 241.657 132.402 241.699 132.444C241.74 132.487 241.763 132.543 241.764 132.603C241.764 132.662 241.742 132.719 241.701 132.762C241.66 132.805 241.604 132.83 241.545 132.832L240.262 132.85H240.259Z" fill="#0F1011"/>
<path d="M245.962 133.313C245.944 133.313 245.927 133.311 245.909 133.307L244.645 133.003C244.615 132.997 244.586 132.985 244.561 132.967C244.536 132.95 244.515 132.928 244.499 132.902C244.482 132.876 244.471 132.847 244.466 132.817C244.461 132.787 244.462 132.756 244.469 132.727C244.476 132.697 244.489 132.669 244.508 132.644C244.526 132.62 244.548 132.599 244.575 132.583C244.601 132.568 244.63 132.558 244.66 132.554C244.69 132.549 244.721 132.551 244.751 132.559L246.015 132.863C246.069 132.876 246.117 132.909 246.148 132.955C246.18 133 246.194 133.056 246.188 133.112C246.181 133.167 246.155 133.218 246.113 133.255C246.072 133.293 246.018 133.313 245.962 133.313Z" fill="#0F1011"/>
<path d="M244.698 138.015C244.698 138.015 242.911 138.205 241.658 137.768C241.658 137.768 241.669 138.948 243.083 139.063C244.497 139.177 244.698 138.015 244.698 138.015Z" fill="white"/>
<g opacity="0.15">
<path d="M242.772 136.888C242.812 136.888 242.85 136.873 242.881 136.847C242.911 136.821 242.931 136.784 242.937 136.745C242.943 136.705 242.934 136.665 242.913 136.631C242.892 136.597 242.859 136.572 242.82 136.56L241.836 136.258L242.523 134.719C242.54 134.679 242.541 134.634 242.525 134.593C242.509 134.552 242.477 134.52 242.438 134.502C242.398 134.484 242.353 134.482 242.312 134.498C242.271 134.513 242.237 134.543 242.219 134.583L241.376 136.467L242.722 136.88C242.738 136.885 242.755 136.888 242.772 136.888Z" fill="black"/>
</g>
<path d="M238.343 128.337C238.343 128.337 239.198 121.4 250.286 123.104C253.051 123.529 256.968 125.692 257.603 132.782C257.893 136.035 259.012 139.102 259.865 141.042C259.966 141.27 260.008 141.52 259.989 141.768C259.969 142.017 259.888 142.257 259.752 142.466C259.617 142.675 259.431 142.847 259.213 142.966C258.994 143.085 258.75 143.147 258.501 143.148L250.706 143.15C250.311 143.151 249.931 142.994 249.651 142.714C249.371 142.434 249.213 142.054 249.212 141.658C249.212 141.636 249.212 141.614 249.214 141.592C249.27 140.262 249.314 138.011 249.238 134.569C248.833 132.605 249.912 131.22 248.346 131.672C242.527 133.344 238.78 128.449 238.343 128.337Z" fill="#0F1011"/>
<path d="M247.365 136.283C247.321 136.827 247.494 137.366 247.846 137.781C248.199 138.197 248.702 138.455 249.244 138.5C249.787 138.544 250.325 138.37 250.739 138.017C251.154 137.663 251.412 137.159 251.456 136.615C251.508 136.081 251.347 135.548 251.007 135.134C250.667 134.719 250.177 134.457 249.644 134.404C249.621 134.402 249.599 134.4 249.576 134.399C248.113 134.351 247.456 135.15 247.365 136.283Z" fill="#E98862"/>
<path d="M246.664 173.747C248.201 173.747 249.446 172.498 249.446 170.958C249.446 169.418 248.201 168.17 246.664 168.17C245.128 168.17 243.882 169.418 243.882 170.958C243.882 172.498 245.128 173.747 246.664 173.747Z" fill="#FD5D76"/>
<path d="M248.034 171.819H247.358C247.271 171.819 247.187 171.784 247.125 171.722C247.063 171.66 247.028 171.576 247.028 171.488V171.029C247.028 170.946 247.06 170.866 247.117 170.805C246.968 170.772 246.816 170.757 246.665 170.759C246.504 170.756 246.344 170.774 246.188 170.811C246.249 170.873 246.284 170.957 246.284 171.044V171.488C246.284 171.576 246.249 171.66 246.187 171.722C246.126 171.784 246.042 171.818 245.954 171.818H245.295C245.208 171.818 245.124 171.784 245.062 171.722C245 171.66 244.966 171.576 244.966 171.488C244.966 170.63 245.617 170.097 246.665 170.097C247.714 170.097 248.366 170.63 248.366 171.488C248.366 171.532 248.357 171.575 248.34 171.615C248.324 171.655 248.299 171.692 248.269 171.723C248.238 171.753 248.201 171.778 248.161 171.794C248.121 171.811 248.078 171.819 248.034 171.819Z" fill="white"/>
<path d="M239.233 172.93C240.319 172.93 241.2 172.048 241.2 170.959C241.2 169.87 240.319 168.987 239.233 168.987C238.147 168.987 237.266 169.87 237.266 170.959C237.266 172.048 238.147 172.93 239.233 172.93Z" fill="#8DDBE0"/>
<path d="M239.234 171.592C239.112 171.592 238.996 171.543 238.91 171.457C238.825 171.371 238.776 171.255 238.776 171.133V170.258C238.776 170.136 238.825 170.019 238.91 169.933C238.996 169.847 239.112 169.799 239.234 169.799C239.355 169.799 239.471 169.847 239.557 169.933C239.643 170.019 239.691 170.136 239.691 170.258V171.133C239.691 171.255 239.642 171.371 239.557 171.457C239.471 171.543 239.355 171.592 239.234 171.592Z" fill="white"/>
<path d="M239.233 172.07C239.209 172.07 239.185 172.06 239.168 172.043C239.151 172.025 239.141 172.002 239.14 171.977V171.141C239.14 171.116 239.15 171.092 239.168 171.075C239.185 171.057 239.209 171.048 239.233 171.048C239.258 171.048 239.281 171.057 239.299 171.075C239.316 171.092 239.326 171.116 239.326 171.141V171.977C239.326 172.002 239.316 172.026 239.299 172.043C239.281 172.06 239.258 172.07 239.233 172.07Z" fill="white"/>
<path d="M239.65 172.118H238.816C238.791 172.118 238.767 172.108 238.75 172.09C238.733 172.073 238.723 172.049 238.723 172.025C238.723 172 238.733 171.976 238.75 171.959C238.767 171.941 238.791 171.932 238.816 171.932H239.65C239.675 171.932 239.699 171.941 239.716 171.959C239.733 171.976 239.743 172 239.743 172.025C239.743 172.049 239.733 172.073 239.716 172.09C239.699 172.108 239.675 172.118 239.65 172.118Z" fill="white"/>
<path d="M254.095 172.93C255.182 172.93 256.062 172.048 256.062 170.959C256.062 169.87 255.182 168.987 254.095 168.987C253.009 168.987 252.128 169.87 252.128 170.959C252.128 172.048 253.009 172.93 254.095 172.93Z" fill="#0CBC8B"/>
<path d="M254.662 170.314H253.076V171.602H254.662V170.314Z" fill="white"/>
<path d="M255.115 171.498L254.552 170.934L255.115 170.37" fill="white"/>
<path d="M197.406 119.623H111.906V176.715H197.406V119.623Z" fill="#F3F5FD"/>
<path d="M134.528 134.362H122.134V146.785H134.528V134.362Z" fill="#DEE8F5"/>
<path d="M133.673 135.218H122.989V145.929H133.673V135.218Z" fill="white"/>
<path d="M125.15 137.658V141.721L129.181 137.68L125.15 137.658Z" fill="#F3F5FD"/>
<path d="M128.772 143.49C130.022 143.49 131.035 142.474 131.035 141.221C131.035 139.968 130.022 138.953 128.772 138.953C127.522 138.953 126.509 139.968 126.509 141.221C126.509 142.474 127.522 143.49 128.772 143.49Z" fill="#C1D8ED"/>
<path d="M148.775 124.26H136.712V138.948H148.775V124.26Z" fill="#DEE8F5"/>
<path d="M147.765 125.273H137.722V137.936H147.765V125.273Z" fill="white"/>
<path d="M145.011 127.309H139.64V133.607H145.011V127.309Z" fill="#DEE8F5"/>
<path d="M144.725 132.007H144.724C143.652 132.007 142.783 132.879 142.783 133.953V133.954C142.783 135.029 143.652 135.9 144.724 135.9H144.725C145.797 135.9 146.666 135.029 146.666 133.954V133.953C146.666 132.879 145.797 132.007 144.725 132.007Z" fill="#C1D8ED"/>
<path d="M146.666 130.056H142.325V130.915H146.666V130.056Z" fill="#F3F5FD"/>
<path d="M149.214 141.714H139.096V151.857H149.214V141.714Z" fill="#DEE8F5"/>
<path d="M148.39 142.54H139.921V151.03H148.39V142.54Z" fill="white"/>
<path d="M147.143 143.563H144.989V149.935H147.143V143.563Z" fill="#DEE8F5"/>
<path d="M143.932 143.563L141.066 146.436H146.767L143.932 143.563Z" fill="#C1D8ED"/>
<path d="M146.087 147.663H141.746V148.522H146.087V147.663Z" fill="#F3F5FD"/>
<path d="M190.083 174.191C190.083 174.191 189.682 159.333 185.834 159.084C181.985 158.836 188.989 175.155 188.989 175.155" fill="#DEE8F5"/>
<path d="M190.254 173.176C190.254 173.176 195.051 162.485 191.857 160.319C188.664 158.153 188.825 173.452 188.825 173.452" fill="#C1D8ED"/>
<path d="M191.259 172.255H186.945V176.716H191.259V172.255Z" fill="#C1D8ED"/>
<path d="M135.08 160.564H114.792V176.716H135.08V160.564Z" fill="#C1D8ED"/>
<path d="M140.467 160.564H120.179V176.716H140.467V160.564Z" fill="#DEE8F5"/>
<g opacity="0.53">
<path d="M139.377 161.967H121.272V167.728H139.377V161.967Z" fill="#F3F5FD"/>
</g>
<g opacity="0.53">
<path d="M139.376 169.137H121.271V174.897H139.376V169.137Z" fill="#F3F5FD"/>
</g>
<path d="M130.324 165.653C130.768 165.653 131.128 165.292 131.128 164.847C131.128 164.402 130.768 164.041 130.324 164.041C129.88 164.041 129.52 164.402 129.52 164.847C129.52 165.292 129.88 165.653 130.324 165.653Z" fill="white"/>
<path d="M130.324 172.823C130.768 172.823 131.128 172.462 131.128 172.017C131.128 171.572 130.768 171.211 130.324 171.211C129.88 171.211 129.52 171.572 129.52 172.017C129.52 172.462 129.88 172.823 130.324 172.823Z" fill="white"/>
<path d="M148.535 147.848C148.535 147.848 151.095 146.488 150.523 139.5L155.812 138.517C155.812 138.517 155.218 144.782 157.894 146.771L148.535 147.848Z" fill="#E98862"/>
<g opacity="0.15">
<path d="M156.81 145.461L152.416 142.092L155.867 142.056C155.999 143.22 156.27 144.47 156.81 145.461Z" fill="black"/>
</g>
<path d="M147.522 136.791C147.888 138.911 149.042 140.918 150.908 141.603C153.123 142.416 154.763 142.471 157.316 142.471C160.801 142.471 160.686 138.828 160.783 135.158C160.882 131.472 160.589 127.519 159.212 126.235C156.463 123.671 148.396 125.294 147.414 129.582C146.907 131.799 147.174 134.773 147.522 136.791Z" fill="#E98862"/>
<path d="M162.651 128.365C162.651 128.365 164.078 128.046 163.687 126.618C163.428 125.672 162.219 125.883 162.219 125.883C162.219 125.883 163.364 125.672 163.364 124.671C163.364 124.039 162.88 122.97 161.421 123.581C159.708 124.298 157.754 124.206 156.269 123.956C155.403 123.81 154.558 123.606 153.717 123.595H153.713C152.726 123.578 151.742 123.71 150.795 123.986C148.14 124.782 144.122 127.169 144.976 132.579C145.929 138.617 148.756 140.926 149.999 141.667C150.073 141.711 150.156 141.738 150.241 141.746C150.327 141.753 150.413 141.742 150.493 141.711C150.573 141.68 150.646 141.632 150.705 141.569C150.763 141.506 150.807 141.431 150.833 141.349C151.186 140.217 151.794 137.37 151.623 131.499C159.784 131.098 162.132 130.976 162.132 130.976C162.132 130.976 164.054 131.048 164.054 129.641C164.054 128.234 162.651 128.365 162.651 128.365Z" fill="#0F1011"/>
<path d="M155.805 135.157C156.07 135.157 156.284 134.942 156.284 134.677C156.284 134.411 156.07 134.196 155.805 134.196C155.54 134.196 155.325 134.411 155.325 134.677C155.325 134.942 155.54 135.157 155.805 135.157Z" fill="#0F1011"/>
<path d="M159.589 134.846C159.854 134.846 160.069 134.631 160.069 134.366C160.069 134.1 159.854 133.885 159.589 133.885C159.324 133.885 159.11 134.1 159.11 134.366C159.11 134.631 159.324 134.846 159.589 134.846Z" fill="#0F1011"/>
<path d="M160.421 133.341H160.418L159.146 133.326C159.087 133.325 159.03 133.3 158.988 133.257C158.946 133.215 158.923 133.157 158.924 133.097C158.925 133.037 158.949 132.98 158.992 132.938C159.035 132.896 159.092 132.873 159.152 132.874L160.423 132.89C160.482 132.892 160.537 132.917 160.578 132.959C160.618 133.002 160.641 133.058 160.64 133.117C160.64 133.176 160.617 133.232 160.576 133.274C160.535 133.316 160.479 133.34 160.421 133.342L160.421 133.341Z" fill="#0F1011"/>
<path d="M154.77 133.805C154.714 133.805 154.661 133.785 154.62 133.748C154.578 133.712 154.552 133.661 154.545 133.606C154.539 133.551 154.553 133.495 154.584 133.45C154.616 133.405 154.663 133.372 154.717 133.36L155.97 133.058C155.999 133.051 156.028 133.05 156.058 133.055C156.087 133.059 156.115 133.07 156.14 133.085C156.165 133.101 156.187 133.121 156.205 133.145C156.222 133.169 156.235 133.196 156.242 133.225C156.249 133.254 156.25 133.284 156.245 133.313C156.241 133.342 156.23 133.37 156.215 133.396C156.199 133.421 156.179 133.443 156.155 133.461C156.131 133.478 156.104 133.491 156.075 133.497L154.823 133.8C154.805 133.804 154.787 133.805 154.77 133.805Z" fill="#0F1011"/>
<path d="M153.309 135.853C153.353 136.392 153.182 136.926 152.833 137.338C152.484 137.751 151.986 138.007 151.449 138.051C150.911 138.096 150.378 137.924 149.967 137.574C149.556 137.224 149.3 136.725 149.256 136.186C149.229 135.919 149.257 135.648 149.337 135.392C149.417 135.135 149.547 134.897 149.721 134.692C149.894 134.487 150.107 134.319 150.347 134.198C150.587 134.077 150.848 134.006 151.116 133.988C152.566 133.941 153.218 134.731 153.309 135.853Z" fill="#E98862"/>
<g opacity="0.15">
<path d="M157.936 137.343C157.895 137.345 157.856 137.331 157.825 137.305C157.794 137.279 157.773 137.243 157.767 137.203C157.761 137.163 157.77 137.122 157.792 137.088C157.814 137.054 157.848 137.03 157.887 137.019L158.862 136.719L158.18 135.195C158.162 135.155 158.16 135.109 158.176 135.068C158.192 135.027 158.223 134.994 158.263 134.976C158.303 134.958 158.349 134.957 158.39 134.972C158.431 134.988 158.464 135.019 158.482 135.059L159.241 136.754C159.251 136.776 159.256 136.799 159.256 136.822C159.256 136.846 159.251 136.869 159.241 136.891C159.231 136.912 159.217 136.931 159.2 136.947C159.182 136.962 159.161 136.974 159.139 136.981L157.984 137.336C157.968 137.341 157.952 137.343 157.936 137.343Z" fill="black"/>
</g>
<path d="M156.027 138.463C156.027 138.463 157.798 138.65 159.039 138.215C159.039 138.215 159.029 139.384 157.628 139.499C156.226 139.615 156.027 138.463 156.027 138.463Z" fill="white"/>
<path d="M189.686 176.715H178.731C175.92 174.495 173.434 172.514 172.591 171.804L166.294 162.37C166.052 164.202 165.906 166.045 165.856 167.892C165.786 170.852 166.035 173.81 166.598 176.717H140.305C141.205 174.308 141.669 171.758 141.673 169.186C141.673 167.564 141.317 165.834 140.847 164.071L137.765 171.024L137.002 176.717H129.885L130.843 169.582C130.887 169.249 130.979 168.924 131.116 168.617L138.932 150.973L138.972 150.99C139.302 150.078 139.829 149.251 140.517 148.568C141.993 147.088 144.545 146.13 147.658 146.128C147.891 147.947 158.907 147.952 158.992 146.17C159.411 146.177 159.738 146.182 159.941 146.192C162.879 146.319 164.657 147.329 165.69 148.913L165.761 148.866L177.807 166.905L189.686 176.715Z" fill="#B7DCE1"/>
<path d="M158.991 146.169C158.907 147.953 157.94 150.575 154.954 150.773C150.976 151.036 147.891 147.946 147.658 146.127H147.668C151.584 146.127 156.708 146.133 158.991 146.169Z" fill="#E98862"/>
<path d="M175.183 131.768L173.835 132.548L176.475 137.131L177.823 136.351L175.183 131.768Z" fill="#DEE8F5"/>
<path d="M174.175 131.803H172.619V137.096H174.175V131.803Z" fill="#DEE8F5"/>
<path d="M183.236 130.367H181.68V137.096H183.236V130.367Z" fill="#DEE8F5"/>
<path d="M181.636 131.803H180.08V137.096H181.636V131.803Z" fill="#C1D8ED"/>
<path d="M184.792 131.123H183.236V137.096H184.792V131.123Z" fill="#C1D8ED"/>
<path d="M180.056 130.937H177.571V137.095H180.056V130.937Z" fill="white"/>
<path d="M187.284 135.337C187.284 135.337 187.277 132.705 188.596 132.155C189.915 131.605 187.94 135.337 187.94 135.337H187.284Z" fill="#DEE8F5"/>
<path d="M187.94 135.337C187.94 135.337 188.629 130.409 187.222 130.409C185.814 130.409 187.285 135.337 187.285 135.337" fill="#DEE8F5"/>
<path d="M187.518 135.554C187.518 135.554 186.858 131.162 185.68 131.515C184.502 131.867 187.055 135.692 187.055 135.692L187.518 135.554Z" fill="#DEE8F5"/>
<path d="M188.817 134.016H185.745V137.095H188.817V134.016Z" fill="#C1D8ED"/>
<path d="M190.068 137.096H171.842V137.78H190.068V137.096Z" fill="#DEE8F5"/>
<path d="M154.583 173.733C156.12 173.733 157.365 172.485 157.365 170.945C157.365 169.404 156.12 168.156 154.583 168.156C153.047 168.156 151.801 169.404 151.801 170.945C151.801 172.485 153.047 173.733 154.583 173.733Z" fill="#FD5D76"/>
<path d="M155.953 171.805H155.277C155.19 171.805 155.106 171.771 155.044 171.709C154.982 171.647 154.948 171.563 154.948 171.475V171.016C154.948 170.933 154.979 170.853 155.036 170.791C154.887 170.759 154.736 170.744 154.584 170.746C154.423 170.744 154.263 170.761 154.107 170.798C154.169 170.86 154.203 170.944 154.203 171.031V171.475C154.203 171.563 154.168 171.647 154.107 171.709C154.045 171.771 153.961 171.805 153.874 171.805H153.214C153.127 171.805 153.043 171.771 152.981 171.709C152.919 171.647 152.885 171.563 152.885 171.475C152.885 170.617 153.536 170.084 154.585 170.084C155.633 170.084 156.285 170.617 156.285 171.475C156.285 171.518 156.276 171.562 156.259 171.602C156.243 171.642 156.218 171.679 156.188 171.709C156.157 171.74 156.12 171.764 156.08 171.781C156.04 171.797 155.997 171.806 155.953 171.805Z" fill="white"/>
<path d="M147.152 172.916C148.239 172.916 149.119 172.034 149.119 170.945C149.119 169.855 148.239 168.973 147.152 168.973C146.066 168.973 145.185 169.855 145.185 170.945C145.185 172.034 146.066 172.916 147.152 172.916Z" fill="#8DDBE0"/>
<path d="M147.153 171.578C147.032 171.578 146.916 171.529 146.83 171.444C146.744 171.358 146.696 171.241 146.696 171.12V170.244C146.696 170.122 146.744 170.006 146.83 169.92C146.915 169.834 147.032 169.785 147.153 169.785C147.274 169.785 147.391 169.834 147.476 169.92C147.562 170.006 147.61 170.122 147.61 170.244V171.12C147.61 171.241 147.562 171.358 147.476 171.444C147.39 171.529 147.274 171.578 147.153 171.578Z" fill="white"/>
<path d="M147.153 172.057C147.129 172.057 147.105 172.047 147.088 172.029C147.071 172.012 147.061 171.989 147.06 171.964V171.127C147.06 171.103 147.07 171.079 147.087 171.062C147.105 171.044 147.128 171.034 147.153 171.034C147.178 171.034 147.201 171.044 147.219 171.062C147.236 171.079 147.246 171.103 147.246 171.127V171.964C147.246 171.989 147.236 172.012 147.219 172.03C147.201 172.047 147.178 172.057 147.153 172.057Z" fill="white"/>
<path d="M147.57 172.103H146.735C146.711 172.103 146.687 172.093 146.67 172.076C146.652 172.059 146.643 172.035 146.643 172.01C146.643 171.986 146.652 171.962 146.67 171.945C146.687 171.927 146.711 171.917 146.735 171.917H147.57C147.595 171.917 147.618 171.927 147.636 171.945C147.653 171.962 147.663 171.986 147.663 172.01C147.663 172.035 147.653 172.059 147.636 172.076C147.618 172.093 147.595 172.103 147.57 172.103Z" fill="white"/>
<path d="M162.014 172.916C163.101 172.916 163.981 172.034 163.981 170.945C163.981 169.855 163.101 168.973 162.014 168.973C160.928 168.973 160.047 169.855 160.047 170.945C160.047 172.034 160.928 172.916 162.014 172.916Z" fill="#0CBC8B"/>
<path d="M162.581 170.3H160.995V171.588H162.581V170.3Z" fill="white"/>
<path d="M163.035 171.484L162.472 170.92L163.035 170.356" fill="white"/>
</g>
<defs>
<clipPath id="clip0_813_845">
<rect width="280" height="151" fill="white" transform="translate(61.5 45.5)"/>
</clipPath>
</defs>
</svg>
