<svg width="403" height="242" viewBox="0 0 403 242" fill="none" xmlns="http://www.w3.org/2000/svg">
<rect width="403" height="242" fill="#005D83"/>
<path d="M207.6 202.314C253.937 202.314 291.5 193.977 291.5 183.692C291.5 173.408 253.937 165.07 207.6 165.07C161.263 165.07 123.7 173.408 123.7 183.692C123.7 193.977 161.263 202.314 207.6 202.314Z" fill="white"/>
<path opacity="0.16" d="M207.6 202.314C253.937 202.314 291.5 193.977 291.5 183.692C291.5 173.408 253.937 165.07 207.6 165.07C161.263 165.07 123.7 173.408 123.7 183.692C123.7 193.977 161.263 202.314 207.6 202.314Z" fill="#367CFF"/>
<path d="M129.714 95.9989C129.835 95.7592 130.027 95.563 130.265 95.4374C130.502 95.3118 130.772 95.263 131.039 95.2978C131.036 95.2817 131.038 95.2653 131.043 95.25C131.049 95.2347 131.058 95.221 131.07 95.21C131.082 95.199 131.096 95.1911 131.112 95.187C131.128 95.1829 131.144 95.1827 131.16 95.1864L130.262 94.5425C129.993 94.3587 129.8 94.0837 129.718 93.7685C129.636 93.4533 129.671 93.1192 129.817 92.8279C129.97 92.5448 130.222 92.3286 130.526 92.2213C130.829 92.114 131.161 92.1232 131.458 92.247C131.456 92.2343 131.465 92.2222 131.467 92.2092L131.097 91.9445C130.845 91.7701 130.66 91.5138 130.575 91.2191C130.49 90.9243 130.509 90.6091 130.63 90.3269C130.709 90.1515 130.826 89.9958 130.972 89.8711C131.119 89.7464 131.291 89.6558 131.477 89.6059C131.663 89.5559 131.858 89.5478 132.047 89.5821C132.236 89.6165 132.416 89.6924 132.572 89.8045L133.424 90.415C133.426 90.4099 133.424 90.404 133.427 90.3994C133.431 90.3948 133.44 90.3929 133.445 90.3877C133.249 90.1677 133.134 89.8878 133.119 89.5939C133.103 89.3 133.188 89.0095 133.359 88.7702C133.761 88.1231 134.689 88.2564 135.24 88.6501L140.253 92.1113L139.357 90.603C139.176 90.3127 139.113 89.9647 139.179 89.6293C139.245 89.2939 139.437 88.9962 139.714 88.7964C139.86 88.6982 140.026 88.6309 140.199 88.5986C140.373 88.5664 140.551 88.5698 140.723 88.6088C140.895 88.6477 141.057 88.7214 141.2 88.8252C141.343 88.929 141.463 89.0608 141.553 89.2126L146.445 97.4491C147.019 98.4154 147.194 99.5673 146.932 100.66C146.67 101.753 145.992 102.701 145.043 103.302C143.942 103.999 142.657 104.352 141.354 104.314C140.052 104.277 138.79 103.851 137.73 103.092L130.159 97.666C129.908 97.4787 129.727 97.2123 129.647 96.9098C129.566 96.6073 129.59 96.2864 129.714 95.9989Z" fill="#E98862"/>
<g opacity="0.25">
<path d="M138.385 93.8373C138.367 93.8625 138.339 93.8794 138.308 93.8844C138.277 93.8895 138.246 93.8823 138.22 93.8643L133.457 90.5653C133.432 90.5467 133.415 90.5191 133.41 90.4885C133.405 90.4578 133.412 90.4264 133.43 90.4008C133.448 90.3753 133.475 90.3577 133.505 90.3516C133.536 90.3455 133.567 90.3515 133.594 90.3682L138.356 93.6672C138.383 93.6853 138.4 93.7131 138.406 93.7443C138.412 93.7756 138.405 93.8079 138.387 93.834L138.385 93.8373Z" fill="#0C0C0C"/>
</g>
<g opacity="0.25">
<path d="M136.988 95.9783C136.969 96.0034 136.941 96.0204 136.911 96.0254C136.88 96.0305 136.848 96.0233 136.823 96.0053L131.507 92.3245C131.494 92.3156 131.483 92.3041 131.474 92.2909C131.466 92.2776 131.46 92.2628 131.457 92.2473C131.454 92.2317 131.455 92.2158 131.458 92.2004C131.461 92.185 131.468 92.1704 131.477 92.1574C131.496 92.1322 131.523 92.1151 131.554 92.1095C131.585 92.1039 131.617 92.1103 131.644 92.1274L136.961 95.809C136.987 95.8271 137.005 95.8549 137.01 95.8862C137.016 95.9174 137.009 95.9497 136.991 95.9758L136.988 95.9783Z" fill="#0C0C0C"/>
</g>
<g opacity="0.25">
<path d="M135.488 98.306C135.47 98.3312 135.442 98.3481 135.411 98.3531C135.38 98.3582 135.349 98.351 135.323 98.333L131.083 95.3969C131.07 95.388 131.059 95.3765 131.05 95.3633C131.042 95.35 131.036 95.3352 131.033 95.3197C131.031 95.3042 131.031 95.2884 131.034 95.273C131.038 95.2576 131.044 95.243 131.053 95.2301C131.062 95.2172 131.073 95.2062 131.087 95.1976C131.1 95.1891 131.115 95.1833 131.13 95.1805C131.146 95.1778 131.162 95.178 131.177 95.1814C131.192 95.1848 131.207 95.1911 131.22 95.2001L135.46 98.1367C135.473 98.1457 135.484 98.1571 135.492 98.1703C135.501 98.1836 135.507 98.1983 135.509 98.2138C135.512 98.2293 135.512 98.2452 135.509 98.2606C135.505 98.276 135.499 98.2906 135.49 98.3035L135.488 98.306Z" fill="#0C0C0C"/>
</g>
<path d="M147.406 92.8422L164.479 116.215L182.675 92.8422L195.839 106.346L170.976 138.546L170.813 138.775C169.818 140.138 168.492 141.225 166.961 141.934C165.429 142.643 163.742 142.951 162.059 142.828C160.376 142.704 158.752 142.155 157.339 141.23C155.927 140.306 154.774 139.037 153.988 137.544L132.778 103.281L147.406 92.8422Z" fill="#F78F20"/>
<path d="M165.887 119.158C165.918 119.158 165.948 119.15 165.976 119.134C166.003 119.119 166.026 119.097 166.042 119.07C166.058 119.044 166.067 119.013 166.069 118.982C166.07 118.951 166.063 118.92 166.049 118.892L164.64 116.132C164.616 116.093 164.578 116.064 164.534 116.051C164.49 116.039 164.442 116.043 164.401 116.064C164.36 116.085 164.328 116.121 164.312 116.165C164.297 116.208 164.298 116.256 164.316 116.298L165.725 119.058C165.74 119.088 165.763 119.113 165.792 119.131C165.82 119.148 165.853 119.158 165.887 119.158Z" fill="#0C0C0C"/>
<path d="M224.134 59.9435C224.134 59.9435 226.411 68.2666 228.932 70.9418C236.188 78.6432 239.788 88.2353 235.367 94.5274C230.947 100.819 196.057 107.988 190.991 96.6128C186.725 87.0361 191.284 84.9853 190.764 76.4762C190.529 72.6256 190.38 64.4815 190.38 64.4815" fill="#0A0A0A"/>
<path d="M196.865 90.2786C196.927 90.2705 197.609 101.592 210.761 100.605C219.866 99.9226 223.112 90.2626 223.321 90.2626C222.339 90.0539 220.686 89.7505 220.25 89.5179C218.817 88.7475 217.043 87.9458 216.581 85.1617C216.314 83.5568 216.766 75.3459 216.627 73.7235L202.651 76.8426C202.846 80.2719 204.213 88.2213 199.422 89.6283C198.625 89.8611 197.766 90.075 196.865 90.2786Z" fill="#E98862"/>
<path opacity="0.52" d="M202.454 86.3795C202.673 85.6739 202.814 84.9465 202.875 84.2103C203.028 82.5301 202.998 80.8382 202.783 79.1648C205.624 78.7813 208.3 77.6089 210.508 75.7806C210.767 76.739 212.195 80.9267 211.8 81.8377C211.052 83.56 207.542 86.3795 202.454 86.3795Z" fill="#0C0C0C"/>
<path d="M205.441 84.278C210.947 83.7026 217.494 80.1221 217.48 72.637L217.466 65.8831C217.451 58.398 213.508 52.3376 206.461 52.3517C199.413 52.3655 194.157 58.444 194.172 65.9291L194.178 68.9192C194.183 71.7912 195.617 85.3047 205.441 84.278Z" fill="#E98862"/>
<path opacity="0.52" d="M201.371 74.6736C201.367 74.6739 201.362 74.6739 201.358 74.6736C201.072 74.6722 200.787 74.655 200.503 74.6219C200.078 74.5698 199.513 74.4573 199.512 74.083C199.512 73.6563 200.671 69.0535 200.803 68.5289C200.808 68.5055 200.818 68.4833 200.831 68.4637C200.845 68.4441 200.863 68.4275 200.883 68.4148C200.903 68.4021 200.926 68.3937 200.95 68.39C200.973 68.3863 200.998 68.3874 201.021 68.3933C201.044 68.3992 201.066 68.4096 201.085 68.4241C201.104 68.4386 201.12 68.4568 201.132 68.4776C201.144 68.4984 201.151 68.5213 201.154 68.5451C201.157 68.5689 201.155 68.593 201.148 68.616C200.653 70.5767 199.868 73.795 199.868 74.0822C199.938 74.202 200.648 74.3191 201.357 74.318C201.403 74.3186 201.446 74.3367 201.479 74.3685C201.511 74.4002 201.531 74.4433 201.532 74.4887C201.534 74.5342 201.519 74.5787 201.489 74.613C201.459 74.6473 201.417 74.6688 201.371 74.6731V74.6736Z" fill="#0C0C0C"/>
<path opacity="0.52" d="M203.029 77.9933C201.89 78.0196 200.761 77.7778 199.733 77.2875C199.712 77.2777 199.692 77.2639 199.677 77.2468C199.661 77.2297 199.648 77.2096 199.64 77.1877C199.632 77.1658 199.628 77.1425 199.629 77.1191C199.63 77.0957 199.635 77.0728 199.645 77.0515C199.655 77.0303 199.669 77.0111 199.686 76.9952C199.703 76.9793 199.723 76.9669 199.745 76.9588C199.767 76.9506 199.79 76.9469 199.813 76.9477C199.837 76.9486 199.86 76.954 199.881 76.9638C202.097 77.9676 204.132 77.8729 205.764 76.6902C205.797 76.6652 205.832 76.642 205.867 76.6207C205.908 76.5992 205.956 76.5949 206.001 76.6085C206.045 76.6222 206.083 76.6527 206.105 76.6936C206.127 76.7346 206.133 76.7826 206.12 76.8274C206.107 76.8722 206.077 76.9102 206.037 76.9332C206.024 76.9408 206.003 76.9568 205.973 76.9783C205.115 77.6021 204.089 77.9555 203.029 77.9933Z" fill="#0C0C0C"/>
<path d="M223.341 67.1138L217.03 67.1625C212.056 66.1771 209.13 58.4516 209.13 58.4516C209.13 58.4516 204.567 64.9911 190.38 64.4817C190.38 64.4817 189.479 45.0049 210.614 46.6751C217.428 47.2138 223.323 52.8496 224.413 61.6808C225.176 67.8693 223.341 67.1138 223.341 67.1138Z" fill="#0A0A0A"/>
<path d="M217.046 74.9193C219.188 74.9153 220.919 72.6209 220.915 70.4787C220.911 68.3365 219.172 67.1592 217.03 67.1635L215.93 68.6007L215.204 74.9231L217.046 74.9193Z" fill="#E98862"/>
<path d="M198.898 65.3132C198.221 65.0394 197.482 64.9527 196.76 65.0623C196.404 65.1141 196.057 65.2191 195.732 65.3738C195.41 65.5255 195.109 65.7172 194.834 65.9443C194.798 65.9749 194.775 66.018 194.77 66.065C194.764 66.112 194.777 66.1593 194.805 66.1972C194.834 66.2351 194.875 66.2609 194.922 66.2691C194.968 66.2774 195.016 66.2676 195.056 66.2418L195.068 66.2334C195.324 66.0401 195.604 65.8797 195.901 65.7561C196.194 65.6323 196.504 65.5536 196.82 65.5225C197.447 65.4564 198.08 65.5571 198.655 65.8143L198.673 65.8232C198.707 65.8422 198.744 65.854 198.782 65.8581C198.82 65.8621 198.859 65.8582 198.895 65.8466C198.932 65.835 198.966 65.816 198.995 65.7907C199.024 65.7654 199.047 65.7345 199.064 65.6997C199.08 65.665 199.089 65.6272 199.09 65.5888C199.091 65.5504 199.085 65.5122 199.07 65.4766C199.056 65.4409 199.034 65.4086 199.007 65.3817C198.98 65.3547 198.947 65.3337 198.911 65.32L198.898 65.3132Z" fill="#0C0C0C"/>
<path d="M204.581 65.5534C205.154 65.2913 205.786 65.1853 206.413 65.2463C206.729 65.2749 207.039 65.3511 207.332 65.472C207.63 65.5932 207.911 65.7513 208.169 65.9426L208.181 65.9504C208.22 65.9788 208.27 65.9903 208.318 65.9825C208.366 65.9747 208.41 65.9482 208.438 65.9088C208.467 65.8693 208.479 65.8201 208.472 65.7717C208.465 65.7234 208.439 65.6798 208.4 65.6505C208.124 65.4257 207.821 65.2365 207.497 65.0875C207.171 64.9356 206.824 64.8335 206.468 64.7847C205.744 64.6814 205.006 64.7748 204.332 65.0551C204.296 65.068 204.264 65.0881 204.236 65.114C204.209 65.1398 204.187 65.171 204.171 65.2057C204.156 65.2403 204.148 65.2777 204.148 65.3155C204.148 65.3533 204.155 65.3907 204.17 65.4255C204.185 65.4604 204.206 65.4918 204.234 65.5181C204.261 65.5443 204.293 65.5648 204.328 65.5782C204.364 65.5916 204.401 65.5976 204.439 65.596C204.477 65.5944 204.514 65.5852 204.548 65.5689L204.559 65.5643L204.581 65.5534Z" fill="#0C0C0C"/>
<path d="M217.003 67.088L217.03 66.9074C208.775 65.6122 209.213 57.6701 209.219 57.59L209.037 57.5776C209.032 57.6592 208.58 65.7663 217.003 67.088Z" fill="#0C0C0C"/>
<path opacity="0.1" d="M206.956 74.1577C207.866 74.0831 208.56 73.4813 208.505 72.8136C208.45 72.1459 207.668 71.6651 206.758 71.7397C205.848 71.8144 205.154 72.4162 205.209 73.0839C205.264 73.7516 206.046 74.2323 206.956 74.1577Z" fill="#0C0C0C"/>
<path opacity="0.1" d="M197.037 73.4606C197.09 74.1277 196.397 74.7288 195.487 74.8045C195.329 74.8175 195.171 74.814 195.015 74.794C194.816 74.0263 194.661 73.2797 194.543 72.5845C194.777 72.4726 195.031 72.4056 195.29 72.3868C196.199 72.3108 196.981 72.7913 197.037 73.4606Z" fill="#0C0C0C"/>
<path d="M180.523 115.203C180.937 120.07 182.953 147.729 183.351 153.723H238.243C238.554 148.317 239.947 127.379 241.122 116.806C242.244 106.717 244.448 99.9743 242.832 96.9918C240.196 92.1172 238.12 90.0794 230.873 89.3001C227.435 88.9416 223.965 89.0519 220.558 89.6281C220.558 89.6281 220.176 97.3601 211.062 97.7903C198.656 98.3757 199.48 89.6492 199.423 89.6281C196.865 88.693 188.973 88.2101 185.053 90.7987C177.574 95.7371 179.645 104.889 180.523 115.203Z" fill="#F78F20"/>
<path d="M197.159 69.6558C197.638 69.6558 198.027 69.2672 198.027 68.7878C198.027 68.3084 197.638 67.9198 197.159 67.9198C196.679 67.9198 196.291 68.3084 196.291 68.7878C196.291 69.2672 196.679 69.6558 197.159 69.6558Z" fill="#0C0C0C"/>
<path d="M205.673 69.1877C206.152 69.1877 206.541 68.799 206.541 68.3197C206.541 67.8403 206.152 67.4517 205.673 67.4517C205.193 67.4517 204.805 67.8403 204.805 68.3197C204.805 68.799 205.193 69.1877 205.673 69.1877Z" fill="#0C0C0C"/>
<path d="M180.943 118.362L180.579 118.382L181.017 126.111L181.382 126.09L180.943 118.362Z" fill="#0C0C0C"/>
<path d="M240.002 129.74C240.055 129.74 240.107 129.72 240.146 129.683C240.185 129.647 240.209 129.597 240.214 129.544L240.792 122.401C240.794 122.373 240.791 122.345 240.782 122.318C240.774 122.292 240.76 122.267 240.742 122.246C240.724 122.225 240.702 122.207 240.677 122.194C240.652 122.182 240.625 122.174 240.597 122.172C240.569 122.169 240.541 122.173 240.514 122.181C240.488 122.19 240.463 122.203 240.442 122.222C240.421 122.24 240.403 122.262 240.39 122.287C240.378 122.311 240.37 122.339 240.368 122.366L239.79 129.51C239.787 129.538 239.791 129.566 239.799 129.592C239.808 129.619 239.821 129.644 239.839 129.665C239.858 129.686 239.88 129.704 239.905 129.716C239.929 129.729 239.957 129.737 239.984 129.739C239.99 129.74 239.996 129.74 240.002 129.74Z" fill="#292A2E"/>
<path d="M179.266 187.165C179.266 187.165 171.929 186.139 169.342 192.452C166.755 198.765 162.099 195.613 162.099 195.613L170.518 170.986L182.822 175.193L179.266 187.165Z" fill="#F78F20"/>
<path d="M264.667 155.303C258.772 150.588 252.397 150.907 233.141 151.089C226.205 151.146 195.427 151.11 179.712 151.184C174.915 151.207 167.309 151.362 163.243 151.678C152.999 152.474 150.116 154.289 149.334 157.573C149.084 158.624 142.173 166.744 190.024 172.545H222.891C267.358 170.61 269.212 158.939 264.667 155.303Z" fill="#262626"/>
<path d="M169.473 154.945C178.829 153.179 213.828 161.08 213.828 161.08C213.828 161.08 250.571 152.002 256.688 154.054C269.237 158.262 208.403 175.763 208.403 175.763C208.403 175.763 158.628 156.992 169.473 154.945Z" fill="#0A0A0A"/>
<path d="M176.021 174.249L177.123 188.028C177.123 188.028 240.162 180.097 258.475 177.376C262.701 176.749 271.221 172.982 268.626 162.876C266.352 154.023 264.622 152.469 249.373 154.648C235.838 156.582 176.021 174.249 176.021 174.249Z" fill="#262626"/>
<path d="M176.68 181.355L177.123 188.027L208.46 184.255L176.68 181.355Z" fill="#0A0A0A"/>
<path d="M236.166 185.856C236.166 185.856 243.428 184.18 246.58 190.278C249.732 196.375 254.119 192.804 254.119 192.804L243.5 168.867L231.541 174.173L236.166 185.856Z" fill="#F78F20"/>
<path d="M239.765 169.556L237.737 188.01C237.737 188.01 171.377 182.823 153.681 177.376C149.598 176.119 143.048 172.543 145.464 162.393C147.528 153.723 152.714 151.863 166.248 153.796C179.781 155.73 239.765 169.556 239.765 169.556Z" fill="#262626"/>
<path d="M177.209 135.367L185.358 132.511L184.188 132.43C183.811 132.396 183.461 132.221 183.208 131.939C182.955 131.657 182.819 131.29 182.827 130.911C182.838 130.716 182.888 130.525 182.975 130.35C183.062 130.174 183.184 130.019 183.333 129.892C183.482 129.766 183.655 129.671 183.842 129.614C184.029 129.556 184.226 129.538 184.421 129.559L198.837 131.091L198.462 135.724C198.346 137.163 197.803 138.534 196.902 139.662C196.001 140.79 194.783 141.624 193.406 142.055L187.163 144C186.84 144.107 186.491 144.1 186.173 143.979C185.855 143.858 185.589 143.632 185.42 143.337C185.272 143.068 185.215 142.759 185.255 142.455C185.296 142.15 185.433 141.867 185.646 141.646C185.632 141.637 185.62 141.624 185.612 141.61C185.603 141.595 185.597 141.579 185.595 141.562C185.592 141.546 185.593 141.529 185.598 141.512C185.602 141.496 185.61 141.481 185.621 141.467L184.47 141.828C184.111 141.949 183.72 141.929 183.375 141.772C183.03 141.615 182.758 141.333 182.614 140.983C182.495 140.666 182.493 140.317 182.606 139.998C182.72 139.679 182.942 139.41 183.234 139.239C183.22 139.232 183.208 139.223 183.198 139.212L182.725 139.36C182.403 139.468 182.053 139.46 181.736 139.339C181.418 139.219 181.152 138.992 180.982 138.697C180.803 138.371 180.757 137.987 180.855 137.628C180.952 137.268 181.185 136.961 181.504 136.769C181.502 136.76 181.5 136.75 181.5 136.74L178.107 137.93C177.768 138.044 177.398 138.02 177.078 137.863C176.757 137.706 176.511 137.429 176.393 137.092C176.274 136.755 176.294 136.385 176.447 136.063C176.599 135.74 176.873 135.49 177.209 135.368L177.209 135.367Z" fill="#E98862"/>
<path opacity="0.2" d="M181.634 136.872C181.65 136.872 181.666 136.87 181.68 136.864L184.963 135.671C184.98 135.665 184.996 135.656 185.01 135.644C185.023 135.632 185.035 135.618 185.043 135.601C185.051 135.585 185.055 135.567 185.056 135.549C185.057 135.531 185.054 135.513 185.048 135.496C185.042 135.479 185.032 135.463 185.02 135.45C185.008 135.437 184.993 135.426 184.976 135.419C184.959 135.411 184.942 135.407 184.923 135.407C184.905 135.407 184.887 135.41 184.87 135.417L181.588 136.61C181.558 136.621 181.533 136.642 181.517 136.67C181.502 136.697 181.496 136.73 181.502 136.761C181.507 136.792 181.523 136.82 181.548 136.841C181.572 136.861 181.602 136.872 181.634 136.872Z" fill="#0A0A0A"/>
<path opacity="0.2" d="M183.293 139.259C183.309 139.259 183.324 139.256 183.338 139.251L185.926 138.333C185.943 138.328 185.959 138.319 185.973 138.307C185.986 138.295 185.998 138.281 186.006 138.264C186.014 138.248 186.018 138.231 186.02 138.212C186.021 138.194 186.018 138.176 186.012 138.159C186.006 138.142 185.997 138.126 185.984 138.113C185.972 138.1 185.957 138.089 185.941 138.081C185.924 138.074 185.906 138.07 185.888 138.069C185.87 138.069 185.852 138.072 185.835 138.078L183.248 138.996C183.218 139.007 183.193 139.028 183.177 139.056C183.161 139.083 183.155 139.115 183.16 139.147C183.166 139.178 183.182 139.207 183.206 139.227C183.231 139.248 183.261 139.259 183.293 139.259Z" fill="#0A0A0A"/>
<path opacity="0.2" d="M185.731 141.681C185.747 141.681 185.763 141.678 185.779 141.672L186.991 141.21C187.023 141.196 187.049 141.17 187.063 141.138C187.077 141.106 187.077 141.069 187.065 141.037C187.052 141.004 187.028 140.977 186.996 140.962C186.964 140.947 186.928 140.945 186.894 140.957L185.683 141.419C185.653 141.43 185.628 141.452 185.613 141.479C185.598 141.507 185.592 141.539 185.598 141.57C185.604 141.601 185.62 141.629 185.644 141.649C185.669 141.669 185.699 141.681 185.731 141.681Z" fill="#0A0A0A"/>
<path d="M192.797 145.453L243.319 153.829C244.877 153.999 246.452 153.805 247.923 153.263C249.393 152.721 250.717 151.846 251.792 150.707C252.867 149.567 253.664 148.194 254.119 146.695C254.574 145.196 254.676 143.611 254.416 142.066L243.818 99.9571C243.598 98.644 243.12 97.3871 242.413 96.2585C241.707 95.1298 240.785 94.1513 239.7 93.379C237.509 91.8192 234.788 91.1935 232.136 91.6397C229.484 92.0859 227.118 93.5673 225.558 95.7582C223.998 97.949 223.373 100.67 223.819 103.322L231.906 132.352L195.194 127.337L192.797 145.453Z" fill="#E88A26"/>
<path d="M238.491 133.295C238.525 133.295 238.558 133.282 238.583 133.259C238.607 133.236 238.623 133.204 238.625 133.17C238.628 133.136 238.617 133.103 238.596 133.076C238.575 133.05 238.545 133.032 238.511 133.027L232.214 132.083C232.196 132.08 232.178 132.081 232.161 132.085C232.144 132.089 232.127 132.097 232.113 132.107C232.099 132.118 232.087 132.131 232.077 132.147C232.068 132.162 232.062 132.179 232.06 132.197C232.055 132.232 232.064 132.268 232.085 132.297C232.106 132.326 232.138 132.345 232.174 132.35L238.471 133.293C238.478 133.294 238.484 133.295 238.491 133.295Z" fill="#0C0C0C"/>
<path d="M241.913 154.023C241.931 154.024 241.948 154.022 241.965 154.016C241.982 154.01 241.998 154.001 242.011 153.99C242.024 153.978 242.035 153.964 242.043 153.948C242.051 153.932 242.056 153.914 242.057 153.897C242.058 153.879 242.056 153.861 242.05 153.844C242.044 153.827 242.035 153.812 242.024 153.798C242.012 153.785 241.998 153.774 241.982 153.766C241.966 153.758 241.948 153.754 241.93 153.753L193.081 145.35L195.448 127.503L231.906 132.351C231.927 132.354 231.948 132.352 231.968 132.345C231.988 132.338 232.006 132.326 232.021 132.311C232.036 132.296 232.047 132.277 232.053 132.257C232.059 132.237 232.061 132.216 232.057 132.195L228.112 115.175C228.109 115.157 228.103 115.141 228.094 115.125C228.084 115.11 228.072 115.097 228.058 115.087C228.043 115.076 228.027 115.069 228.009 115.065C227.992 115.061 227.974 115.061 227.956 115.064C227.939 115.067 227.922 115.073 227.907 115.083C227.892 115.092 227.879 115.104 227.868 115.119C227.858 115.133 227.851 115.15 227.847 115.167C227.843 115.184 227.842 115.202 227.845 115.22L231.76 132.059L195.347 127.215C195.329 127.213 195.311 127.214 195.293 127.219C195.276 127.223 195.26 127.231 195.245 127.242C195.231 127.254 195.22 127.268 195.211 127.283C195.202 127.299 195.197 127.317 195.195 127.334L192.797 145.452C192.794 145.487 192.804 145.522 192.826 145.55C192.847 145.578 192.879 145.596 192.914 145.6L241.895 154.021C241.901 154.022 241.907 154.023 241.913 154.023Z" fill="#0C0C0C"/>
<path d="M194.721 149.67L183.134 114.053C182.931 113.427 182.534 112.882 182.002 112.495C181.469 112.108 180.828 111.9 180.17 111.9H132.965C132.473 111.9 131.987 112.016 131.549 112.24C131.11 112.463 130.731 112.787 130.442 113.186C130.152 113.584 129.962 114.045 129.885 114.531C129.808 115.017 129.848 115.515 130 115.983L141.587 151.599C141.79 152.225 142.187 152.77 142.719 153.157C143.252 153.544 143.893 153.752 144.551 153.752H191.756C192.248 153.752 192.734 153.636 193.172 153.412C193.61 153.189 193.99 152.865 194.279 152.467C194.568 152.068 194.759 151.607 194.836 151.121C194.912 150.635 194.873 150.138 194.721 149.67Z" fill="#292A2E"/>
<path d="M216.868 150.864H185.269C184.482 150.864 183.844 151.502 183.844 152.289V152.326C183.844 153.113 184.482 153.752 185.269 153.752H216.868C217.656 153.752 218.294 153.113 218.294 152.326V152.289C218.294 151.502 217.656 150.864 216.868 150.864Z" fill="#292A2E"/>
<path d="M216.741 150.645H182.79C181.932 150.645 181.237 151.341 181.237 152.199V152.199C181.237 153.057 181.932 153.752 182.79 153.752H216.741C217.599 153.752 218.294 153.057 218.294 152.199V152.199C218.294 151.341 217.599 150.645 216.741 150.645Z" fill="white"/>
<path d="M216.741 154.022H182.79C182.31 154.017 181.852 153.822 181.515 153.48C181.177 153.139 180.988 152.679 180.988 152.199C180.988 151.719 181.177 151.258 181.515 150.917C181.852 150.575 182.31 150.381 182.79 150.375H216.741C217.221 150.381 217.679 150.575 218.016 150.917C218.353 151.258 218.542 151.719 218.542 152.199C218.542 152.679 218.353 153.139 218.016 153.48C217.679 153.822 217.221 154.017 216.741 154.022ZM182.79 150.916C182.453 150.921 182.131 151.058 181.895 151.298C181.658 151.538 181.526 151.862 181.526 152.199C181.526 152.536 181.658 152.859 181.895 153.099C182.131 153.339 182.453 153.477 182.79 153.482H216.741C217.078 153.477 217.399 153.339 217.636 153.099C217.873 152.859 218.005 152.536 218.005 152.199C218.005 151.862 217.873 151.538 217.636 151.298C217.399 151.058 217.078 150.921 216.741 150.916H182.79Z" fill="#292A2E"/>
<path d="M194.721 149.67L183.134 114.053C182.931 113.427 182.534 112.882 182.002 112.495C181.469 112.108 180.828 111.9 180.17 111.9H132.965C132.473 111.9 131.987 112.016 131.549 112.24C131.11 112.463 130.731 112.787 130.442 113.186C130.152 113.584 129.962 114.045 129.885 114.531C129.808 115.017 129.848 115.515 130 115.983L141.587 151.599C141.79 152.225 142.187 152.77 142.719 153.157C143.252 153.544 143.893 153.752 144.551 153.752H191.756C192.248 153.752 192.734 153.636 193.172 153.412C193.61 153.189 193.99 152.865 194.279 152.467C194.568 152.068 194.759 151.607 194.836 151.121C194.912 150.635 194.873 150.138 194.721 149.67Z" fill="white"/>
<path d="M191.757 154.022H144.552C143.836 154.023 143.139 153.798 142.56 153.377C141.981 152.957 141.551 152.363 141.33 151.682L129.743 116.065C129.578 115.557 129.536 115.017 129.619 114.489C129.703 113.961 129.91 113.46 130.225 113.027C130.539 112.595 130.951 112.243 131.427 112C131.904 111.757 132.431 111.631 132.965 111.631H180.171C180.887 111.629 181.584 111.855 182.163 112.276C182.742 112.696 183.173 113.29 183.393 113.97L194.979 149.586C195.144 150.095 195.186 150.635 195.103 151.163C195.019 151.691 194.812 152.192 194.497 152.624C194.183 153.057 193.771 153.409 193.295 153.651C192.818 153.894 192.292 154.021 191.757 154.021V154.022ZM132.965 112.17C132.516 112.17 132.073 112.276 131.672 112.48C131.272 112.684 130.926 112.98 130.661 113.344C130.397 113.708 130.223 114.129 130.153 114.573C130.083 115.016 130.119 115.471 130.258 115.898L141.845 151.515C142.029 152.087 142.391 152.586 142.878 152.939C143.364 153.293 143.951 153.483 144.552 153.481H191.757C192.206 153.481 192.649 153.375 193.05 153.171C193.45 152.967 193.796 152.671 194.06 152.307C194.325 151.944 194.499 151.523 194.569 151.079C194.639 150.635 194.603 150.181 194.464 149.754L182.878 114.136C182.693 113.564 182.331 113.066 181.845 112.712C181.358 112.359 180.773 112.169 180.171 112.17H132.965Z" fill="#292A2E"/>
<path d="M161.117 138.246C163.852 138.246 166.068 136.03 166.068 133.295C166.068 130.561 163.852 128.345 161.117 128.345C158.383 128.345 156.167 130.561 156.167 133.295C156.167 136.03 158.383 138.246 161.117 138.246Z" fill="white"/>
<path d="M161.118 138.517C160.085 138.517 159.076 138.21 158.217 137.637C157.358 137.063 156.689 136.247 156.294 135.293C155.899 134.339 155.795 133.289 155.997 132.277C156.198 131.264 156.696 130.333 157.426 129.603C158.156 128.873 159.086 128.376 160.099 128.174C161.112 127.973 162.162 128.076 163.116 128.472C164.07 128.867 164.886 129.536 165.459 130.395C166.033 131.253 166.339 132.263 166.339 133.296C166.337 134.68 165.787 136.007 164.808 136.986C163.829 137.964 162.502 138.515 161.118 138.517ZM161.118 128.615C160.192 128.615 159.287 128.889 158.517 129.404C157.748 129.918 157.148 130.649 156.794 131.504C156.439 132.359 156.347 133.3 156.527 134.208C156.708 135.116 157.154 135.95 157.808 136.605C158.463 137.259 159.297 137.705 160.204 137.886C161.112 138.066 162.053 137.974 162.909 137.62C163.764 137.265 164.495 136.666 165.009 135.896C165.524 135.126 165.798 134.221 165.798 133.296C165.797 132.055 165.303 130.865 164.426 129.987C163.548 129.11 162.359 128.616 161.118 128.615Z" fill="#292A2E"/>
<path d="M114.33 51.1825C119.593 45.9315 126.723 42.9825 134.157 42.9825C141.591 42.9825 148.721 45.9315 153.983 51.1825C154.136 51.3357 154.318 51.4572 154.518 51.5401C154.718 51.6229 154.933 51.6656 155.149 51.6656C155.366 51.6656 155.58 51.6229 155.78 51.5401C155.981 51.4572 156.162 51.3357 156.316 51.1825C156.469 51.0293 156.59 50.8475 156.673 50.6473C156.756 50.4472 156.799 50.2327 156.799 50.0161C156.799 49.7995 156.756 49.585 156.673 49.3848C156.59 49.1847 156.469 49.0029 156.316 48.8497C150.434 42.9813 142.465 39.6855 134.157 39.6855C125.849 39.6855 117.88 42.9813 111.998 48.8497C111.842 49.0021 111.717 49.1841 111.632 49.385C111.546 49.5859 111.501 49.8019 111.5 50.0202C111.499 50.2386 111.541 50.4551 111.623 50.6572C111.706 50.8592 111.829 51.0427 111.983 51.1972C112.137 51.3516 112.321 51.4739 112.523 51.5568C112.725 51.6398 112.941 51.6818 113.16 51.6804C113.378 51.679 113.594 51.6343 113.795 51.5488C113.996 51.4634 114.178 51.3388 114.33 51.1825Z" fill="#F6CE3E"/>
<path d="M121.328 58.1798C124.733 54.7826 129.347 52.8748 134.157 52.8748C138.967 52.8748 143.58 54.7826 146.986 58.1798C147.138 58.3362 147.32 58.4607 147.521 58.5462C147.722 58.6317 147.938 58.6765 148.156 58.6779C148.375 58.6792 148.591 58.6373 148.793 58.5543C148.995 58.4714 149.179 58.3492 149.333 58.1948C149.488 58.0403 149.61 57.8568 149.693 57.6548C149.776 57.4527 149.818 57.2363 149.816 57.0179C149.815 56.7995 149.77 56.5836 149.685 56.3826C149.599 56.1817 149.475 55.9997 149.318 55.8473C145.294 51.8323 139.842 49.5775 134.157 49.5775C128.472 49.5775 123.02 51.8323 118.996 55.8473C118.839 55.9997 118.715 56.1817 118.629 56.3826C118.544 56.5836 118.499 56.7995 118.498 57.0179C118.496 57.2363 118.538 57.4527 118.621 57.6548C118.704 57.8568 118.826 58.0403 118.981 58.1948C119.135 58.3492 119.319 58.4714 119.521 58.5543C119.723 58.6373 119.939 58.6792 120.158 58.6779C120.376 58.6765 120.592 58.6317 120.793 58.5462C120.994 58.4607 121.176 58.3362 121.328 58.1798Z" fill="#F6CE3E"/>
<path d="M128.326 65.1772C129.874 63.633 131.971 62.7658 134.157 62.7658C136.343 62.7658 138.44 63.633 139.988 65.1772C140.299 65.48 140.716 65.6482 141.15 65.6455C141.584 65.6427 141.999 65.4691 142.306 65.1624C142.613 64.8556 142.786 64.4403 142.789 64.0065C142.792 63.5727 142.624 63.1553 142.321 62.8446C140.154 60.6827 137.218 59.4685 134.157 59.4685C131.096 59.4685 128.16 60.6827 125.993 62.8446C125.693 63.1556 125.526 63.5724 125.53 64.0051C125.533 64.4378 125.707 64.8517 126.013 65.1577C126.319 65.4637 126.732 65.6372 127.165 65.6408C127.598 65.6445 128.015 65.478 128.326 65.1772Z" fill="#F6CE3E"/>
<path d="M134.157 75.7036C136.064 75.7036 137.61 74.1576 137.61 72.2505C137.61 70.3434 136.064 68.7974 134.157 68.7974C132.25 68.7974 130.704 70.3434 130.704 72.2505C130.704 74.1576 132.25 75.7036 134.157 75.7036Z" fill="#F6CE3E"/>
</svg>
