<svg width="403" height="242" viewBox="0 0 403 242" fill="none" xmlns="http://www.w3.org/2000/svg">
<rect width="403" height="242" fill="#B7DCE1"/>
<g clip-path="url(#clip0_813_1567)">
<path d="M331.5 200.497H71.5C74.3489 192.816 79.6091 186.3 87.0267 184.367C97.876 181.543 109.357 189.308 120.183 186.388C126.333 184.732 131.175 179.903 136.262 175.893C155.457 160.763 181.76 156.292 204.473 164.3C216.345 168.484 227.163 175.8 239.325 178.911C255.051 182.934 271.497 179.598 287.67 179.048C303.421 178.513 325.989 185.298 331.5 200.497Z" fill="#F3F5FD"/>
<path d="M269.285 41.5728C270.575 41.5728 271.62 40.4671 271.62 39.1033C271.62 37.7394 270.575 36.6338 269.285 36.6338C267.995 36.6338 266.949 37.7394 266.949 39.1033C266.949 40.4671 267.995 41.5728 269.285 41.5728Z" fill="white"/>
<path d="M279.41 144.065C279.41 144.065 277.506 151.28 276.436 155.024C276.385 155.201 276.375 155.389 276.405 155.571C276.435 155.754 276.505 155.926 276.61 156.075C276.714 156.224 276.85 156.344 277.007 156.428C277.163 156.511 277.336 156.554 277.512 156.554H284.196C284.484 156.554 284.762 156.436 284.971 156.225C285.18 156.015 285.304 155.727 285.318 155.422L285.768 145.379L279.41 144.065Z" fill="#0F1011"/>
<path d="M289.654 160.114C289.654 160.114 287.71 159.027 288.139 153.433L284.124 152.65C284.124 152.65 284.579 157.664 282.55 159.259L289.654 160.114Z" fill="#E98862"/>
<path opacity="0.15" d="M283.371 158.21L286.704 155.509L284.085 155.482C284.01 156.43 283.768 157.355 283.371 158.21Z" fill="black"/>
<path d="M290.415 151.262C290.139 152.959 289.264 154.567 287.848 155.117C286.305 155.766 284.636 156.006 282.985 155.816C278.59 155.439 279.45 144.874 281.535 142.82C283.62 140.766 289.744 142.06 290.492 145.491C290.879 147.266 290.678 149.648 290.415 151.262Z" fill="#E98862"/>
<path d="M284.127 149.96C284.328 149.96 284.491 149.788 284.491 149.576C284.491 149.363 284.328 149.191 284.127 149.191C283.926 149.191 283.763 149.363 283.763 149.576C283.763 149.788 283.926 149.96 284.127 149.96Z" fill="#0F1011"/>
<path d="M281.254 149.714C281.455 149.714 281.618 149.542 281.618 149.329C281.618 149.117 281.455 148.944 281.254 148.944C281.053 148.944 280.89 149.117 280.89 149.329C280.89 149.542 281.053 149.714 281.254 149.714Z" fill="#0F1011"/>
<path d="M281.587 148.315L280.623 148.329" stroke="#0F1011" stroke-width="0.800849" stroke-miterlimit="10" stroke-linecap="round"/>
<path d="M284.912 148.697L283.961 148.456" stroke="#0F1011" stroke-width="0.800849" stroke-miterlimit="10" stroke-linecap="round"/>
<path d="M283.961 152.607C283.961 152.607 282.617 152.758 281.674 152.411C281.674 152.411 281.683 153.347 282.746 153.438C283.81 153.53 283.961 152.607 283.961 152.607Z" fill="white"/>
<g opacity="0.15">
<path d="M282.512 151.712C282.542 151.712 282.572 151.701 282.595 151.68C282.618 151.66 282.633 151.631 282.637 151.599C282.642 151.567 282.635 151.535 282.619 151.508C282.603 151.481 282.578 151.461 282.549 151.452L281.809 151.213L282.326 149.993C282.333 149.977 282.338 149.959 282.339 149.941C282.34 149.924 282.337 149.906 282.331 149.889C282.326 149.872 282.317 149.856 282.305 149.843C282.294 149.83 282.28 149.82 282.264 149.812C282.249 149.805 282.232 149.801 282.215 149.801C282.198 149.8 282.182 149.804 282.166 149.811C282.15 149.817 282.136 149.827 282.124 149.84C282.112 149.853 282.103 149.868 282.096 149.885L281.463 151.379L282.476 151.707C282.487 151.711 282.5 151.712 282.512 151.712Z" fill="black"/>
</g>
<path d="M279.181 144.93C279.181 144.93 279.825 139.428 288.164 140.779C290.243 141.116 293.19 142.832 293.667 148.456C293.885 151.036 294.727 153.469 295.368 155.009C295.444 155.189 295.476 155.387 295.462 155.585C295.447 155.782 295.386 155.972 295.284 156.138C295.182 156.304 295.043 156.44 294.878 156.534C294.714 156.629 294.53 156.678 294.343 156.679L288.48 156.681C288.333 156.681 288.187 156.651 288.051 156.591C287.915 156.532 287.791 156.445 287.687 156.335C287.582 156.225 287.499 156.094 287.443 155.951C287.386 155.807 287.357 155.653 287.357 155.497C287.357 155.479 287.357 155.462 287.357 155.444C287.399 154.389 287.432 152.603 287.375 149.873C287.07 148.315 287.882 147.217 286.704 147.575C282.328 148.902 279.51 145.019 279.181 144.93Z" fill="#0F1011"/>
<path d="M285.967 151.233C285.934 151.664 286.064 152.092 286.329 152.422C286.594 152.752 286.972 152.956 287.381 152.991C287.789 153.026 288.193 152.889 288.505 152.608C288.817 152.328 289.011 151.928 289.044 151.497C289.083 151.073 288.961 150.651 288.706 150.322C288.45 149.993 288.082 149.785 287.681 149.743C287.664 149.742 287.647 149.74 287.631 149.739C286.53 149.701 286.036 150.335 285.967 151.233Z" fill="#E98862"/>
<path d="M274.588 198.526C274.11 198.441 268.733 197.47 268.733 197.47" stroke="#E98862" stroke-width="12.3479" stroke-miterlimit="10"/>
<path d="M265.216 206.552C265.193 206.7 265.199 206.851 265.234 206.997C265.269 207.142 265.333 207.278 265.42 207.397C265.507 207.515 265.616 207.613 265.741 207.685C265.865 207.757 266.002 207.801 266.144 207.814C266.34 207.832 266.536 207.791 266.711 207.695C266.885 207.599 267.03 207.452 267.129 207.272L270.172 201.227C270.23 201.11 270.264 200.981 270.271 200.849C270.278 200.717 270.258 200.584 270.212 200.461C269.774 199.478 269.645 198.373 269.845 197.307C270.033 196.483 270.437 195.731 271.01 195.138C271.065 195.086 271.106 195.019 271.127 194.945C271.148 194.87 271.148 194.79 271.128 194.715C271.108 194.641 271.068 194.573 271.013 194.521C270.958 194.469 270.89 194.435 270.817 194.423L267.855 193.898C267.768 193.883 267.678 193.886 267.592 193.907C267.506 193.928 267.424 193.967 267.352 194.021C267.28 194.076 267.219 194.145 267.172 194.225C267.125 194.304 267.094 194.393 267.08 194.485L265.216 206.552Z" fill="#C1D8ED"/>
<path d="M290.825 186.404C293.062 186.502 295.337 186.571 297.613 186.631L301.035 186.71L304.452 186.775L304.792 186.782C306.204 186.81 307.553 187.403 308.567 188.441C309.581 189.479 310.186 190.885 310.258 192.375C310.331 193.866 309.866 195.33 308.958 196.472C308.05 197.615 306.766 198.351 305.364 198.532L271.593 202.867L270.217 192.316L303.838 186.829L304.75 198.585L301.28 198.822L297.813 199.044C295.497 199.185 293.181 199.318 290.823 199.42L290.825 186.404Z" fill="#262626"/>
<path d="M294.75 195.38C295.217 195.513 299.725 196.206 299.725 196.206" stroke="#E98862" stroke-width="12.3479" stroke-miterlimit="10"/>
<path d="M305.168 203.761C305.217 203.902 305.238 204.052 305.23 204.202C305.222 204.352 305.184 204.498 305.12 204.632C305.056 204.766 304.966 204.884 304.857 204.98C304.747 205.075 304.62 205.146 304.484 205.187C304.295 205.244 304.094 205.243 303.906 205.184C303.717 205.125 303.548 205.01 303.42 204.853L299.346 199.529C299.268 199.425 299.212 199.305 299.181 199.177C299.151 199.049 299.147 198.915 299.17 198.785C299.424 197.732 299.352 196.621 298.964 195.615C298.632 194.843 298.101 194.186 297.432 193.718C297.368 193.679 297.316 193.621 297.282 193.552C297.248 193.483 297.234 193.405 297.24 193.327C297.246 193.25 297.274 193.176 297.318 193.114C297.363 193.052 297.423 193.005 297.493 192.978L300.307 191.868C300.39 191.836 300.478 191.821 300.567 191.824C300.655 191.827 300.742 191.849 300.823 191.888C300.903 191.928 300.976 191.983 301.036 192.052C301.096 192.121 301.143 192.201 301.173 192.289L305.168 203.761Z" fill="#C1D8ED"/>
<path d="M283.327 198.464C281.912 198.337 280.497 198.245 279.083 198.159C277.669 198.079 276.254 198 274.841 197.946L272.72 197.86L270.599 197.795C269.186 197.746 267.773 197.725 266.359 197.696L266.849 186.962C269.495 187.353 272.144 187.712 274.792 188.081C277.44 188.449 280.092 188.788 282.743 189.132L286.721 189.628L290.703 190.1C293.358 190.402 296.014 190.702 298.676 190.948L297.508 201.529C294.864 201.122 292.214 200.767 289.564 200.413L285.587 199.903L281.607 199.417C278.953 199.107 276.299 198.792 273.642 198.505C270.986 198.218 268.329 197.923 265.669 197.66C264.393 197.533 263.21 196.902 262.356 195.892C261.502 194.883 261.039 193.57 261.062 192.216C261.084 190.861 261.589 189.566 262.476 188.589C263.362 187.611 264.566 187.024 265.844 186.944L266.159 186.925C267.57 186.838 268.982 186.758 270.392 186.649L272.509 186.496L274.625 186.321C276.035 186.209 277.445 186.07 278.855 185.932C280.266 185.786 281.676 185.635 283.085 185.449L283.327 198.464Z" fill="#262626"/>
<path d="M295.96 184.774L296.704 197.978L275.223 197.712L276.844 186.022L295.96 184.774Z" fill="#262626"/>
<path d="M262.682 160.079C262.682 160.079 262.644 156.889 260.487 157.055C259.126 157.159 252.659 156.842 252.563 157.465C252.325 159.006 258.24 159.382 258.777 160.818L262.682 160.079Z" fill="#E98862"/>
<path d="M303.511 182.184L297.417 163.028C297.169 162.095 296.688 161.251 296.024 160.584C294.876 159.37 292.893 158.586 290.476 158.584C290.295 160.074 281.737 160.079 281.671 158.618C281.345 158.623 281.091 158.629 280.933 158.637C278.569 158.745 277.171 159.436 276.381 160.539L268.315 168.837L262.935 158.214L258.284 160.848L265.319 174.736C265.512 175.117 265.786 175.445 266.12 175.695C266.454 175.945 266.837 176.109 267.241 176.176C267.645 176.242 268.058 176.208 268.448 176.076C268.837 175.945 269.192 175.72 269.485 175.418L275.885 168.834C276.137 170.553 276.288 172.287 276.34 174.026C276.438 182.649 274.234 184.274 275.32 186.91C276.372 189.468 297.06 190.53 297.336 186.03C297.339 185.983 297.34 185.936 297.341 185.889L300.831 186.001C300.859 186.001 300.887 186.001 300.915 186.001C301.35 186.001 301.778 185.892 302.165 185.682C302.552 185.473 302.886 185.169 303.14 184.796C303.393 184.422 303.559 183.991 303.624 183.536C303.688 183.082 303.65 182.617 303.511 182.182L303.511 182.184ZM297.063 180.086L295.814 180.045C295.353 178.437 295.121 176.766 295.125 175.086C295.125 174.768 295.142 174.452 295.171 174.139L297.063 180.086Z" fill="#F78F20"/>
<path d="M281.671 158.619C281.737 160.08 282.488 162.229 284.807 162.391C287.898 162.606 290.295 160.075 290.476 158.584H290.469C287.426 158.584 283.445 158.59 281.671 158.619Z" fill="#E98862"/>
<path d="M288.814 165.918L289.702 179.912C289.712 180.077 289.69 180.243 289.638 180.399C289.585 180.554 289.503 180.697 289.396 180.818C289.289 180.938 289.16 181.035 289.017 181.1C288.873 181.166 288.719 181.2 288.562 181.2H270.074C269.792 181.2 269.519 181.09 269.309 180.89C269.1 180.689 268.967 180.414 268.938 180.117L267.57 166.123C267.554 165.955 267.571 165.785 267.621 165.624C267.67 165.464 267.751 165.316 267.858 165.19C267.965 165.065 268.096 164.964 268.242 164.896C268.388 164.827 268.546 164.792 268.706 164.792H287.674C287.964 164.792 288.243 164.908 288.454 165.117C288.666 165.326 288.794 165.613 288.814 165.918Z" fill="#9EBCEA"/>
<path d="M271.619 181.201H291.044C291.484 181.201 291.841 180.823 291.841 180.358C291.841 179.893 291.484 179.515 291.044 179.515H271.619C271.179 179.515 270.822 179.893 270.822 180.358C270.822 180.823 271.179 181.201 271.619 181.201Z" fill="#9EBCEA"/>
<path d="M278.146 174.856C279.118 174.856 279.905 174.024 279.905 172.997C279.905 171.97 279.118 171.137 278.146 171.137C277.175 171.137 276.387 171.97 276.387 172.997C276.387 174.024 277.175 174.856 278.146 174.856Z" fill="white"/>
<path d="M280.681 182.978C281.809 183.714 283.555 184.062 285.078 184.189L285.164 181.257C284.448 181.235 283.347 181.155 282.269 181.201C281.782 180.781 281.502 180.656 281.002 180.128C280.469 179.565 279.073 179.227 278.809 180.128C278.545 181.028 279.691 182.33 280.681 182.978Z" fill="#E98862"/>
<path d="M108.461 142.327L105.871 141.679L102.625 156.197L105.214 156.844L108.461 142.327Z" fill="#F0F6FF"/>
<path d="M103.023 140.552L101.586 140.833L103.809 153.575L105.247 153.295L103.023 140.552Z" fill="#C1D8ED"/>
<path d="M103.023 140.548L101.587 140.837L101.84 142.242L103.276 141.953L103.023 140.548Z" fill="#DEE8F5"/>
<path d="M107.473 143.793L102.814 156.295L103.613 156.628L108.272 144.125L107.473 143.793Z" fill="#0CBC8B"/>
<path d="M108.494 149.262H101.471V158.751H108.494V149.262Z" fill="#262626"/>
<path d="M115.98 197.267H113.083V200.643H115.98V197.267Z" fill="#C1D8ED"/>
<path d="M88.4228 197.267H85.5264V200.643H88.4228V197.267Z" fill="#C1D8ED"/>
<path d="M83.0327 197.658H95.1853V158.78H83.0327V197.658Z" fill="#C1D8ED"/>
<path d="M116.017 197.267H128.462V159.641H116.017V197.267Z" fill="#C1D8ED"/>
<path d="M94.3672 158.779H129.28V197.658H94.3672V158.779ZM127.643 160.51H96.0042V195.927H127.643V160.51Z" fill="#DEE8F5"/>
<path d="M94.3669 176.223H129.28V197.658H94.3669V176.223ZM127.643 177.954H96.004V195.928H127.643V177.954Z" fill="#DEE8F5"/>
<path d="M113.453 163.594V166.07V176.209H98.6216V166.07V163.594H113.453Z" fill="#C1D8ED"/>
<path d="M118.314 166.07H103.483V176.209H118.314V166.07Z" fill="#DEE8F5"/>
<path d="M118.314 166.07H103.483V166.83H118.314V166.07Z" fill="#C1D8ED"/>
<path d="M103.483 166.07H118.314V163.594H103.483V166.07Z" fill="#DEE8F5"/>
<path d="M109.254 169.629H112.542C112.731 169.629 112.884 169.467 112.884 169.268V168.468C112.884 168.268 112.731 168.106 112.542 168.106H109.254C109.066 168.106 108.913 168.268 108.913 168.468V169.268C108.913 169.467 109.066 169.629 109.254 169.629Z" fill="white"/>
<path d="M127.05 197.267H124.154V200.643H127.05V197.267Z" fill="#DEE8F5"/>
<path d="M99.4934 197.267H96.5969V200.643H99.4934V197.267Z" fill="#DEE8F5"/>
<path d="M99.8921 195.927H116.016V192.067H99.8921V195.927Z" fill="#C1D8ED"/>
<path d="M99.6152 188.216H115.739V184.356H99.6152V188.216Z" fill="#C1D8ED"/>
<path d="M105.394 195.927H122.446V192.067H105.394V195.927Z" fill="#DEE8F5"/>
<path opacity="0.62" d="M106.786 195.927H107.614V192.067H106.786V195.927Z" fill="#C1D8ED"/>
<path opacity="0.62" d="M108.441 195.927H109.269V192.067H108.441V195.927Z" fill="#C1D8ED"/>
<path d="M120.491 195.242C121.141 195.242 121.668 194.684 121.668 193.997C121.668 193.309 121.141 192.752 120.491 192.752C119.84 192.752 119.313 193.309 119.313 193.997C119.313 194.684 119.84 195.242 120.491 195.242Z" fill="#F3F5FD"/>
<path d="M105.117 188.216H122.169V184.356H105.117V188.216Z" fill="#DEE8F5"/>
<path d="M109.172 187.346H121.071V185.225H109.172V187.346Z" fill="#F3F5FD"/>
<path opacity="0.62" d="M106.509 188.216H108.075V184.356H106.509V188.216Z" fill="#C1D8ED"/>
<path d="M114.701 188.212H98.5769V192.072H114.701V188.212Z" fill="#C1D8ED"/>
<path d="M121.13 188.212H104.079V192.072H121.13V188.212Z" fill="#F3F5FD"/>
<path d="M119.739 188.212H118.911V192.071H119.739V188.212Z" fill="#DEE8F5"/>
<path d="M118.083 188.212H117.255V192.071H118.083V188.212Z" fill="#DEE8F5"/>
<path d="M106.033 191.387C106.684 191.387 107.211 190.829 107.211 190.142C107.211 189.454 106.684 188.897 106.033 188.897C105.383 188.897 104.856 189.454 104.856 190.142C104.856 190.829 105.383 191.387 106.033 191.387Z" fill="#DEE8F5"/>
<path d="M108.453 191.088H115.98V189.196H108.453V191.088Z" fill="#DEE8F5"/>
<path d="M274.511 34.1818H118.448V153.668H274.511V34.1818Z" fill="#DEE8F5"/>
<path d="M153.633 117.073H124.154V148.239H153.633V117.073Z" fill="white"/>
<path d="M191.954 117.073H162.475V148.239H191.954V117.073Z" fill="white"/>
<path d="M230.275 117.073H200.796V148.239H230.275V117.073Z" fill="white"/>
<path d="M268.596 117.073H239.117V148.239H268.596V117.073Z" fill="white"/>
<path d="M268.596 49.9049H124.154V111.122H268.596V49.9049Z" fill="white"/>
<path d="M274.511 34.1818H118.448V44.0245H274.511V34.1818Z" fill="#C1D8ED"/>
<path d="M170.735 80.826C170.735 84.034 169.835 87.17 168.149 89.8374C166.463 92.5048 164.067 94.5837 161.264 95.8114C158.46 97.0391 155.376 97.3603 152.399 96.7344C149.423 96.1085 146.69 94.5637 144.544 92.2953C142.398 90.0269 140.937 87.1367 140.345 83.9903C139.753 80.8439 140.057 77.5826 141.218 74.6188C142.379 71.6549 144.346 69.1217 146.869 67.3394C149.392 65.5571 152.358 64.6058 155.393 64.6058C157.409 64.5994 159.407 65.0146 161.271 65.8274C163.135 66.6403 164.829 67.8348 166.255 69.3423C167.681 70.8497 168.811 72.6404 169.579 74.6112C170.348 76.582 170.741 78.6941 170.735 80.826Z" fill="#C1D8ED"/>
<path d="M155.393 82.4974C158.747 82.4974 161.466 79.6225 161.466 76.0761C161.466 72.5297 158.747 69.6548 155.393 69.6548C152.038 69.6548 149.319 72.5297 149.319 76.0761C149.319 79.6225 152.038 82.4974 155.393 82.4974Z" fill="#DEE8F5"/>
<path d="M166.449 92.0734C165.017 93.6459 163.3 94.8969 161.4 95.7514C159.5 96.6059 157.457 97.0463 155.392 97.0463C153.328 97.0463 151.285 96.6059 149.385 95.7514C147.485 94.8969 145.768 93.6459 144.336 92.0734C146.405 87.1854 150.581 83.8451 155.392 83.8451C160.204 83.8451 164.38 87.1856 166.449 92.0734Z" fill="#DEE8F5"/>
<path d="M207.961 64.7065H176.987V74.6025H207.961V64.7065Z" fill="#DEE8F5"/>
<path d="M252.7 80.7239H176.987V84.3243H252.7V80.7239Z" fill="#DEE8F5"/>
<path d="M252.7 90.4456H176.987V94.046H252.7V90.4456Z" fill="#DEE8F5"/>
<path d="M135.182 138.609C139.345 138.609 142.72 135.041 142.72 130.64C142.72 126.238 139.345 122.67 135.182 122.67C131.018 122.67 127.643 126.238 127.643 130.64C127.643 135.041 131.018 138.609 135.182 138.609Z" fill="#C1D8ED"/>
<path d="M148.661 131.502H136.778V144.065H148.661V131.502Z" fill="#DEE8F5"/>
<path d="M186.181 130.64V143.203H174.298" fill="#DEE8F5"/>
<path d="M173.226 122.67H168.637V140.565H173.226V122.67Z" fill="#DEE8F5"/>
<path d="M180.24 130.639C181.543 130.639 182.6 129.523 182.6 128.145C182.6 126.767 181.543 125.65 180.24 125.65C178.937 125.65 177.88 126.767 177.88 128.145C177.88 129.523 178.937 130.639 180.24 130.639Z" fill="#C1D8ED"/>
<path d="M223.147 129.78V124.929H206.22V129.78H223.147Z" fill="#DEE8F5"/>
<path d="M218.624 141.977C222.063 141.977 224.851 139.03 224.851 135.394C224.851 131.758 222.063 128.81 218.624 128.81C215.184 128.81 212.396 131.758 212.396 135.394C212.396 139.03 215.184 141.977 218.624 141.977Z" fill="#C1D8ED"/>
<path d="M262.32 129.935V125.084H245.393V129.935H262.32Z" fill="#C1D8ED"/>
<path d="M257.619 141.275C258.922 141.275 259.978 140.158 259.978 138.781C259.978 137.403 258.922 136.286 257.619 136.286C256.316 136.286 255.259 137.403 255.259 138.781C255.259 140.158 256.316 141.275 257.619 141.275Z" fill="#C1D8ED"/>
<path d="M252.556 142.36L244.154 133.477L252.556 124.594" fill="#DEE8F5"/>
</g>
<defs>
<clipPath id="clip0_813_1567">
<rect width="260" height="173.636" fill="white" transform="translate(71.5 34.1818)"/>
</clipPath>
</defs>
</svg>
